<svg width="1363" height="167" viewBox="0 0 1363 167" fill="none" xmlns="http://www.w3.org/2000/svg">
<rect width="1363" height="167" rx="15" fill="#F0F0F0"/>
<path d="M0 15C0 6.71573 6.71573 0 15 0H37V167H15C6.71573 167 0 160.284 0 152V15Z" fill="#424241"/>
<path d="M100.906 54.9219L93.3945 52.2383V49.0859L103.602 53.375V55.6367L100.906 54.9219ZM93.3945 57.1719L100.918 54.4297L103.602 53.7852V56.0352L93.3945 60.3242V57.1719ZM118.543 55.918H114.195V53.1758H118.543C119.215 53.1758 119.762 53.0664 120.184 52.8477C120.605 52.6211 120.914 52.3086 121.109 51.9102C121.305 51.5117 121.402 51.0625 121.402 50.5625C121.402 50.0547 121.305 49.582 121.109 49.1445C120.914 48.707 120.605 48.3555 120.184 48.0898C119.762 47.8242 119.215 47.6914 118.543 47.6914H115.414V62H111.898V44.9375H118.543C119.879 44.9375 121.023 45.1797 121.977 45.6641C122.938 46.1406 123.672 46.8008 124.18 47.6445C124.688 48.4883 124.941 49.4531 124.941 50.5391C124.941 51.6406 124.688 52.5938 124.18 53.3984C123.672 54.2031 122.938 54.8242 121.977 55.2617C121.023 55.6992 119.879 55.918 118.543 55.918ZM132.828 62.2344C131.844 62.2344 130.961 62.0781 130.18 61.7656C129.398 61.4453 128.734 61.0039 128.188 60.4414C127.648 59.8789 127.234 59.2266 126.945 58.4844C126.656 57.7344 126.512 56.9375 126.512 56.0938V55.625C126.512 54.6641 126.648 53.7852 126.922 52.9883C127.195 52.1914 127.586 51.5 128.094 50.9141C128.609 50.3281 129.234 49.8789 129.969 49.5664C130.703 49.2461 131.531 49.0859 132.453 49.0859C133.352 49.0859 134.148 49.2344 134.844 49.5312C135.539 49.8281 136.121 50.25 136.59 50.7969C137.066 51.3438 137.426 52 137.668 52.7656C137.91 53.5234 138.031 54.3672 138.031 55.2969V56.7031H127.953V54.4531H134.715V54.1953C134.715 53.7266 134.629 53.3086 134.457 52.9414C134.293 52.5664 134.043 52.2695 133.707 52.0508C133.371 51.832 132.941 51.7227 132.418 51.7227C131.973 51.7227 131.59 51.8203 131.27 52.0156C130.949 52.2109 130.688 52.4844 130.484 52.8359C130.289 53.1875 130.141 53.6016 130.039 54.0781C129.945 54.5469 129.898 55.0625 129.898 55.625V56.0938C129.898 56.6016 129.969 57.0703 130.109 57.5C130.258 57.9297 130.465 58.3008 130.73 58.6133C131.004 58.9258 131.332 59.168 131.715 59.3398C132.105 59.5117 132.547 59.5977 133.039 59.5977C133.648 59.5977 134.215 59.4805 134.738 59.2461C135.27 59.0039 135.727 58.6406 136.109 58.1562L137.75 59.9375C137.484 60.3203 137.121 60.6875 136.66 61.0391C136.207 61.3906 135.66 61.6797 135.02 61.9062C134.379 62.125 133.648 62.2344 132.828 62.2344ZM146.164 49.3203V51.7109H138.781V49.3203H146.164ZM140.609 46.1914H143.984V58.1797C143.984 58.5469 144.031 58.8281 144.125 59.0234C144.227 59.2188 144.375 59.3555 144.57 59.4336C144.766 59.5039 145.012 59.5391 145.309 59.5391C145.52 59.5391 145.707 59.5312 145.871 59.5156C146.043 59.4922 146.188 59.4688 146.305 59.4453L146.316 61.9297C146.027 62.0234 145.715 62.0977 145.379 62.1523C145.043 62.207 144.672 62.2344 144.266 62.2344C143.523 62.2344 142.875 62.1133 142.32 61.8711C141.773 61.6211 141.352 61.2227 141.055 60.6758C140.758 60.1289 140.609 59.4102 140.609 58.5195V46.1914ZM160.918 55.918H156.57V53.1758H160.918C161.59 53.1758 162.137 53.0664 162.559 52.8477C162.98 52.6211 163.289 52.3086 163.484 51.9102C163.68 51.5117 163.777 51.0625 163.777 50.5625C163.777 50.0547 163.68 49.582 163.484 49.1445C163.289 48.707 162.98 48.3555 162.559 48.0898C162.137 47.8242 161.59 47.6914 160.918 47.6914H157.789V62H154.273V44.9375H160.918C162.254 44.9375 163.398 45.1797 164.352 45.6641C165.312 46.1406 166.047 46.8008 166.555 47.6445C167.062 48.4883 167.316 49.4531 167.316 50.5391C167.316 51.6406 167.062 52.5938 166.555 53.3984C166.047 54.2031 165.312 54.8242 164.352 55.2617C163.398 55.6992 162.254 55.918 160.918 55.918ZM176.234 59.1406V53.4922C176.234 53.0859 176.168 52.7383 176.035 52.4492C175.902 52.1523 175.695 51.9219 175.414 51.7578C175.141 51.5938 174.785 51.5117 174.348 51.5117C173.973 51.5117 173.648 51.5781 173.375 51.7109C173.102 51.8359 172.891 52.0195 172.742 52.2617C172.594 52.4961 172.52 52.7734 172.52 53.0938H169.145C169.145 52.5547 169.27 52.043 169.52 51.5586C169.77 51.0742 170.133 50.6484 170.609 50.2812C171.086 49.9062 171.652 49.6133 172.309 49.4023C172.973 49.1914 173.715 49.0859 174.535 49.0859C175.52 49.0859 176.395 49.25 177.16 49.5781C177.926 49.9062 178.527 50.3984 178.965 51.0547C179.41 51.7109 179.633 52.5312 179.633 53.5156V58.9414C179.633 59.6367 179.676 60.207 179.762 60.6523C179.848 61.0898 179.973 61.4727 180.137 61.8008V62H176.727C176.562 61.6562 176.438 61.2266 176.352 60.7109C176.273 60.1875 176.234 59.6641 176.234 59.1406ZM176.68 54.2773L176.703 56.1875H174.816C174.371 56.1875 173.984 56.2383 173.656 56.3398C173.328 56.4414 173.059 56.5859 172.848 56.7734C172.637 56.9531 172.48 57.1641 172.379 57.4062C172.285 57.6484 172.238 57.9141 172.238 58.2031C172.238 58.4922 172.305 58.7539 172.438 58.9883C172.57 59.2148 172.762 59.3945 173.012 59.5273C173.262 59.6523 173.555 59.7148 173.891 59.7148C174.398 59.7148 174.84 59.6133 175.215 59.4102C175.59 59.207 175.879 58.957 176.082 58.6602C176.293 58.3633 176.402 58.082 176.41 57.8164L177.301 59.2461C177.176 59.5664 177.004 59.8984 176.785 60.2422C176.574 60.5859 176.305 60.9102 175.977 61.2148C175.648 61.5117 175.254 61.7578 174.793 61.9531C174.332 62.1406 173.785 62.2344 173.152 62.2344C172.348 62.2344 171.617 62.0742 170.961 61.7539C170.312 61.4258 169.797 60.9766 169.414 60.4062C169.039 59.8281 168.852 59.1719 168.852 58.4375C168.852 57.7734 168.977 57.1836 169.227 56.668C169.477 56.1523 169.844 55.7188 170.328 55.3672C170.82 55.0078 171.434 54.7383 172.168 54.5586C172.902 54.3711 173.754 54.2773 174.723 54.2773H176.68ZM185.609 51.9453V62H182.223V49.3203H185.398L185.609 51.9453ZM185.141 55.2148H184.203C184.203 54.332 184.309 53.5195 184.52 52.7773C184.738 52.0273 185.055 51.3789 185.469 50.832C185.891 50.2773 186.41 49.8477 187.027 49.543C187.645 49.2383 188.359 49.0859 189.172 49.0859C189.734 49.0859 190.25 49.1719 190.719 49.3438C191.188 49.5078 191.59 49.7695 191.926 50.1289C192.27 50.4805 192.535 50.9414 192.723 51.5117C192.91 52.0742 193.004 52.75 193.004 53.5391V62H189.629V53.9141C189.629 53.3359 189.551 52.8906 189.395 52.5781C189.238 52.2656 189.016 52.0469 188.727 51.9219C188.445 51.7969 188.105 51.7344 187.707 51.7344C187.27 51.7344 186.887 51.8242 186.559 52.0039C186.238 52.1836 185.973 52.4336 185.762 52.7539C185.551 53.0664 185.395 53.4336 185.293 53.8555C185.191 54.2773 185.141 54.7305 185.141 55.2148ZM192.688 54.8281L191.48 54.9805C191.48 54.1523 191.582 53.3828 191.785 52.6719C191.996 51.9609 192.305 51.3359 192.711 50.7969C193.125 50.2578 193.637 49.8398 194.246 49.543C194.855 49.2383 195.559 49.0859 196.355 49.0859C196.965 49.0859 197.52 49.1758 198.02 49.3555C198.52 49.5273 198.945 49.8047 199.297 50.1875C199.656 50.5625 199.93 51.0547 200.117 51.6641C200.312 52.2734 200.41 53.0195 200.41 53.9023V62H197.023V53.9023C197.023 53.3164 196.945 52.8711 196.789 52.5664C196.641 52.2539 196.422 52.0391 196.133 51.9219C195.852 51.7969 195.516 51.7344 195.125 51.7344C194.719 51.7344 194.363 51.8164 194.059 51.9805C193.754 52.1367 193.5 52.3555 193.297 52.6367C193.094 52.918 192.941 53.2461 192.84 53.6211C192.738 53.9883 192.688 54.3906 192.688 54.8281ZM206.398 51.7578V66.875H203.023V49.3203H206.152L206.398 51.7578ZM214.426 55.5195V55.7656C214.426 56.6875 214.316 57.543 214.098 58.332C213.887 59.1211 213.574 59.8086 213.16 60.3945C212.746 60.9727 212.23 61.4258 211.613 61.7539C211.004 62.0742 210.301 62.2344 209.504 62.2344C208.73 62.2344 208.059 62.0781 207.488 61.7656C206.918 61.4531 206.438 61.0156 206.047 60.4531C205.664 59.8828 205.355 59.2227 205.121 58.4727C204.887 57.7227 204.707 56.918 204.582 56.0586V55.4141C204.707 54.4922 204.887 53.6484 205.121 52.8828C205.355 52.1094 205.664 51.4414 206.047 50.8789C206.438 50.3086 206.914 49.8672 207.477 49.5547C208.047 49.2422 208.715 49.0859 209.48 49.0859C210.285 49.0859 210.992 49.2383 211.602 49.543C212.219 49.8477 212.734 50.2852 213.148 50.8555C213.57 51.4258 213.887 52.1055 214.098 52.8945C214.316 53.6836 214.426 54.5586 214.426 55.5195ZM211.039 55.7656V55.5195C211.039 54.9805 210.992 54.4844 210.898 54.0312C210.812 53.5703 210.672 53.168 210.477 52.8242C210.289 52.4805 210.039 52.2148 209.727 52.0273C209.422 51.832 209.051 51.7344 208.613 51.7344C208.152 51.7344 207.758 51.8086 207.43 51.957C207.109 52.1055 206.848 52.3203 206.645 52.6016C206.441 52.8828 206.289 53.2188 206.188 53.6094C206.086 54 206.023 54.4414 206 54.9336V56.5625C206.039 57.1406 206.148 57.6602 206.328 58.1211C206.508 58.5742 206.785 58.9336 207.16 59.1992C207.535 59.4648 208.027 59.5977 208.637 59.5977C209.082 59.5977 209.457 59.5 209.762 59.3047C210.066 59.1016 210.312 58.8242 210.5 58.4727C210.695 58.1211 210.832 57.7148 210.91 57.2539C210.996 56.793 211.039 56.2969 211.039 55.7656ZM222.359 62.2344C221.375 62.2344 220.492 62.0781 219.711 61.7656C218.93 61.4453 218.266 61.0039 217.719 60.4414C217.18 59.8789 216.766 59.2266 216.477 58.4844C216.188 57.7344 216.043 56.9375 216.043 56.0938V55.625C216.043 54.6641 216.18 53.7852 216.453 52.9883C216.727 52.1914 217.117 51.5 217.625 50.9141C218.141 50.3281 218.766 49.8789 219.5 49.5664C220.234 49.2461 221.062 49.0859 221.984 49.0859C222.883 49.0859 223.68 49.2344 224.375 49.5312C225.07 49.8281 225.652 50.25 226.121 50.7969C226.598 51.3438 226.957 52 227.199 52.7656C227.441 53.5234 227.562 54.3672 227.562 55.2969V56.7031H217.484V54.4531H224.246V54.1953C224.246 53.7266 224.16 53.3086 223.988 52.9414C223.824 52.5664 223.574 52.2695 223.238 52.0508C222.902 51.832 222.473 51.7227 221.949 51.7227C221.504 51.7227 221.121 51.8203 220.801 52.0156C220.48 52.2109 220.219 52.4844 220.016 52.8359C219.82 53.1875 219.672 53.6016 219.57 54.0781C219.477 54.5469 219.43 55.0625 219.43 55.625V56.0938C219.43 56.6016 219.5 57.0703 219.641 57.5C219.789 57.9297 219.996 58.3008 220.262 58.6133C220.535 58.9258 220.863 59.168 221.246 59.3398C221.637 59.5117 222.078 59.5977 222.57 59.5977C223.18 59.5977 223.746 59.4805 224.27 59.2461C224.801 59.0039 225.258 58.6406 225.641 58.1562L227.281 59.9375C227.016 60.3203 226.652 60.6875 226.191 61.0391C225.738 61.3906 225.191 61.6797 224.551 61.9062C223.91 62.125 223.18 62.2344 222.359 62.2344ZM232.859 52.0859V62H229.484V49.3203H232.66L232.859 52.0859ZM236.68 49.2383L236.621 52.3672C236.457 52.3438 236.258 52.3242 236.023 52.3086C235.797 52.2852 235.59 52.2734 235.402 52.2734C234.926 52.2734 234.512 52.3359 234.16 52.4609C233.816 52.5781 233.527 52.7539 233.293 52.9883C233.066 53.2227 232.895 53.5078 232.777 53.8438C232.668 54.1797 232.605 54.5625 232.59 54.9922L231.91 54.7812C231.91 53.9609 231.992 53.207 232.156 52.5195C232.32 51.8242 232.559 51.2188 232.871 50.7031C233.191 50.1875 233.582 49.7891 234.043 49.5078C234.504 49.2266 235.031 49.0859 235.625 49.0859C235.812 49.0859 236.004 49.1016 236.199 49.1328C236.395 49.1562 236.555 49.1914 236.68 49.2383Z" fill="#888888"/>
<path d="M101.822 115.1L108.194 86.0078H111.995L114.061 88.4907L107.271 118H103.074L101.822 115.1ZM100.13 86.0078L105.513 115.319L104.129 118H99.2729L92.4834 86.0078H100.13ZM117.554 115.166L122.894 86.0078H130.518L123.729 118H118.895L117.554 115.166ZM114.742 86.0078L121.268 115.275L119.949 118H115.752L108.809 88.4468L110.962 86.0078H114.742ZM141.021 94.2256V118H133.594V94.2256H141.021ZM133.155 88.0952C133.155 87.0405 133.536 86.1763 134.297 85.5024C135.059 84.8286 136.048 84.4917 137.264 84.4917C138.479 84.4917 139.468 84.8286 140.23 85.5024C140.992 86.1763 141.373 87.0405 141.373 88.0952C141.373 89.1499 140.992 90.0142 140.23 90.688C139.468 91.3618 138.479 91.6987 137.264 91.6987C136.048 91.6987 135.059 91.3618 134.297 90.688C133.536 90.0142 133.155 89.1499 133.155 88.0952ZM153.062 100.114V118H145.657V94.2256H152.579L153.062 100.114ZM160.093 94.0498L159.961 100.927C159.668 100.898 159.273 100.861 158.775 100.817C158.277 100.773 157.859 100.751 157.522 100.751C156.658 100.751 155.911 100.854 155.281 101.059C154.666 101.25 154.153 101.542 153.743 101.938C153.348 102.319 153.055 102.802 152.864 103.388C152.688 103.974 152.608 104.655 152.623 105.432L151.282 104.553C151.282 102.956 151.436 101.506 151.744 100.202C152.066 98.8838 152.52 97.7485 153.106 96.7964C153.692 95.8296 154.402 95.0898 155.237 94.5771C156.072 94.0498 157.01 93.7861 158.05 93.7861C158.416 93.7861 158.775 93.8081 159.126 93.8521C159.493 93.896 159.815 93.9619 160.093 94.0498ZM173.716 118.439C171.783 118.439 170.054 118.139 168.531 117.539C167.007 116.923 165.718 116.081 164.664 115.012C163.624 113.942 162.825 112.712 162.269 111.32C161.727 109.929 161.456 108.457 161.456 106.904V106.069C161.456 104.326 161.697 102.714 162.181 101.235C162.664 99.7407 163.382 98.437 164.334 97.3237C165.286 96.2104 166.48 95.3462 167.916 94.731C169.351 94.1011 171.021 93.7861 172.925 93.7861C174.61 93.7861 176.119 94.0571 177.452 94.5991C178.785 95.1411 179.913 95.9175 180.835 96.9282C181.773 97.939 182.483 99.1621 182.967 100.598C183.465 102.033 183.714 103.645 183.714 105.432V108.442H164.29V103.806H176.485V103.234C176.5 102.443 176.36 101.77 176.067 101.213C175.789 100.656 175.379 100.231 174.837 99.9385C174.295 99.6455 173.636 99.499 172.859 99.499C172.054 99.499 171.387 99.6748 170.86 100.026C170.347 100.378 169.944 100.861 169.651 101.477C169.373 102.077 169.175 102.773 169.058 103.564C168.941 104.355 168.882 105.19 168.882 106.069V106.904C168.882 107.783 169 108.581 169.234 109.299C169.483 110.017 169.834 110.632 170.289 111.145C170.757 111.643 171.314 112.031 171.958 112.309C172.618 112.587 173.365 112.727 174.2 112.727C175.21 112.727 176.207 112.536 177.188 112.155C178.169 111.774 179.012 111.145 179.715 110.266L183.077 114.265C182.593 114.953 181.905 115.62 181.011 116.264C180.132 116.909 179.078 117.436 177.847 117.846C176.617 118.242 175.24 118.439 173.716 118.439ZM195.799 118H188.35V92.292C188.35 90.4463 188.724 88.8936 189.471 87.6338C190.218 86.374 191.272 85.4219 192.635 84.7773C193.997 84.1182 195.608 83.7886 197.469 83.7886C198.113 83.7886 198.721 83.8325 199.292 83.9204C199.864 84.0083 200.42 84.1182 200.962 84.25L200.984 89.6992C200.721 89.626 200.45 89.5747 200.171 89.5454C199.893 89.5161 199.549 89.5015 199.139 89.5015C198.421 89.5015 197.813 89.6113 197.315 89.8311C196.817 90.0361 196.436 90.3511 196.172 90.7759C195.923 91.186 195.799 91.6914 195.799 92.292V118ZM200.413 94.2256V99.3672H184.922V94.2256H200.413ZM210.542 100.114V118H203.138V94.2256H210.059L210.542 100.114ZM217.574 94.0498L217.442 100.927C217.149 100.898 216.753 100.861 216.255 100.817C215.757 100.773 215.34 100.751 215.003 100.751C214.139 100.751 213.392 100.854 212.762 101.059C212.146 101.25 211.634 101.542 211.224 101.938C210.828 102.319 210.535 102.802 210.345 103.388C210.169 103.974 210.088 104.655 210.103 105.432L208.763 104.553C208.763 102.956 208.917 101.506 209.224 100.202C209.546 98.8838 210 97.7485 210.586 96.7964C211.172 95.8296 211.883 95.0898 212.718 94.5771C213.553 94.0498 214.49 93.7861 215.53 93.7861C215.896 93.7861 216.255 93.8081 216.607 93.8521C216.973 93.896 217.295 93.9619 217.574 94.0498ZM231.812 112.023V102.224C231.812 101.55 231.717 100.971 231.526 100.488C231.336 100.004 231.036 99.6309 230.625 99.3672C230.215 99.0889 229.666 98.9497 228.978 98.9497C228.421 98.9497 227.945 99.0449 227.549 99.2354C227.154 99.4258 226.854 99.7114 226.648 100.092C226.443 100.473 226.341 100.957 226.341 101.542H218.936C218.936 100.444 219.178 99.4258 219.661 98.4883C220.159 97.5361 220.862 96.7085 221.771 96.0054C222.693 95.3022 223.792 94.7603 225.066 94.3794C226.355 93.9839 227.791 93.7861 229.373 93.7861C231.263 93.7861 232.947 94.1011 234.427 94.731C235.921 95.3608 237.1 96.3057 237.964 97.5654C238.829 98.8105 239.261 100.378 239.261 102.268V112.001C239.261 113.554 239.349 114.733 239.524 115.539C239.7 116.33 239.949 117.026 240.271 117.626V118H232.845C232.493 117.268 232.229 116.374 232.054 115.319C231.893 114.25 231.812 113.151 231.812 112.023ZM232.713 103.476L232.757 107.431H229.483C228.794 107.431 228.208 107.526 227.725 107.717C227.256 107.907 226.875 108.171 226.583 108.508C226.304 108.83 226.099 109.196 225.967 109.606C225.85 110.017 225.792 110.449 225.792 110.903C225.792 111.342 225.894 111.738 226.099 112.089C226.319 112.426 226.612 112.69 226.978 112.88C227.344 113.071 227.754 113.166 228.208 113.166C229.029 113.166 229.725 113.012 230.296 112.705C230.882 112.382 231.329 111.994 231.636 111.54C231.944 111.086 232.098 110.661 232.098 110.266L233.724 113.298C233.431 113.884 233.094 114.477 232.713 115.078C232.347 115.678 231.885 116.235 231.329 116.748C230.787 117.246 230.12 117.656 229.329 117.978C228.538 118.286 227.579 118.439 226.451 118.439C224.986 118.439 223.638 118.139 222.408 117.539C221.192 116.938 220.218 116.103 219.485 115.034C218.753 113.95 218.387 112.705 218.387 111.298C218.387 110.068 218.606 108.969 219.046 108.002C219.5 107.036 220.181 106.215 221.089 105.542C221.998 104.868 223.155 104.355 224.561 104.003C225.967 103.652 227.623 103.476 229.527 103.476H232.713ZM250.84 99.2573V118H243.436V94.2256H250.379L250.84 99.2573ZM249.939 105.3L248.248 105.344C248.248 103.674 248.445 102.136 248.841 100.729C249.236 99.3232 249.822 98.1001 250.599 97.0601C251.375 96.02 252.327 95.2144 253.455 94.6431C254.598 94.0718 255.916 93.7861 257.41 93.7861C258.45 93.7861 259.395 93.9473 260.245 94.2695C261.094 94.5771 261.827 95.0679 262.442 95.7417C263.057 96.4009 263.526 97.2651 263.848 98.3345C264.185 99.3892 264.354 100.656 264.354 102.136V118H256.949V103.081C256.949 102.07 256.832 101.308 256.597 100.795C256.377 100.283 256.055 99.9385 255.63 99.7627C255.206 99.5869 254.686 99.499 254.07 99.499C253.426 99.499 252.847 99.6455 252.334 99.9385C251.822 100.231 251.382 100.642 251.016 101.169C250.665 101.682 250.394 102.29 250.203 102.993C250.027 103.696 249.939 104.465 249.939 105.3ZM263.519 105.3L261.453 105.344C261.453 103.674 261.636 102.136 262.002 100.729C262.383 99.3232 262.947 98.1001 263.694 97.0601C264.456 96.02 265.401 95.2144 266.529 94.6431C267.657 94.0718 268.968 93.7861 270.462 93.7861C271.546 93.7861 272.542 93.9473 273.45 94.2695C274.358 94.5918 275.142 95.1118 275.801 95.8296C276.46 96.5474 276.973 97.4995 277.339 98.686C277.706 99.8579 277.889 101.308 277.889 103.037V118H270.462V103.037C270.462 102.055 270.345 101.315 270.11 100.817C269.891 100.305 269.568 99.9604 269.144 99.7847C268.719 99.5942 268.213 99.499 267.627 99.499C266.924 99.499 266.316 99.6455 265.804 99.9385C265.291 100.231 264.859 100.642 264.507 101.169C264.17 101.682 263.921 102.29 263.76 102.993C263.599 103.696 263.519 104.465 263.519 105.3ZM293.643 118.439C291.709 118.439 289.981 118.139 288.458 117.539C286.934 116.923 285.645 116.081 284.59 115.012C283.55 113.942 282.752 112.712 282.195 111.32C281.653 109.929 281.382 108.457 281.382 106.904V106.069C281.382 104.326 281.624 102.714 282.107 101.235C282.591 99.7407 283.309 98.437 284.261 97.3237C285.213 96.2104 286.407 95.3462 287.842 94.731C289.278 94.1011 290.948 93.7861 292.852 93.7861C294.537 93.7861 296.045 94.0571 297.378 94.5991C298.711 95.1411 299.839 95.9175 300.762 96.9282C301.7 97.939 302.41 99.1621 302.894 100.598C303.392 102.033 303.641 103.645 303.641 105.432V108.442H284.217V103.806H296.412V103.234C296.426 102.443 296.287 101.77 295.994 101.213C295.716 100.656 295.306 100.231 294.764 99.9385C294.222 99.6455 293.562 99.499 292.786 99.499C291.98 99.499 291.314 99.6748 290.787 100.026C290.274 100.378 289.871 100.861 289.578 101.477C289.3 102.077 289.102 102.773 288.985 103.564C288.868 104.355 288.809 105.19 288.809 106.069V106.904C288.809 107.783 288.926 108.581 289.161 109.299C289.41 110.017 289.761 110.632 290.215 111.145C290.684 111.643 291.241 112.031 291.885 112.309C292.544 112.587 293.292 112.727 294.126 112.727C295.137 112.727 296.133 112.536 297.115 112.155C298.096 111.774 298.938 111.145 299.642 110.266L303.003 114.265C302.52 114.953 301.832 115.62 300.938 116.264C300.059 116.909 299.004 117.436 297.774 117.846C296.543 118.242 295.167 118.439 293.643 118.439ZM319.109 111.32C319.109 110.91 318.97 110.559 318.692 110.266C318.428 109.958 317.959 109.68 317.286 109.431C316.612 109.167 315.667 108.903 314.451 108.64C313.294 108.391 312.203 108.061 311.177 107.651C310.167 107.241 309.28 106.743 308.519 106.157C307.757 105.571 307.156 104.875 306.717 104.069C306.292 103.264 306.08 102.341 306.08 101.301C306.08 100.29 306.292 99.3379 306.717 98.4443C307.156 97.5361 307.793 96.7378 308.628 96.0493C309.478 95.3462 310.511 94.7969 311.727 94.4014C312.942 93.9912 314.327 93.7861 315.879 93.7861C318.018 93.7861 319.864 94.1157 321.417 94.7749C322.969 95.4194 324.163 96.3276 324.998 97.4995C325.848 98.6567 326.272 99.9971 326.272 101.521H318.868C318.868 100.92 318.765 100.407 318.56 99.9824C318.37 99.5576 318.055 99.2354 317.615 99.0156C317.176 98.7812 316.59 98.6641 315.857 98.6641C315.345 98.6641 314.876 98.7593 314.451 98.9497C314.041 99.1401 313.711 99.4038 313.462 99.7407C313.213 100.078 313.089 100.473 313.089 100.927C313.089 101.25 313.162 101.542 313.309 101.806C313.47 102.055 313.711 102.29 314.034 102.509C314.356 102.714 314.766 102.905 315.264 103.081C315.762 103.242 316.363 103.388 317.066 103.52C318.663 103.813 320.157 104.23 321.548 104.772C322.94 105.314 324.068 106.083 324.932 107.08C325.811 108.076 326.25 109.416 326.25 111.101C326.25 112.155 326.009 113.129 325.525 114.023C325.042 114.902 324.346 115.678 323.438 116.352C322.53 117.011 321.438 117.524 320.164 117.89C318.89 118.256 317.454 118.439 315.857 118.439C313.587 118.439 311.668 118.037 310.101 117.231C308.533 116.411 307.347 115.385 306.541 114.155C305.75 112.91 305.354 111.65 305.354 110.375H312.254C312.283 111.108 312.459 111.708 312.781 112.177C313.118 112.646 313.565 112.99 314.122 113.21C314.678 113.43 315.323 113.54 316.055 113.54C316.729 113.54 317.286 113.444 317.725 113.254C318.179 113.063 318.523 112.807 318.758 112.485C318.992 112.148 319.109 111.76 319.109 111.32Z" fill="#424241"/>
<path d="M1363 15C1363 6.71573 1356.28 0 1348 0H1134V167H1348C1356.28 167 1363 160.284 1363 152V15Z" fill="#004B67"/>
<path fill-rule="evenodd" clip-rule="evenodd" d="M1203 49C1203 47.8954 1203.9 47 1205 47H1292.5C1293.6 47 1294.5 47.8954 1294.5 49V118.996C1294.5 120.101 1293.6 120.996 1292.5 120.996H1205C1203.9 120.996 1203 120.101 1203 118.996V49ZM1207 51V55.4945H1290.5V51H1207ZM1290.5 59.4945H1235.44V116.996H1290.5V59.4945ZM1231.44 116.996V59.4945H1207V116.996H1231.44Z" fill="white"/>
<path fill-rule="evenodd" clip-rule="evenodd" d="M1209.97 64.8004C1209.97 63.6958 1210.87 62.8004 1211.97 62.8004H1225.97C1227.08 62.8004 1227.97 63.6958 1227.97 64.8004V84.1956C1227.97 85.3001 1227.08 86.1956 1225.97 86.1956H1211.97C1210.87 86.1956 1209.97 85.3001 1209.97 84.1956V64.8004ZM1213.97 66.8004V82.1956H1223.97V66.8004H1213.97ZM1239.58 65.6964C1239.58 64.5918 1240.47 63.6964 1241.58 63.6964H1284.5C1285.61 63.6964 1286.5 64.5918 1286.5 65.6964V111.905C1286.5 113.01 1285.61 113.905 1284.5 113.905H1241.58C1240.47 113.905 1239.58 113.01 1239.58 111.905V65.6964ZM1243.58 67.6964V109.905H1282.5V67.6964H1243.58ZM1209.81 95.9363C1209.81 94.8317 1210.71 93.9363 1211.81 93.9363H1220.73C1221.84 93.9363 1222.73 94.8317 1222.73 95.9363C1222.73 97.0409 1221.84 97.9363 1220.73 97.9363H1211.81C1210.71 97.9363 1209.81 97.0409 1209.81 95.9363ZM1209.81 102.936C1209.81 101.832 1210.71 100.936 1211.81 100.936H1226.35C1227.46 100.936 1228.35 101.832 1228.35 102.936C1228.35 104.041 1227.46 104.936 1226.35 104.936H1211.81C1210.71 104.936 1209.81 104.041 1209.81 102.936ZM1209.81 109.936C1209.81 108.832 1210.71 107.936 1211.81 107.936H1220.73C1221.84 107.936 1222.73 108.832 1222.73 109.936C1222.73 111.041 1221.84 111.936 1220.73 111.936H1211.81C1210.71 111.936 1209.81 111.041 1209.81 109.936Z" fill="white"/>
</svg>
