<svg width="1363" height="167" viewBox="0 0 1363 167" fill="none" xmlns="http://www.w3.org/2000/svg">
<rect width="1363" height="167" rx="15" fill="#F0F0F0"/>
<path d="M0 15C0 6.71573 6.71573 0 15 0H37V167H15C6.71573 167 0 160.284 0 152V15Z" fill="#424241"/>
<path d="M100.906 54.9219L93.3945 52.2383V49.0859L103.602 53.375V55.6367L100.906 54.9219ZM93.3945 57.1719L100.918 54.4297L103.602 53.7852V56.0352L93.3945 60.3242V57.1719ZM118.543 55.918H114.195V53.1758H118.543C119.215 53.1758 119.762 53.0664 120.184 52.8477C120.605 52.6211 120.914 52.3086 121.109 51.9102C121.305 51.5117 121.402 51.0625 121.402 50.5625C121.402 50.0547 121.305 49.582 121.109 49.1445C120.914 48.707 120.605 48.3555 120.184 48.0898C119.762 47.8242 119.215 47.6914 118.543 47.6914H115.414V62H111.898V44.9375H118.543C119.879 44.9375 121.023 45.1797 121.977 45.6641C122.938 46.1406 123.672 46.8008 124.18 47.6445C124.688 48.4883 124.941 49.4531 124.941 50.5391C124.941 51.6406 124.688 52.5938 124.18 53.3984C123.672 54.2031 122.938 54.8242 121.977 55.2617C121.023 55.6992 119.879 55.918 118.543 55.918ZM132.828 62.2344C131.844 62.2344 130.961 62.0781 130.18 61.7656C129.398 61.4453 128.734 61.0039 128.188 60.4414C127.648 59.8789 127.234 59.2266 126.945 58.4844C126.656 57.7344 126.512 56.9375 126.512 56.0938V55.625C126.512 54.6641 126.648 53.7852 126.922 52.9883C127.195 52.1914 127.586 51.5 128.094 50.9141C128.609 50.3281 129.234 49.8789 129.969 49.5664C130.703 49.2461 131.531 49.0859 132.453 49.0859C133.352 49.0859 134.148 49.2344 134.844 49.5312C135.539 49.8281 136.121 50.25 136.59 50.7969C137.066 51.3438 137.426 52 137.668 52.7656C137.91 53.5234 138.031 54.3672 138.031 55.2969V56.7031H127.953V54.4531H134.715V54.1953C134.715 53.7266 134.629 53.3086 134.457 52.9414C134.293 52.5664 134.043 52.2695 133.707 52.0508C133.371 51.832 132.941 51.7227 132.418 51.7227C131.973 51.7227 131.59 51.8203 131.27 52.0156C130.949 52.2109 130.688 52.4844 130.484 52.8359C130.289 53.1875 130.141 53.6016 130.039 54.0781C129.945 54.5469 129.898 55.0625 129.898 55.625V56.0938C129.898 56.6016 129.969 57.0703 130.109 57.5C130.258 57.9297 130.465 58.3008 130.73 58.6133C131.004 58.9258 131.332 59.168 131.715 59.3398C132.105 59.5117 132.547 59.5977 133.039 59.5977C133.648 59.5977 134.215 59.4805 134.738 59.2461C135.27 59.0039 135.727 58.6406 136.109 58.1562L137.75 59.9375C137.484 60.3203 137.121 60.6875 136.66 61.0391C136.207 61.3906 135.66 61.6797 135.02 61.9062C134.379 62.125 133.648 62.2344 132.828 62.2344ZM146.164 49.3203V51.7109H138.781V49.3203H146.164ZM140.609 46.1914H143.984V58.1797C143.984 58.5469 144.031 58.8281 144.125 59.0234C144.227 59.2188 144.375 59.3555 144.57 59.4336C144.766 59.5039 145.012 59.5391 145.309 59.5391C145.52 59.5391 145.707 59.5312 145.871 59.5156C146.043 59.4922 146.188 59.4688 146.305 59.4453L146.316 61.9297C146.027 62.0234 145.715 62.0977 145.379 62.1523C145.043 62.207 144.672 62.2344 144.266 62.2344C143.523 62.2344 142.875 62.1133 142.32 61.8711C141.773 61.6211 141.352 61.2227 141.055 60.6758C140.758 60.1289 140.609 59.4102 140.609 58.5195V46.1914ZM160.918 55.918H156.57V53.1758H160.918C161.59 53.1758 162.137 53.0664 162.559 52.8477C162.98 52.6211 163.289 52.3086 163.484 51.9102C163.68 51.5117 163.777 51.0625 163.777 50.5625C163.777 50.0547 163.68 49.582 163.484 49.1445C163.289 48.707 162.98 48.3555 162.559 48.0898C162.137 47.8242 161.59 47.6914 160.918 47.6914H157.789V62H154.273V44.9375H160.918C162.254 44.9375 163.398 45.1797 164.352 45.6641C165.312 46.1406 166.047 46.8008 166.555 47.6445C167.062 48.4883 167.316 49.4531 167.316 50.5391C167.316 51.6406 167.062 52.5938 166.555 53.3984C166.047 54.2031 165.312 54.8242 164.352 55.2617C163.398 55.6992 162.254 55.918 160.918 55.918ZM176.234 59.1406V53.4922C176.234 53.0859 176.168 52.7383 176.035 52.4492C175.902 52.1523 175.695 51.9219 175.414 51.7578C175.141 51.5938 174.785 51.5117 174.348 51.5117C173.973 51.5117 173.648 51.5781 173.375 51.7109C173.102 51.8359 172.891 52.0195 172.742 52.2617C172.594 52.4961 172.52 52.7734 172.52 53.0938H169.145C169.145 52.5547 169.27 52.043 169.52 51.5586C169.77 51.0742 170.133 50.6484 170.609 50.2812C171.086 49.9062 171.652 49.6133 172.309 49.4023C172.973 49.1914 173.715 49.0859 174.535 49.0859C175.52 49.0859 176.395 49.25 177.16 49.5781C177.926 49.9062 178.527 50.3984 178.965 51.0547C179.41 51.7109 179.633 52.5312 179.633 53.5156V58.9414C179.633 59.6367 179.676 60.207 179.762 60.6523C179.848 61.0898 179.973 61.4727 180.137 61.8008V62H176.727C176.562 61.6562 176.438 61.2266 176.352 60.7109C176.273 60.1875 176.234 59.6641 176.234 59.1406ZM176.68 54.2773L176.703 56.1875H174.816C174.371 56.1875 173.984 56.2383 173.656 56.3398C173.328 56.4414 173.059 56.5859 172.848 56.7734C172.637 56.9531 172.48 57.1641 172.379 57.4062C172.285 57.6484 172.238 57.9141 172.238 58.2031C172.238 58.4922 172.305 58.7539 172.438 58.9883C172.57 59.2148 172.762 59.3945 173.012 59.5273C173.262 59.6523 173.555 59.7148 173.891 59.7148C174.398 59.7148 174.84 59.6133 175.215 59.4102C175.59 59.207 175.879 58.957 176.082 58.6602C176.293 58.3633 176.402 58.082 176.41 57.8164L177.301 59.2461C177.176 59.5664 177.004 59.8984 176.785 60.2422C176.574 60.5859 176.305 60.9102 175.977 61.2148C175.648 61.5117 175.254 61.7578 174.793 61.9531C174.332 62.1406 173.785 62.2344 173.152 62.2344C172.348 62.2344 171.617 62.0742 170.961 61.7539C170.312 61.4258 169.797 60.9766 169.414 60.4062C169.039 59.8281 168.852 59.1719 168.852 58.4375C168.852 57.7734 168.977 57.1836 169.227 56.668C169.477 56.1523 169.844 55.7188 170.328 55.3672C170.82 55.0078 171.434 54.7383 172.168 54.5586C172.902 54.3711 173.754 54.2773 174.723 54.2773H176.68ZM185.609 51.9453V62H182.223V49.3203H185.398L185.609 51.9453ZM185.141 55.2148H184.203C184.203 54.332 184.309 53.5195 184.52 52.7773C184.738 52.0273 185.055 51.3789 185.469 50.832C185.891 50.2773 186.41 49.8477 187.027 49.543C187.645 49.2383 188.359 49.0859 189.172 49.0859C189.734 49.0859 190.25 49.1719 190.719 49.3438C191.188 49.5078 191.59 49.7695 191.926 50.1289C192.27 50.4805 192.535 50.9414 192.723 51.5117C192.91 52.0742 193.004 52.75 193.004 53.5391V62H189.629V53.9141C189.629 53.3359 189.551 52.8906 189.395 52.5781C189.238 52.2656 189.016 52.0469 188.727 51.9219C188.445 51.7969 188.105 51.7344 187.707 51.7344C187.27 51.7344 186.887 51.8242 186.559 52.0039C186.238 52.1836 185.973 52.4336 185.762 52.7539C185.551 53.0664 185.395 53.4336 185.293 53.8555C185.191 54.2773 185.141 54.7305 185.141 55.2148ZM192.688 54.8281L191.48 54.9805C191.48 54.1523 191.582 53.3828 191.785 52.6719C191.996 51.9609 192.305 51.3359 192.711 50.7969C193.125 50.2578 193.637 49.8398 194.246 49.543C194.855 49.2383 195.559 49.0859 196.355 49.0859C196.965 49.0859 197.52 49.1758 198.02 49.3555C198.52 49.5273 198.945 49.8047 199.297 50.1875C199.656 50.5625 199.93 51.0547 200.117 51.6641C200.312 52.2734 200.41 53.0195 200.41 53.9023V62H197.023V53.9023C197.023 53.3164 196.945 52.8711 196.789 52.5664C196.641 52.2539 196.422 52.0391 196.133 51.9219C195.852 51.7969 195.516 51.7344 195.125 51.7344C194.719 51.7344 194.363 51.8164 194.059 51.9805C193.754 52.1367 193.5 52.3555 193.297 52.6367C193.094 52.918 192.941 53.2461 192.84 53.6211C192.738 53.9883 192.688 54.3906 192.688 54.8281ZM206.398 51.7578V66.875H203.023V49.3203H206.152L206.398 51.7578ZM214.426 55.5195V55.7656C214.426 56.6875 214.316 57.543 214.098 58.332C213.887 59.1211 213.574 59.8086 213.16 60.3945C212.746 60.9727 212.23 61.4258 211.613 61.7539C211.004 62.0742 210.301 62.2344 209.504 62.2344C208.73 62.2344 208.059 62.0781 207.488 61.7656C206.918 61.4531 206.438 61.0156 206.047 60.4531C205.664 59.8828 205.355 59.2227 205.121 58.4727C204.887 57.7227 204.707 56.918 204.582 56.0586V55.4141C204.707 54.4922 204.887 53.6484 205.121 52.8828C205.355 52.1094 205.664 51.4414 206.047 50.8789C206.438 50.3086 206.914 49.8672 207.477 49.5547C208.047 49.2422 208.715 49.0859 209.48 49.0859C210.285 49.0859 210.992 49.2383 211.602 49.543C212.219 49.8477 212.734 50.2852 213.148 50.8555C213.57 51.4258 213.887 52.1055 214.098 52.8945C214.316 53.6836 214.426 54.5586 214.426 55.5195ZM211.039 55.7656V55.5195C211.039 54.9805 210.992 54.4844 210.898 54.0312C210.812 53.5703 210.672 53.168 210.477 52.8242C210.289 52.4805 210.039 52.2148 209.727 52.0273C209.422 51.832 209.051 51.7344 208.613 51.7344C208.152 51.7344 207.758 51.8086 207.43 51.957C207.109 52.1055 206.848 52.3203 206.645 52.6016C206.441 52.8828 206.289 53.2188 206.188 53.6094C206.086 54 206.023 54.4414 206 54.9336V56.5625C206.039 57.1406 206.148 57.6602 206.328 58.1211C206.508 58.5742 206.785 58.9336 207.16 59.1992C207.535 59.4648 208.027 59.5977 208.637 59.5977C209.082 59.5977 209.457 59.5 209.762 59.3047C210.066 59.1016 210.312 58.8242 210.5 58.4727C210.695 58.1211 210.832 57.7148 210.91 57.2539C210.996 56.793 211.039 56.2969 211.039 55.7656ZM222.359 62.2344C221.375 62.2344 220.492 62.0781 219.711 61.7656C218.93 61.4453 218.266 61.0039 217.719 60.4414C217.18 59.8789 216.766 59.2266 216.477 58.4844C216.188 57.7344 216.043 56.9375 216.043 56.0938V55.625C216.043 54.6641 216.18 53.7852 216.453 52.9883C216.727 52.1914 217.117 51.5 217.625 50.9141C218.141 50.3281 218.766 49.8789 219.5 49.5664C220.234 49.2461 221.062 49.0859 221.984 49.0859C222.883 49.0859 223.68 49.2344 224.375 49.5312C225.07 49.8281 225.652 50.25 226.121 50.7969C226.598 51.3438 226.957 52 227.199 52.7656C227.441 53.5234 227.562 54.3672 227.562 55.2969V56.7031H217.484V54.4531H224.246V54.1953C224.246 53.7266 224.16 53.3086 223.988 52.9414C223.824 52.5664 223.574 52.2695 223.238 52.0508C222.902 51.832 222.473 51.7227 221.949 51.7227C221.504 51.7227 221.121 51.8203 220.801 52.0156C220.48 52.2109 220.219 52.4844 220.016 52.8359C219.82 53.1875 219.672 53.6016 219.57 54.0781C219.477 54.5469 219.43 55.0625 219.43 55.625V56.0938C219.43 56.6016 219.5 57.0703 219.641 57.5C219.789 57.9297 219.996 58.3008 220.262 58.6133C220.535 58.9258 220.863 59.168 221.246 59.3398C221.637 59.5117 222.078 59.5977 222.57 59.5977C223.18 59.5977 223.746 59.4805 224.27 59.2461C224.801 59.0039 225.258 58.6406 225.641 58.1562L227.281 59.9375C227.016 60.3203 226.652 60.6875 226.191 61.0391C225.738 61.3906 225.191 61.6797 224.551 61.9062C223.91 62.125 223.18 62.2344 222.359 62.2344ZM232.859 52.0859V62H229.484V49.3203H232.66L232.859 52.0859ZM236.68 49.2383L236.621 52.3672C236.457 52.3438 236.258 52.3242 236.023 52.3086C235.797 52.2852 235.59 52.2734 235.402 52.2734C234.926 52.2734 234.512 52.3359 234.16 52.4609C233.816 52.5781 233.527 52.7539 233.293 52.9883C233.066 53.2227 232.895 53.5078 232.777 53.8438C232.668 54.1797 232.605 54.5625 232.59 54.9922L231.91 54.7812C231.91 53.9609 231.992 53.207 232.156 52.5195C232.32 51.8242 232.559 51.2188 232.871 50.7031C233.191 50.1875 233.582 49.7891 234.043 49.5078C234.504 49.2266 235.031 49.0859 235.625 49.0859C235.812 49.0859 236.004 49.1016 236.199 49.1328C236.395 49.1562 236.555 49.1914 236.68 49.2383Z" fill="#888888"/>
<path d="M115.994 98.708V104.641H99.5806V98.708H115.994ZM102.151 86.0078V118H94.439V86.0078H102.151ZM121.18 86.0078V118H113.489V86.0078H121.18ZM124.805 106.354V105.893C124.805 104.15 125.054 102.546 125.552 101.081C126.05 99.6016 126.783 98.3198 127.75 97.2358C128.716 96.1519 129.91 95.3096 131.331 94.709C132.752 94.0938 134.393 93.7861 136.253 93.7861C138.128 93.7861 139.776 94.0938 141.197 94.709C142.632 95.3096 143.833 96.1519 144.8 97.2358C145.767 98.3198 146.5 99.6016 146.998 101.081C147.496 102.546 147.745 104.15 147.745 105.893V106.354C147.745 108.083 147.496 109.687 146.998 111.167C146.5 112.631 145.767 113.913 144.8 115.012C143.833 116.096 142.64 116.938 141.219 117.539C139.798 118.139 138.157 118.439 136.297 118.439C134.437 118.439 132.789 118.139 131.353 117.539C129.917 116.938 128.716 116.096 127.75 115.012C126.783 113.913 126.05 112.631 125.552 111.167C125.054 109.687 124.805 108.083 124.805 106.354ZM132.21 105.893V106.354C132.21 107.248 132.276 108.083 132.408 108.859C132.54 109.636 132.759 110.317 133.067 110.903C133.375 111.474 133.792 111.921 134.319 112.243C134.847 112.565 135.506 112.727 136.297 112.727C137.073 112.727 137.718 112.565 138.23 112.243C138.758 111.921 139.175 111.474 139.483 110.903C139.791 110.317 140.01 109.636 140.142 108.859C140.274 108.083 140.34 107.248 140.34 106.354V105.893C140.34 105.029 140.274 104.216 140.142 103.454C140.01 102.678 139.791 101.997 139.483 101.411C139.175 100.81 138.758 100.341 138.23 100.004C137.703 99.6675 137.044 99.499 136.253 99.499C135.477 99.499 134.825 99.6675 134.297 100.004C133.785 100.341 133.375 100.81 133.067 101.411C132.759 101.997 132.54 102.678 132.408 103.454C132.276 104.216 132.21 105.029 132.21 105.893ZM158.27 110.925L162.664 94.2256H167.3L165.652 102.597L161.302 118H157.588L158.27 110.925ZM156.534 94.2256L159.258 110.793L159.566 118H155.062L149.437 94.2256H156.534ZM171.211 110.441L173.958 94.2256H181.055L175.474 118H170.97L171.211 110.441ZM167.828 94.2256L172.266 110.881L172.947 118H169.19L164.927 102.641L163.345 94.2256H167.828ZM209.466 86.0078V118H201.753V86.0078H209.466ZM219.09 86.0078V91.9624H192.349V86.0078H219.09ZM216.475 106.354V105.893C216.475 104.15 216.724 102.546 217.222 101.081C217.72 99.6016 218.453 98.3198 219.419 97.2358C220.386 96.1519 221.58 95.3096 223.001 94.709C224.422 94.0938 226.062 93.7861 227.923 93.7861C229.798 93.7861 231.446 94.0938 232.867 94.709C234.302 95.3096 235.503 96.1519 236.47 97.2358C237.437 98.3198 238.169 99.6016 238.667 101.081C239.166 102.546 239.415 104.15 239.415 105.893V106.354C239.415 108.083 239.166 109.687 238.667 111.167C238.169 112.631 237.437 113.913 236.47 115.012C235.503 116.096 234.31 116.938 232.889 117.539C231.468 118.139 229.827 118.439 227.967 118.439C226.106 118.439 224.458 118.139 223.023 117.539C221.587 116.938 220.386 116.096 219.419 115.012C218.453 113.913 217.72 112.631 217.222 111.167C216.724 109.687 216.475 108.083 216.475 106.354ZM223.88 105.893V106.354C223.88 107.248 223.946 108.083 224.078 108.859C224.209 109.636 224.429 110.317 224.737 110.903C225.044 111.474 225.462 111.921 225.989 112.243C226.517 112.565 227.176 112.727 227.967 112.727C228.743 112.727 229.388 112.565 229.9 112.243C230.428 111.921 230.845 111.474 231.153 110.903C231.46 110.317 231.68 109.636 231.812 108.859C231.944 108.083 232.01 107.248 232.01 106.354V105.893C232.01 105.029 231.944 104.216 231.812 103.454C231.68 102.678 231.46 101.997 231.153 101.411C230.845 100.81 230.428 100.341 229.9 100.004C229.373 99.6675 228.714 99.499 227.923 99.499C227.146 99.499 226.495 99.6675 225.967 100.004C225.455 100.341 225.044 100.81 224.737 101.411C224.429 101.997 224.209 102.678 224.078 103.454C223.946 104.216 223.88 105.029 223.88 105.893ZM254.268 86.0078H266.858C269.319 86.0078 271.458 86.374 273.274 87.1064C275.091 87.8389 276.49 88.9229 277.471 90.3584C278.467 91.7939 278.965 93.5664 278.965 95.6758C278.965 97.5068 278.68 99.0376 278.108 100.268C277.537 101.499 276.739 102.517 275.713 103.322C274.703 104.113 273.523 104.765 272.176 105.278L269.649 106.706H259.08L259.036 100.751H266.858C267.84 100.751 268.653 100.576 269.297 100.224C269.942 99.8726 270.425 99.3745 270.748 98.73C271.084 98.0708 271.253 97.2871 271.253 96.3789C271.253 95.4561 271.084 94.665 270.748 94.0059C270.411 93.3467 269.913 92.8413 269.253 92.4897C268.609 92.1382 267.811 91.9624 266.858 91.9624H261.98V118H254.268V86.0078ZM271.78 118L264.705 103.85L272.879 103.806L280.042 117.67V118H271.78ZM297.159 112.221V94.2256H304.585V118H297.642L297.159 112.221ZM297.862 107.387L299.795 107.343C299.795 108.94 299.605 110.419 299.224 111.782C298.843 113.129 298.279 114.301 297.532 115.297C296.8 116.293 295.892 117.07 294.808 117.626C293.738 118.168 292.5 118.439 291.094 118.439C289.922 118.439 288.846 118.278 287.864 117.956C286.897 117.619 286.062 117.099 285.359 116.396C284.656 115.678 284.107 114.763 283.711 113.649C283.331 112.521 283.14 111.174 283.14 109.606V94.2256H290.545V109.65C290.545 110.178 290.611 110.632 290.743 111.013C290.875 111.394 291.065 111.716 291.314 111.979C291.563 112.229 291.871 112.419 292.237 112.551C292.618 112.668 293.05 112.727 293.533 112.727C294.646 112.727 295.518 112.492 296.148 112.023C296.778 111.555 297.217 110.917 297.466 110.112C297.73 109.306 297.862 108.398 297.862 107.387ZM315.945 99.3013V118H308.541V94.2256H315.484L315.945 99.3013ZM315.066 105.3L313.331 105.344C313.331 103.527 313.55 101.909 313.99 100.488C314.429 99.0522 315.052 97.8364 315.857 96.8403C316.663 95.8442 317.623 95.0898 318.736 94.5771C319.864 94.0498 321.116 93.7861 322.493 93.7861C323.592 93.7861 324.595 93.9473 325.503 94.2695C326.426 94.5918 327.217 95.1118 327.876 95.8296C328.55 96.5474 329.063 97.4995 329.415 98.686C329.781 99.8579 329.964 101.308 329.964 103.037V118H322.515V103.015C322.515 102.062 322.383 101.337 322.12 100.839C321.856 100.327 321.475 99.9751 320.977 99.7847C320.479 99.5942 319.871 99.499 319.153 99.499C318.392 99.499 317.747 99.6455 317.22 99.9385C316.692 100.231 316.268 100.642 315.945 101.169C315.638 101.682 315.411 102.29 315.264 102.993C315.132 103.696 315.066 104.465 315.066 105.3ZM345.85 107.871H339.544C339.544 106.582 339.632 105.446 339.808 104.465C339.998 103.469 340.32 102.575 340.774 101.784C341.229 100.993 341.844 100.261 342.62 99.5869C343.309 99.0156 343.902 98.4663 344.4 97.939C344.898 97.4116 345.279 96.877 345.542 96.335C345.806 95.793 345.938 95.2144 345.938 94.5991C345.938 93.8374 345.828 93.2148 345.608 92.7314C345.403 92.248 345.088 91.8892 344.664 91.6548C344.253 91.4058 343.733 91.2812 343.104 91.2812C342.591 91.2812 342.107 91.4058 341.653 91.6548C341.214 91.9038 340.855 92.292 340.577 92.8193C340.298 93.332 340.145 94.0132 340.115 94.8628H332.667C332.71 92.6802 333.194 90.9077 334.117 89.5454C335.054 88.1685 336.299 87.165 337.852 86.5352C339.419 85.8906 341.17 85.5684 343.104 85.5684C345.242 85.5684 347.081 85.8979 348.619 86.5571C350.157 87.2163 351.336 88.1978 352.156 89.5015C352.977 90.7905 353.387 92.3799 353.387 94.2695C353.387 95.5293 353.145 96.6279 352.662 97.5654C352.193 98.4883 351.556 99.3525 350.75 100.158C349.959 100.949 349.073 101.799 348.091 102.707C347.242 103.454 346.663 104.216 346.355 104.992C346.048 105.754 345.879 106.713 345.85 107.871ZM338.643 114.55C338.643 113.496 339.024 112.617 339.786 111.914C340.547 111.196 341.536 110.837 342.752 110.837C343.968 110.837 344.957 111.196 345.718 111.914C346.48 112.617 346.861 113.496 346.861 114.55C346.861 115.605 346.48 116.491 345.718 117.209C344.957 117.912 343.968 118.264 342.752 118.264C341.536 118.264 340.547 117.912 339.786 117.209C339.024 116.491 338.643 115.605 338.643 114.55Z" fill="#424241"/>
<path d="M1363 15C1363 6.71573 1356.28 0 1348 0H1134V167H1348C1356.28 167 1363 160.284 1363 152V15Z" fill="#004B67"/>
<path d="M1260.77 81.3079C1263.96 81.3079 1267.09 82.2553 1269.74 84.0303C1272.4 85.8053 1274.47 88.3282 1275.69 91.2799C1276.92 94.2316 1277.24 97.4796 1276.61 100.613C1275.99 103.747 1274.45 106.625 1272.19 108.884C1269.93 111.143 1267.05 112.682 1263.92 113.305C1260.79 113.928 1257.54 113.608 1254.59 112.386C1251.64 111.163 1249.11 109.093 1247.34 106.436C1245.56 103.78 1244.62 100.657 1244.62 97.4617C1244.62 93.1774 1246.32 89.0686 1249.35 86.0392C1252.38 83.0098 1256.48 81.3079 1260.77 81.3079ZM1260.77 75.9233C1256.51 75.9233 1252.35 77.1865 1248.8 79.5532C1245.26 81.9198 1242.5 85.2837 1240.87 89.2193C1239.24 93.1549 1238.81 97.4856 1239.64 101.664C1240.48 105.842 1242.53 109.679 1245.54 112.692C1248.55 115.704 1252.39 117.755 1256.57 118.586C1260.75 119.417 1265.08 118.991 1269.01 117.361C1272.95 115.73 1276.31 112.97 1278.68 109.428C1281.04 105.886 1282.31 101.722 1282.31 97.4617C1282.31 91.7493 1280.04 86.271 1276 82.2317C1271.96 78.1925 1266.48 75.9233 1260.77 75.9233Z" fill="white"/>
<path d="M1274.23 49H1220.38C1218.96 49 1217.59 49.5673 1216.58 50.5771C1215.57 51.5869 1215 52.9565 1215 54.3846V108.231C1215 109.659 1215.57 111.028 1216.58 112.038C1217.59 113.048 1218.96 113.615 1220.38 113.615H1231.15V108.231H1220.38V70.5384H1279.62V54.3846C1279.62 52.9565 1279.05 51.5869 1278.04 50.5771C1277.03 49.5673 1275.66 49 1274.23 49ZM1220.38 65.1538V54.3846H1274.23V65.1538H1220.38Z" fill="white"/>
<path d="M1255.38 89.3849V105.539L1268.85 97.4618L1255.38 89.3849Z" fill="white"/>
</svg>
