<svg width="1363" height="167" viewBox="0 0 1363 167" fill="none" xmlns="http://www.w3.org/2000/svg">
<rect width="1363" height="167" rx="15" fill="#F0F0F0"/>
<path d="M0 15C0 6.71573 6.71573 0 15 0H37V167H15C6.71573 167 0 160.284 0 152V15Z" fill="#424241"/>
<path d="M100.906 54.9219L93.3945 52.2383V49.0859L103.602 53.375V55.6367L100.906 54.9219ZM93.3945 57.1719L100.918 54.4297L103.602 53.7852V56.0352L93.3945 60.3242V57.1719ZM118.543 55.918H114.195V53.1758H118.543C119.215 53.1758 119.762 53.0664 120.184 52.8477C120.605 52.6211 120.914 52.3086 121.109 51.9102C121.305 51.5117 121.402 51.0625 121.402 50.5625C121.402 50.0547 121.305 49.582 121.109 49.1445C120.914 48.707 120.605 48.3555 120.184 48.0898C119.762 47.8242 119.215 47.6914 118.543 47.6914H115.414V62H111.898V44.9375H118.543C119.879 44.9375 121.023 45.1797 121.977 45.6641C122.938 46.1406 123.672 46.8008 124.18 47.6445C124.688 48.4883 124.941 49.4531 124.941 50.5391C124.941 51.6406 124.688 52.5938 124.18 53.3984C123.672 54.2031 122.938 54.8242 121.977 55.2617C121.023 55.6992 119.879 55.918 118.543 55.918ZM132.828 62.2344C131.844 62.2344 130.961 62.0781 130.18 61.7656C129.398 61.4453 128.734 61.0039 128.188 60.4414C127.648 59.8789 127.234 59.2266 126.945 58.4844C126.656 57.7344 126.512 56.9375 126.512 56.0938V55.625C126.512 54.6641 126.648 53.7852 126.922 52.9883C127.195 52.1914 127.586 51.5 128.094 50.9141C128.609 50.3281 129.234 49.8789 129.969 49.5664C130.703 49.2461 131.531 49.0859 132.453 49.0859C133.352 49.0859 134.148 49.2344 134.844 49.5312C135.539 49.8281 136.121 50.25 136.59 50.7969C137.066 51.3438 137.426 52 137.668 52.7656C137.91 53.5234 138.031 54.3672 138.031 55.2969V56.7031H127.953V54.4531H134.715V54.1953C134.715 53.7266 134.629 53.3086 134.457 52.9414C134.293 52.5664 134.043 52.2695 133.707 52.0508C133.371 51.832 132.941 51.7227 132.418 51.7227C131.973 51.7227 131.59 51.8203 131.27 52.0156C130.949 52.2109 130.688 52.4844 130.484 52.8359C130.289 53.1875 130.141 53.6016 130.039 54.0781C129.945 54.5469 129.898 55.0625 129.898 55.625V56.0938C129.898 56.6016 129.969 57.0703 130.109 57.5C130.258 57.9297 130.465 58.3008 130.73 58.6133C131.004 58.9258 131.332 59.168 131.715 59.3398C132.105 59.5117 132.547 59.5977 133.039 59.5977C133.648 59.5977 134.215 59.4805 134.738 59.2461C135.27 59.0039 135.727 58.6406 136.109 58.1562L137.75 59.9375C137.484 60.3203 137.121 60.6875 136.66 61.0391C136.207 61.3906 135.66 61.6797 135.02 61.9062C134.379 62.125 133.648 62.2344 132.828 62.2344ZM146.164 49.3203V51.7109H138.781V49.3203H146.164ZM140.609 46.1914H143.984V58.1797C143.984 58.5469 144.031 58.8281 144.125 59.0234C144.227 59.2188 144.375 59.3555 144.57 59.4336C144.766 59.5039 145.012 59.5391 145.309 59.5391C145.52 59.5391 145.707 59.5312 145.871 59.5156C146.043 59.4922 146.188 59.4688 146.305 59.4453L146.316 61.9297C146.027 62.0234 145.715 62.0977 145.379 62.1523C145.043 62.207 144.672 62.2344 144.266 62.2344C143.523 62.2344 142.875 62.1133 142.32 61.8711C141.773 61.6211 141.352 61.2227 141.055 60.6758C140.758 60.1289 140.609 59.4102 140.609 58.5195V46.1914ZM160.918 55.918H156.57V53.1758H160.918C161.59 53.1758 162.137 53.0664 162.559 52.8477C162.98 52.6211 163.289 52.3086 163.484 51.9102C163.68 51.5117 163.777 51.0625 163.777 50.5625C163.777 50.0547 163.68 49.582 163.484 49.1445C163.289 48.707 162.98 48.3555 162.559 48.0898C162.137 47.8242 161.59 47.6914 160.918 47.6914H157.789V62H154.273V44.9375H160.918C162.254 44.9375 163.398 45.1797 164.352 45.6641C165.312 46.1406 166.047 46.8008 166.555 47.6445C167.062 48.4883 167.316 49.4531 167.316 50.5391C167.316 51.6406 167.062 52.5938 166.555 53.3984C166.047 54.2031 165.312 54.8242 164.352 55.2617C163.398 55.6992 162.254 55.918 160.918 55.918ZM176.234 59.1406V53.4922C176.234 53.0859 176.168 52.7383 176.035 52.4492C175.902 52.1523 175.695 51.9219 175.414 51.7578C175.141 51.5938 174.785 51.5117 174.348 51.5117C173.973 51.5117 173.648 51.5781 173.375 51.7109C173.102 51.8359 172.891 52.0195 172.742 52.2617C172.594 52.4961 172.52 52.7734 172.52 53.0938H169.145C169.145 52.5547 169.27 52.043 169.52 51.5586C169.77 51.0742 170.133 50.6484 170.609 50.2812C171.086 49.9062 171.652 49.6133 172.309 49.4023C172.973 49.1914 173.715 49.0859 174.535 49.0859C175.52 49.0859 176.395 49.25 177.16 49.5781C177.926 49.9062 178.527 50.3984 178.965 51.0547C179.41 51.7109 179.633 52.5312 179.633 53.5156V58.9414C179.633 59.6367 179.676 60.207 179.762 60.6523C179.848 61.0898 179.973 61.4727 180.137 61.8008V62H176.727C176.562 61.6562 176.438 61.2266 176.352 60.7109C176.273 60.1875 176.234 59.6641 176.234 59.1406ZM176.68 54.2773L176.703 56.1875H174.816C174.371 56.1875 173.984 56.2383 173.656 56.3398C173.328 56.4414 173.059 56.5859 172.848 56.7734C172.637 56.9531 172.48 57.1641 172.379 57.4062C172.285 57.6484 172.238 57.9141 172.238 58.2031C172.238 58.4922 172.305 58.7539 172.438 58.9883C172.57 59.2148 172.762 59.3945 173.012 59.5273C173.262 59.6523 173.555 59.7148 173.891 59.7148C174.398 59.7148 174.84 59.6133 175.215 59.4102C175.59 59.207 175.879 58.957 176.082 58.6602C176.293 58.3633 176.402 58.082 176.41 57.8164L177.301 59.2461C177.176 59.5664 177.004 59.8984 176.785 60.2422C176.574 60.5859 176.305 60.9102 175.977 61.2148C175.648 61.5117 175.254 61.7578 174.793 61.9531C174.332 62.1406 173.785 62.2344 173.152 62.2344C172.348 62.2344 171.617 62.0742 170.961 61.7539C170.312 61.4258 169.797 60.9766 169.414 60.4062C169.039 59.8281 168.852 59.1719 168.852 58.4375C168.852 57.7734 168.977 57.1836 169.227 56.668C169.477 56.1523 169.844 55.7188 170.328 55.3672C170.82 55.0078 171.434 54.7383 172.168 54.5586C172.902 54.3711 173.754 54.2773 174.723 54.2773H176.68ZM185.609 51.9453V62H182.223V49.3203H185.398L185.609 51.9453ZM185.141 55.2148H184.203C184.203 54.332 184.309 53.5195 184.52 52.7773C184.738 52.0273 185.055 51.3789 185.469 50.832C185.891 50.2773 186.41 49.8477 187.027 49.543C187.645 49.2383 188.359 49.0859 189.172 49.0859C189.734 49.0859 190.25 49.1719 190.719 49.3438C191.188 49.5078 191.59 49.7695 191.926 50.1289C192.27 50.4805 192.535 50.9414 192.723 51.5117C192.91 52.0742 193.004 52.75 193.004 53.5391V62H189.629V53.9141C189.629 53.3359 189.551 52.8906 189.395 52.5781C189.238 52.2656 189.016 52.0469 188.727 51.9219C188.445 51.7969 188.105 51.7344 187.707 51.7344C187.27 51.7344 186.887 51.8242 186.559 52.0039C186.238 52.1836 185.973 52.4336 185.762 52.7539C185.551 53.0664 185.395 53.4336 185.293 53.8555C185.191 54.2773 185.141 54.7305 185.141 55.2148ZM192.688 54.8281L191.48 54.9805C191.48 54.1523 191.582 53.3828 191.785 52.6719C191.996 51.9609 192.305 51.3359 192.711 50.7969C193.125 50.2578 193.637 49.8398 194.246 49.543C194.855 49.2383 195.559 49.0859 196.355 49.0859C196.965 49.0859 197.52 49.1758 198.02 49.3555C198.52 49.5273 198.945 49.8047 199.297 50.1875C199.656 50.5625 199.93 51.0547 200.117 51.6641C200.312 52.2734 200.41 53.0195 200.41 53.9023V62H197.023V53.9023C197.023 53.3164 196.945 52.8711 196.789 52.5664C196.641 52.2539 196.422 52.0391 196.133 51.9219C195.852 51.7969 195.516 51.7344 195.125 51.7344C194.719 51.7344 194.363 51.8164 194.059 51.9805C193.754 52.1367 193.5 52.3555 193.297 52.6367C193.094 52.918 192.941 53.2461 192.84 53.6211C192.738 53.9883 192.688 54.3906 192.688 54.8281ZM206.398 51.7578V66.875H203.023V49.3203H206.152L206.398 51.7578ZM214.426 55.5195V55.7656C214.426 56.6875 214.316 57.543 214.098 58.332C213.887 59.1211 213.574 59.8086 213.16 60.3945C212.746 60.9727 212.23 61.4258 211.613 61.7539C211.004 62.0742 210.301 62.2344 209.504 62.2344C208.73 62.2344 208.059 62.0781 207.488 61.7656C206.918 61.4531 206.438 61.0156 206.047 60.4531C205.664 59.8828 205.355 59.2227 205.121 58.4727C204.887 57.7227 204.707 56.918 204.582 56.0586V55.4141C204.707 54.4922 204.887 53.6484 205.121 52.8828C205.355 52.1094 205.664 51.4414 206.047 50.8789C206.438 50.3086 206.914 49.8672 207.477 49.5547C208.047 49.2422 208.715 49.0859 209.48 49.0859C210.285 49.0859 210.992 49.2383 211.602 49.543C212.219 49.8477 212.734 50.2852 213.148 50.8555C213.57 51.4258 213.887 52.1055 214.098 52.8945C214.316 53.6836 214.426 54.5586 214.426 55.5195ZM211.039 55.7656V55.5195C211.039 54.9805 210.992 54.4844 210.898 54.0312C210.812 53.5703 210.672 53.168 210.477 52.8242C210.289 52.4805 210.039 52.2148 209.727 52.0273C209.422 51.832 209.051 51.7344 208.613 51.7344C208.152 51.7344 207.758 51.8086 207.43 51.957C207.109 52.1055 206.848 52.3203 206.645 52.6016C206.441 52.8828 206.289 53.2188 206.188 53.6094C206.086 54 206.023 54.4414 206 54.9336V56.5625C206.039 57.1406 206.148 57.6602 206.328 58.1211C206.508 58.5742 206.785 58.9336 207.16 59.1992C207.535 59.4648 208.027 59.5977 208.637 59.5977C209.082 59.5977 209.457 59.5 209.762 59.3047C210.066 59.1016 210.312 58.8242 210.5 58.4727C210.695 58.1211 210.832 57.7148 210.91 57.2539C210.996 56.793 211.039 56.2969 211.039 55.7656ZM222.359 62.2344C221.375 62.2344 220.492 62.0781 219.711 61.7656C218.93 61.4453 218.266 61.0039 217.719 60.4414C217.18 59.8789 216.766 59.2266 216.477 58.4844C216.188 57.7344 216.043 56.9375 216.043 56.0938V55.625C216.043 54.6641 216.18 53.7852 216.453 52.9883C216.727 52.1914 217.117 51.5 217.625 50.9141C218.141 50.3281 218.766 49.8789 219.5 49.5664C220.234 49.2461 221.062 49.0859 221.984 49.0859C222.883 49.0859 223.68 49.2344 224.375 49.5312C225.07 49.8281 225.652 50.25 226.121 50.7969C226.598 51.3438 226.957 52 227.199 52.7656C227.441 53.5234 227.562 54.3672 227.562 55.2969V56.7031H217.484V54.4531H224.246V54.1953C224.246 53.7266 224.16 53.3086 223.988 52.9414C223.824 52.5664 223.574 52.2695 223.238 52.0508C222.902 51.832 222.473 51.7227 221.949 51.7227C221.504 51.7227 221.121 51.8203 220.801 52.0156C220.48 52.2109 220.219 52.4844 220.016 52.8359C219.82 53.1875 219.672 53.6016 219.57 54.0781C219.477 54.5469 219.43 55.0625 219.43 55.625V56.0938C219.43 56.6016 219.5 57.0703 219.641 57.5C219.789 57.9297 219.996 58.3008 220.262 58.6133C220.535 58.9258 220.863 59.168 221.246 59.3398C221.637 59.5117 222.078 59.5977 222.57 59.5977C223.18 59.5977 223.746 59.4805 224.27 59.2461C224.801 59.0039 225.258 58.6406 225.641 58.1562L227.281 59.9375C227.016 60.3203 226.652 60.6875 226.191 61.0391C225.738 61.3906 225.191 61.6797 224.551 61.9062C223.91 62.125 223.18 62.2344 222.359 62.2344ZM232.859 52.0859V62H229.484V49.3203H232.66L232.859 52.0859ZM236.68 49.2383L236.621 52.3672C236.457 52.3438 236.258 52.3242 236.023 52.3086C235.797 52.2852 235.59 52.2734 235.402 52.2734C234.926 52.2734 234.512 52.3359 234.16 52.4609C233.816 52.5781 233.527 52.7539 233.293 52.9883C233.066 53.2227 232.895 53.5078 232.777 53.8438C232.668 54.1797 232.605 54.5625 232.59 54.9922L231.91 54.7812C231.91 53.9609 231.992 53.207 232.156 52.5195C232.32 51.8242 232.559 51.2188 232.871 50.7031C233.191 50.1875 233.582 49.7891 234.043 49.5078C234.504 49.2266 235.031 49.0859 235.625 49.0859C235.812 49.0859 236.004 49.1016 236.199 49.1328C236.395 49.1562 236.555 49.1914 236.68 49.2383Z" fill="#888888"/>
<path d="M107.205 107.146H99.251V101.191H107.205C108.289 101.191 109.168 101.008 109.842 100.642C110.516 100.275 111.006 99.77 111.314 99.1255C111.636 98.4663 111.797 97.7266 111.797 96.9062C111.797 96.0273 111.636 95.2144 111.314 94.4673C111.006 93.7202 110.516 93.1196 109.842 92.6655C109.168 92.1968 108.289 91.9624 107.205 91.9624H102.151V118H94.439V86.0078H107.205C109.769 86.0078 111.973 86.4766 113.819 87.4141C115.679 88.3516 117.107 89.6406 118.104 91.2812C119.1 92.9072 119.598 94.7676 119.598 96.8623C119.598 98.9277 119.1 100.729 118.104 102.268C117.107 103.806 115.679 105.007 113.819 105.871C111.973 106.721 109.769 107.146 107.205 107.146ZM130.87 100.114V118H123.465V94.2256H130.386L130.87 100.114ZM137.901 94.0498L137.769 100.927C137.476 100.898 137.081 100.861 136.583 100.817C136.084 100.773 135.667 100.751 135.33 100.751C134.466 100.751 133.719 100.854 133.089 101.059C132.474 101.25 131.961 101.542 131.551 101.938C131.155 102.319 130.862 102.802 130.672 103.388C130.496 103.974 130.416 104.655 130.43 105.432L129.09 104.553C129.09 102.956 129.244 101.506 129.551 100.202C129.874 98.8838 130.328 97.7485 130.914 96.7964C131.5 95.8296 132.21 95.0898 133.045 94.5771C133.88 94.0498 134.817 93.7861 135.857 93.7861C136.224 93.7861 136.583 93.8081 136.934 93.8521C137.3 93.896 137.623 93.9619 137.901 94.0498ZM138.736 106.354V105.893C138.736 104.15 138.985 102.546 139.483 101.081C139.981 99.6016 140.713 98.3198 141.68 97.2358C142.647 96.1519 143.841 95.3096 145.262 94.709C146.683 94.0938 148.323 93.7861 150.184 93.7861C152.059 93.7861 153.707 94.0938 155.127 94.709C156.563 95.3096 157.764 96.1519 158.731 97.2358C159.698 98.3198 160.43 99.6016 160.928 101.081C161.426 102.546 161.675 104.15 161.675 105.893V106.354C161.675 108.083 161.426 109.687 160.928 111.167C160.43 112.631 159.698 113.913 158.731 115.012C157.764 116.096 156.57 116.938 155.149 117.539C153.729 118.139 152.088 118.439 150.228 118.439C148.367 118.439 146.719 118.139 145.284 117.539C143.848 116.938 142.647 116.096 141.68 115.012C140.713 113.913 139.981 112.631 139.483 111.167C138.985 109.687 138.736 108.083 138.736 106.354ZM146.141 105.893V106.354C146.141 107.248 146.207 108.083 146.338 108.859C146.47 109.636 146.69 110.317 146.998 110.903C147.305 111.474 147.723 111.921 148.25 112.243C148.777 112.565 149.437 112.727 150.228 112.727C151.004 112.727 151.648 112.565 152.161 112.243C152.688 111.921 153.106 111.474 153.414 110.903C153.721 110.317 153.941 109.636 154.073 108.859C154.205 108.083 154.271 107.248 154.271 106.354V105.893C154.271 105.029 154.205 104.216 154.073 103.454C153.941 102.678 153.721 101.997 153.414 101.411C153.106 100.81 152.688 100.341 152.161 100.004C151.634 99.6675 150.975 99.499 150.184 99.499C149.407 99.499 148.755 99.6675 148.228 100.004C147.715 100.341 147.305 100.81 146.998 101.411C146.69 101.997 146.47 102.678 146.338 103.454C146.207 104.216 146.141 105.029 146.141 105.893ZM165.521 94.2256H172.947V118.769C172.947 120.673 172.581 122.277 171.849 123.581C171.116 124.899 170.069 125.896 168.707 126.569C167.344 127.258 165.718 127.602 163.829 127.602C163.199 127.602 162.62 127.573 162.093 127.514C161.551 127.47 160.958 127.375 160.313 127.229V121.625C160.694 121.684 161.045 121.728 161.368 121.757C161.69 121.801 162.042 121.823 162.422 121.823C163.096 121.823 163.66 121.713 164.114 121.494C164.568 121.274 164.913 120.937 165.147 120.483C165.396 120.029 165.521 119.458 165.521 118.769V94.2256ZM164.971 88.0952C164.971 87.0405 165.352 86.1763 166.114 85.5024C166.875 84.8286 167.864 84.4917 169.08 84.4917C170.296 84.4917 171.285 84.8286 172.046 85.5024C172.808 86.1763 173.189 87.0405 173.189 88.0952C173.189 89.1499 172.808 90.0142 172.046 90.688C171.285 91.3618 170.296 91.6987 169.08 91.6987C167.864 91.6987 166.875 91.3618 166.114 90.688C165.352 90.0142 164.971 89.1499 164.971 88.0952ZM188.658 118.439C186.724 118.439 184.996 118.139 183.472 117.539C181.949 116.923 180.66 116.081 179.605 115.012C178.565 113.942 177.767 112.712 177.21 111.32C176.668 109.929 176.397 108.457 176.397 106.904V106.069C176.397 104.326 176.639 102.714 177.122 101.235C177.605 99.7407 178.323 98.437 179.275 97.3237C180.228 96.2104 181.421 95.3462 182.857 94.731C184.292 94.1011 185.962 93.7861 187.867 93.7861C189.551 93.7861 191.06 94.0571 192.393 94.5991C193.726 95.1411 194.854 95.9175 195.777 96.9282C196.714 97.939 197.425 99.1621 197.908 100.598C198.406 102.033 198.655 103.645 198.655 105.432V108.442H179.231V103.806H191.426V103.234C191.441 102.443 191.302 101.77 191.009 101.213C190.73 100.656 190.32 100.231 189.778 99.9385C189.236 99.6455 188.577 99.499 187.801 99.499C186.995 99.499 186.329 99.6748 185.801 100.026C185.289 100.378 184.886 100.861 184.593 101.477C184.314 102.077 184.117 102.773 184 103.564C183.882 104.355 183.824 105.19 183.824 106.069V106.904C183.824 107.783 183.941 108.581 184.175 109.299C184.424 110.017 184.776 110.632 185.23 111.145C185.699 111.643 186.255 112.031 186.9 112.309C187.559 112.587 188.306 112.727 189.141 112.727C190.152 112.727 191.148 112.536 192.129 112.155C193.111 111.774 193.953 111.145 194.656 110.266L198.018 114.265C197.535 114.953 196.846 115.62 195.953 116.264C195.074 116.909 194.019 117.436 192.789 117.846C191.558 118.242 190.181 118.439 188.658 118.439ZM211.707 112.727C212.396 112.727 212.981 112.602 213.465 112.353C213.963 112.089 214.336 111.723 214.585 111.254C214.849 110.771 214.974 110.192 214.959 109.519H221.924C221.939 111.306 221.5 112.873 220.606 114.221C219.727 115.554 218.526 116.594 217.002 117.341C215.494 118.073 213.787 118.439 211.883 118.439C210.022 118.439 208.396 118.139 207.005 117.539C205.613 116.923 204.449 116.074 203.511 114.99C202.588 113.891 201.893 112.609 201.424 111.145C200.97 109.68 200.743 108.09 200.743 106.376V105.871C200.743 104.157 200.97 102.568 201.424 101.103C201.893 99.6235 202.588 98.3418 203.511 97.2578C204.449 96.1592 205.606 95.3096 206.983 94.709C208.375 94.0938 209.993 93.7861 211.839 93.7861C213.816 93.7861 215.56 94.1597 217.068 94.9067C218.592 95.6538 219.786 96.7378 220.65 98.1587C221.514 99.5796 221.939 101.301 221.924 103.322H214.959C214.974 102.604 214.864 101.96 214.629 101.389C214.395 100.817 214.029 100.363 213.531 100.026C213.047 99.6748 212.425 99.499 211.663 99.499C210.901 99.499 210.286 99.6675 209.817 100.004C209.349 100.341 208.99 100.81 208.741 101.411C208.506 101.997 208.345 102.67 208.257 103.432C208.184 104.194 208.147 105.007 208.147 105.871V106.376C208.147 107.255 208.184 108.083 208.257 108.859C208.345 109.621 208.514 110.295 208.763 110.881C209.012 111.452 209.371 111.906 209.839 112.243C210.308 112.565 210.931 112.727 211.707 112.727ZM237.613 94.2256V99.3672H223.287V94.2256H237.613ZM226.297 88.3149H233.702V110.244C233.702 110.874 233.775 111.364 233.921 111.716C234.068 112.053 234.317 112.294 234.668 112.441C235.035 112.573 235.518 112.639 236.119 112.639C236.543 112.639 236.895 112.631 237.173 112.617C237.452 112.587 237.715 112.551 237.964 112.507V117.802C237.334 118.007 236.675 118.161 235.987 118.264C235.298 118.381 234.566 118.439 233.79 118.439C232.208 118.439 230.853 118.19 229.725 117.692C228.611 117.194 227.762 116.411 227.176 115.341C226.59 114.272 226.297 112.88 226.297 111.167V88.3149ZM264.881 107.146H256.927V101.191H264.881C265.965 101.191 266.844 101.008 267.518 100.642C268.191 100.275 268.682 99.77 268.99 99.1255C269.312 98.4663 269.473 97.7266 269.473 96.9062C269.473 96.0273 269.312 95.2144 268.99 94.4673C268.682 93.7202 268.191 93.1196 267.518 92.6655C266.844 92.1968 265.965 91.9624 264.881 91.9624H259.827V118H252.115V86.0078H264.881C267.444 86.0078 269.649 86.4766 271.495 87.4141C273.355 88.3516 274.783 89.6406 275.779 91.2812C276.775 92.9072 277.273 94.7676 277.273 96.8623C277.273 98.9277 276.775 100.729 275.779 102.268C274.783 103.806 273.355 105.007 271.495 105.871C269.649 106.721 267.444 107.146 264.881 107.146ZM288.326 84.25V118H280.921V84.25H288.326ZM287.447 105.3L285.711 105.344C285.711 103.674 285.916 102.136 286.326 100.729C286.736 99.3232 287.322 98.1001 288.084 97.0601C288.846 96.02 289.761 95.2144 290.831 94.6431C291.9 94.0718 293.086 93.7861 294.39 93.7861C295.562 93.7861 296.631 93.9546 297.598 94.2915C298.58 94.6284 299.422 95.1704 300.125 95.9175C300.843 96.6646 301.392 97.6387 301.773 98.8398C302.168 100.041 302.366 101.506 302.366 103.234V118H294.917V103.19C294.917 102.224 294.778 101.477 294.5 100.949C294.236 100.407 293.855 100.034 293.357 99.8286C292.859 99.6089 292.251 99.499 291.534 99.499C290.669 99.499 289.966 99.6455 289.424 99.9385C288.882 100.231 288.465 100.642 288.172 101.169C287.894 101.682 287.703 102.29 287.601 102.993C287.498 103.696 287.447 104.465 287.447 105.3ZM314.297 94.2256V118H306.871V94.2256H314.297ZM306.431 88.0952C306.431 87.0405 306.812 86.1763 307.574 85.5024C308.335 84.8286 309.324 84.4917 310.54 84.4917C311.756 84.4917 312.745 84.8286 313.506 85.5024C314.268 86.1763 314.649 87.0405 314.649 88.0952C314.649 89.1499 314.268 90.0142 313.506 90.688C312.745 91.3618 311.756 91.6987 310.54 91.6987C309.324 91.6987 308.335 91.3618 307.574 90.688C306.812 90.0142 306.431 89.1499 306.431 88.0952ZM326.69 84.25V118H319.263V84.25H326.69ZM330.337 106.354V105.893C330.337 104.15 330.586 102.546 331.084 101.081C331.583 99.6016 332.315 98.3198 333.282 97.2358C334.249 96.1519 335.442 95.3096 336.863 94.709C338.284 94.0938 339.925 93.7861 341.785 93.7861C343.66 93.7861 345.308 94.0938 346.729 94.709C348.165 95.3096 349.366 96.1519 350.333 97.2358C351.299 98.3198 352.032 99.6016 352.53 101.081C353.028 102.546 353.277 104.15 353.277 105.893V106.354C353.277 108.083 353.028 109.687 352.53 111.167C352.032 112.631 351.299 113.913 350.333 115.012C349.366 116.096 348.172 116.938 346.751 117.539C345.33 118.139 343.689 118.439 341.829 118.439C339.969 118.439 338.321 118.139 336.885 117.539C335.45 116.938 334.249 116.096 333.282 115.012C332.315 113.913 331.583 112.631 331.084 111.167C330.586 109.687 330.337 108.083 330.337 106.354ZM337.742 105.893V106.354C337.742 107.248 337.808 108.083 337.94 108.859C338.072 109.636 338.292 110.317 338.599 110.903C338.907 111.474 339.324 111.921 339.852 112.243C340.379 112.565 341.038 112.727 341.829 112.727C342.605 112.727 343.25 112.565 343.763 112.243C344.29 111.921 344.708 111.474 345.015 110.903C345.323 110.317 345.542 109.636 345.674 108.859C345.806 108.083 345.872 107.248 345.872 106.354V105.893C345.872 105.029 345.806 104.216 345.674 103.454C345.542 102.678 345.323 101.997 345.015 101.411C344.708 100.81 344.29 100.341 343.763 100.004C343.235 99.6675 342.576 99.499 341.785 99.499C341.009 99.499 340.357 99.6675 339.83 100.004C339.317 100.341 338.907 100.81 338.599 101.411C338.292 101.997 338.072 102.678 337.94 103.454C337.808 104.216 337.742 105.029 337.742 105.893ZM369.031 111.32C369.031 110.91 368.892 110.559 368.614 110.266C368.35 109.958 367.881 109.68 367.208 109.431C366.534 109.167 365.589 108.903 364.373 108.64C363.216 108.391 362.125 108.061 361.099 107.651C360.088 107.241 359.202 106.743 358.44 106.157C357.679 105.571 357.078 104.875 356.639 104.069C356.214 103.264 356.001 102.341 356.001 101.301C356.001 100.29 356.214 99.3379 356.639 98.4443C357.078 97.5361 357.715 96.7378 358.55 96.0493C359.4 95.3462 360.433 94.7969 361.648 94.4014C362.864 93.9912 364.249 93.7861 365.801 93.7861C367.94 93.7861 369.786 94.1157 371.338 94.7749C372.891 95.4194 374.085 96.3276 374.92 97.4995C375.77 98.6567 376.194 99.9971 376.194 101.521H368.79C368.79 100.92 368.687 100.407 368.482 99.9824C368.292 99.5576 367.977 99.2354 367.537 99.0156C367.098 98.7812 366.512 98.6641 365.779 98.6641C365.267 98.6641 364.798 98.7593 364.373 98.9497C363.963 99.1401 363.633 99.4038 363.384 99.7407C363.135 100.078 363.011 100.473 363.011 100.927C363.011 101.25 363.084 101.542 363.23 101.806C363.392 102.055 363.633 102.29 363.956 102.509C364.278 102.714 364.688 102.905 365.186 103.081C365.684 103.242 366.285 103.388 366.988 103.52C368.584 103.813 370.079 104.23 371.47 104.772C372.862 105.314 373.99 106.083 374.854 107.08C375.733 108.076 376.172 109.416 376.172 111.101C376.172 112.155 375.931 113.129 375.447 114.023C374.964 114.902 374.268 115.678 373.36 116.352C372.452 117.011 371.36 117.524 370.086 117.89C368.812 118.256 367.376 118.439 365.779 118.439C363.509 118.439 361.59 118.037 360.022 117.231C358.455 116.411 357.269 115.385 356.463 114.155C355.672 112.91 355.276 111.65 355.276 110.375H362.176C362.205 111.108 362.381 111.708 362.703 112.177C363.04 112.646 363.487 112.99 364.043 113.21C364.6 113.43 365.245 113.54 365.977 113.54C366.651 113.54 367.208 113.444 367.647 113.254C368.101 113.063 368.445 112.807 368.68 112.485C368.914 112.148 369.031 111.76 369.031 111.32ZM378.721 106.354V105.893C378.721 104.15 378.97 102.546 379.468 101.081C379.966 99.6016 380.699 98.3198 381.666 97.2358C382.632 96.1519 383.826 95.3096 385.247 94.709C386.668 94.0938 388.309 93.7861 390.169 93.7861C392.044 93.7861 393.692 94.0938 395.113 94.709C396.548 95.3096 397.75 96.1519 398.716 97.2358C399.683 98.3198 400.416 99.6016 400.914 101.081C401.412 102.546 401.661 104.15 401.661 105.893V106.354C401.661 108.083 401.412 109.687 400.914 111.167C400.416 112.631 399.683 113.913 398.716 115.012C397.75 116.096 396.556 116.938 395.135 117.539C393.714 118.139 392.073 118.439 390.213 118.439C388.353 118.439 386.705 118.139 385.269 117.539C383.833 116.938 382.632 116.096 381.666 115.012C380.699 113.913 379.966 112.631 379.468 111.167C378.97 109.687 378.721 108.083 378.721 106.354ZM386.126 105.893V106.354C386.126 107.248 386.192 108.083 386.324 108.859C386.456 109.636 386.675 110.317 386.983 110.903C387.291 111.474 387.708 111.921 388.235 112.243C388.763 112.565 389.422 112.727 390.213 112.727C390.989 112.727 391.634 112.565 392.146 112.243C392.674 111.921 393.091 111.474 393.399 110.903C393.707 110.317 393.926 109.636 394.058 108.859C394.19 108.083 394.256 107.248 394.256 106.354V105.893C394.256 105.029 394.19 104.216 394.058 103.454C393.926 102.678 393.707 101.997 393.399 101.411C393.091 100.81 392.674 100.341 392.146 100.004C391.619 99.6675 390.96 99.499 390.169 99.499C389.393 99.499 388.741 99.6675 388.213 100.004C387.701 100.341 387.291 100.81 386.983 101.411C386.675 101.997 386.456 102.678 386.324 103.454C386.192 104.216 386.126 105.029 386.126 105.893ZM412.427 98.7959V127.141H405.022V94.2256H411.922L412.427 98.7959ZM427.017 105.827V106.289C427.017 108.017 426.819 109.621 426.424 111.101C426.028 112.58 425.442 113.869 424.666 114.968C423.89 116.066 422.923 116.923 421.766 117.539C420.623 118.139 419.297 118.439 417.789 118.439C416.368 118.439 415.145 118.125 414.119 117.495C413.094 116.865 412.237 115.993 411.548 114.88C410.86 113.767 410.303 112.492 409.878 111.057C409.454 109.621 409.117 108.105 408.868 106.508V105.915C409.117 104.201 409.454 102.612 409.878 101.147C410.303 99.6675 410.86 98.3784 411.548 97.2798C412.237 96.1812 413.086 95.3242 414.097 94.709C415.123 94.0938 416.346 93.7861 417.767 93.7861C419.275 93.7861 420.601 94.0718 421.744 94.6431C422.901 95.2144 423.868 96.0347 424.644 97.104C425.435 98.1587 426.028 99.4258 426.424 100.905C426.819 102.385 427.017 104.025 427.017 105.827ZM419.612 106.289V105.827C419.612 104.904 419.546 104.062 419.415 103.3C419.283 102.524 419.07 101.85 418.777 101.279C418.499 100.708 418.125 100.268 417.657 99.9604C417.188 99.6528 416.609 99.499 415.921 99.499C415.13 99.499 414.463 99.6235 413.921 99.8726C413.394 100.107 412.969 100.473 412.647 100.971C412.339 101.455 412.12 102.062 411.988 102.795C411.871 103.513 411.819 104.355 411.834 105.322V107.124C411.805 108.237 411.915 109.218 412.164 110.068C412.413 110.903 412.845 111.555 413.46 112.023C414.075 112.492 414.91 112.727 415.965 112.727C416.668 112.727 417.254 112.565 417.723 112.243C418.191 111.906 418.565 111.445 418.843 110.859C419.122 110.258 419.319 109.57 419.437 108.793C419.554 108.017 419.612 107.182 419.612 106.289ZM437.564 84.25V118H430.159V84.25H437.564ZM436.685 105.3L434.949 105.344C434.949 103.674 435.154 102.136 435.564 100.729C435.975 99.3232 436.561 98.1001 437.322 97.0601C438.084 96.02 439 95.2144 440.069 94.6431C441.138 94.0718 442.325 93.7861 443.628 93.7861C444.8 93.7861 445.87 93.9546 446.836 94.2915C447.818 94.6284 448.66 95.1704 449.363 95.9175C450.081 96.6646 450.63 97.6387 451.011 98.8398C451.407 100.041 451.604 101.506 451.604 103.234V118H444.156V103.19C444.156 102.224 444.017 101.477 443.738 100.949C443.475 100.407 443.094 100.034 442.596 99.8286C442.098 99.6089 441.49 99.499 440.772 99.499C439.908 99.499 439.205 99.6455 438.663 99.9385C438.121 100.231 437.703 100.642 437.41 101.169C437.132 101.682 436.941 102.29 436.839 102.993C436.736 103.696 436.685 104.465 436.685 105.3ZM463.008 115.209L469.161 94.2256H477.115L467.557 121.538C467.352 122.138 467.081 122.783 466.744 123.471C466.407 124.174 465.945 124.841 465.359 125.471C464.773 126.101 464.019 126.613 463.096 127.009C462.188 127.404 461.06 127.602 459.712 127.602C458.995 127.602 458.467 127.565 458.13 127.492C457.808 127.434 457.31 127.324 456.636 127.163V121.867C456.827 121.867 456.988 121.867 457.12 121.867C457.266 121.867 457.427 121.867 457.603 121.867C458.394 121.867 459.024 121.787 459.493 121.625C459.976 121.464 460.342 121.23 460.591 120.922C460.855 120.615 461.06 120.241 461.207 119.802L463.008 115.209ZM461.448 94.2256L466.128 110.859L466.941 118.703H461.976L453.516 94.2256H461.448Z" fill="#424241"/>
<path d="M1363 15C1363 6.71573 1356.28 0 1348 0H1134V167H1348C1356.28 167 1363 160.284 1363 152V15Z" fill="#004B67"/>
<path d="M1234.26 106.286H1262.74V111.857H1234.26V106.286ZM1239.96 117.429H1257.04V123H1239.96V117.429ZM1248.5 45C1240.95 45 1233.71 47.9349 1228.37 53.1592C1223.03 58.3834 1220.03 65.469 1220.03 72.8571C1219.84 76.9057 1220.63 80.9412 1222.34 84.6315C1224.05 88.3219 1226.64 91.5616 1229.88 94.0843C1232.73 96.675 1234.26 98.1514 1234.26 100.714H1239.96C1239.96 95.5886 1236.8 92.7193 1233.72 89.9614C1231.06 87.9676 1228.94 85.3658 1227.55 82.3838C1226.15 79.4019 1225.53 76.1308 1225.72 72.8571C1225.72 66.9466 1228.12 61.2781 1232.39 57.0988C1236.67 52.9194 1242.46 50.5714 1248.5 50.5714C1254.54 50.5714 1260.33 52.9194 1264.61 57.0988C1268.88 61.2781 1271.28 66.9466 1271.28 72.8571C1271.47 76.1333 1270.84 79.4059 1269.44 82.388C1268.04 85.3701 1265.92 87.9706 1263.25 89.9614C1260.2 92.7471 1257.04 95.5329 1257.04 100.714H1262.74C1262.74 98.1514 1264.25 96.675 1267.12 94.0564C1270.36 91.5381 1272.94 88.3031 1274.66 84.6176C1276.37 80.9321 1277.16 76.9014 1276.97 72.8571C1276.97 69.1989 1276.24 65.5765 1274.81 62.1967C1273.37 58.8169 1271.28 55.7459 1268.63 53.1592C1265.99 50.5724 1262.85 48.5205 1259.4 47.1205C1255.94 45.7205 1252.24 45 1248.5 45Z" fill="white"/>
</svg>
