<svg width="1363" height="301" viewBox="0 0 1363 301" fill="none" xmlns="http://www.w3.org/2000/svg">
<rect width="1363" height="301" rx="15" fill="#F0F0F0"/>
<path d="M0 15C0 6.71573 6.71573 0 15 0H37V301H15C6.71573 301 0 294.284 0 286V15Z" fill="#004B67"/>
<path d="M110.584 130.733H100.862V123.456H110.584C111.909 123.456 112.983 123.232 113.807 122.784C114.63 122.337 115.23 121.719 115.606 120.931C116 120.125 116.197 119.221 116.197 118.219C116.197 117.145 116 116.151 115.606 115.238C115.23 114.325 114.63 113.591 113.807 113.036C112.983 112.463 111.909 112.176 110.584 112.176H104.407V144H94.981V104.898H110.584C113.717 104.898 116.412 105.471 118.667 106.617C120.941 107.763 122.687 109.339 123.904 111.344C125.122 113.331 125.73 115.605 125.73 118.165C125.73 120.689 125.122 122.892 123.904 124.771C122.687 126.651 120.941 128.119 118.667 129.176C116.412 130.214 113.717 130.733 110.584 130.733ZM144.073 144.537C141.709 144.537 139.597 144.17 137.735 143.436C135.873 142.684 134.297 141.655 133.008 140.348C131.737 139.041 130.761 137.537 130.081 135.836C129.419 134.135 129.087 132.336 129.087 130.438V129.417C129.087 127.287 129.383 125.318 129.974 123.509C130.564 121.683 131.442 120.09 132.605 118.729C133.769 117.368 135.228 116.312 136.983 115.56C138.737 114.79 140.778 114.405 143.106 114.405C145.165 114.405 147.009 114.736 148.638 115.399C150.267 116.061 151.646 117.01 152.774 118.246C153.92 119.481 154.788 120.976 155.379 122.73C155.988 124.485 156.292 126.454 156.292 128.639V132.318H132.552V126.651H147.457V125.953C147.474 124.986 147.304 124.163 146.946 123.482C146.606 122.802 146.105 122.283 145.442 121.925C144.78 121.567 143.974 121.388 143.025 121.388C142.041 121.388 141.226 121.603 140.582 122.032C139.955 122.462 139.463 123.053 139.104 123.805C138.764 124.539 138.523 125.389 138.379 126.356C138.236 127.323 138.165 128.343 138.165 129.417V130.438C138.165 131.512 138.308 132.488 138.594 133.365C138.899 134.243 139.328 134.994 139.883 135.621C140.456 136.23 141.137 136.704 141.924 137.044C142.73 137.385 143.643 137.555 144.664 137.555C145.899 137.555 147.116 137.322 148.316 136.856C149.515 136.391 150.545 135.621 151.404 134.547L155.513 139.435C154.922 140.276 154.081 141.091 152.989 141.878C151.915 142.666 150.625 143.311 149.122 143.812C147.618 144.295 145.935 144.537 144.073 144.537ZM175.279 114.942V121.227H157.769V114.942H175.279ZM161.448 107.718H170.499V134.52C170.499 135.29 170.588 135.89 170.767 136.319C170.946 136.731 171.25 137.027 171.68 137.206C172.128 137.367 172.719 137.447 173.453 137.447C173.972 137.447 174.402 137.438 174.742 137.42C175.082 137.385 175.404 137.34 175.708 137.286V143.758C174.939 144.009 174.133 144.197 173.292 144.322C172.45 144.465 171.555 144.537 170.606 144.537C168.672 144.537 167.016 144.233 165.638 143.624C164.277 143.015 163.239 142.057 162.522 140.75C161.806 139.444 161.448 137.743 161.448 135.648V107.718ZM208.606 130.733H198.885V123.456H208.606C209.931 123.456 211.006 123.232 211.829 122.784C212.653 122.337 213.252 121.719 213.628 120.931C214.022 120.125 214.219 119.221 214.219 118.219C214.219 117.145 214.022 116.151 213.628 115.238C213.252 114.325 212.653 113.591 211.829 113.036C211.006 112.463 209.931 112.176 208.606 112.176H202.43V144H193.003V104.898H208.606C211.74 104.898 214.434 105.471 216.69 106.617C218.964 107.763 220.709 109.339 221.927 111.344C223.144 113.331 223.753 115.605 223.753 118.165C223.753 120.689 223.144 122.892 221.927 124.771C220.709 126.651 218.964 128.119 216.69 129.176C214.434 130.214 211.74 130.733 208.606 130.733ZM243.169 136.695V124.718C243.169 123.894 243.053 123.187 242.82 122.596C242.588 122.005 242.221 121.549 241.719 121.227C241.218 120.886 240.547 120.716 239.705 120.716C239.025 120.716 238.443 120.833 237.959 121.065C237.476 121.298 237.109 121.647 236.858 122.113C236.608 122.578 236.482 123.169 236.482 123.885H227.432C227.432 122.542 227.728 121.298 228.318 120.152C228.927 118.989 229.786 117.977 230.896 117.118C232.024 116.258 233.367 115.596 234.925 115.13C236.5 114.647 238.255 114.405 240.188 114.405C242.498 114.405 244.557 114.79 246.365 115.56C248.191 116.33 249.633 117.485 250.689 119.024C251.745 120.546 252.273 122.462 252.273 124.771V136.668C252.273 138.566 252.381 140.007 252.596 140.992C252.811 141.959 253.115 142.809 253.509 143.543V144H244.432C244.002 143.105 243.68 142.013 243.465 140.724C243.268 139.417 243.169 138.074 243.169 136.695ZM244.271 126.249L244.324 131.083H240.323C239.481 131.083 238.765 131.199 238.174 131.432C237.601 131.664 237.136 131.987 236.778 132.398C236.438 132.792 236.187 133.24 236.026 133.741C235.883 134.243 235.811 134.771 235.811 135.326C235.811 135.863 235.936 136.346 236.187 136.776C236.456 137.188 236.814 137.51 237.261 137.743C237.709 137.975 238.21 138.092 238.765 138.092C239.768 138.092 240.618 137.904 241.316 137.528C242.033 137.134 242.579 136.66 242.955 136.104C243.331 135.549 243.519 135.03 243.519 134.547L245.506 138.253C245.148 138.969 244.736 139.694 244.271 140.428C243.823 141.162 243.259 141.843 242.579 142.469C241.916 143.078 241.102 143.579 240.135 143.973C239.168 144.349 237.995 144.537 236.617 144.537C234.826 144.537 233.179 144.17 231.675 143.436C230.189 142.702 228.999 141.681 228.104 140.375C227.208 139.05 226.761 137.528 226.761 135.809C226.761 134.305 227.029 132.962 227.566 131.781C228.121 130.599 228.954 129.597 230.064 128.773C231.174 127.949 232.588 127.323 234.307 126.893C236.026 126.463 238.049 126.249 240.376 126.249H244.271ZM266.426 121.092V144H257.376V114.942H265.862L266.426 121.092ZM265.325 128.478L263.257 128.531C263.257 126.49 263.499 124.61 263.982 122.892C264.466 121.173 265.182 119.678 266.131 118.407C267.08 117.136 268.243 116.151 269.622 115.453C271.019 114.754 272.63 114.405 274.456 114.405C275.727 114.405 276.882 114.602 277.92 114.996C278.959 115.372 279.854 115.972 280.606 116.795C281.358 117.601 281.931 118.657 282.325 119.964C282.736 121.253 282.942 122.802 282.942 124.61V144H273.892V125.765C273.892 124.53 273.749 123.599 273.462 122.972C273.194 122.346 272.8 121.925 272.281 121.71C271.762 121.495 271.126 121.388 270.374 121.388C269.586 121.388 268.879 121.567 268.252 121.925C267.626 122.283 267.089 122.784 266.641 123.429C266.211 124.055 265.88 124.798 265.647 125.658C265.433 126.517 265.325 127.457 265.325 128.478ZM281.922 128.478L279.397 128.531C279.397 126.49 279.621 124.61 280.069 122.892C280.534 121.173 281.224 119.678 282.137 118.407C283.068 117.136 284.222 116.151 285.601 115.453C286.98 114.754 288.582 114.405 290.408 114.405C291.733 114.405 292.951 114.602 294.061 114.996C295.171 115.39 296.128 116.026 296.934 116.903C297.74 117.78 298.366 118.944 298.814 120.394C299.262 121.826 299.485 123.599 299.485 125.711V144H290.408V125.711C290.408 124.512 290.265 123.608 289.979 122.999C289.71 122.372 289.316 121.952 288.797 121.737C288.278 121.504 287.66 121.388 286.944 121.388C286.084 121.388 285.341 121.567 284.715 121.925C284.088 122.283 283.56 122.784 283.13 123.429C282.719 124.055 282.414 124.798 282.217 125.658C282.02 126.517 281.922 127.457 281.922 128.478ZM313.799 120.528V155.172H304.749V114.942H313.182L313.799 120.528ZM331.631 129.122V129.686C331.631 131.799 331.39 133.759 330.906 135.567C330.423 137.376 329.707 138.951 328.758 140.294C327.809 141.637 326.627 142.684 325.213 143.436C323.816 144.17 322.196 144.537 320.352 144.537C318.615 144.537 317.12 144.152 315.867 143.382C314.614 142.612 313.567 141.547 312.725 140.187C311.884 138.826 311.203 137.268 310.684 135.514C310.165 133.759 309.753 131.906 309.449 129.955V129.229C309.753 127.135 310.165 125.192 310.684 123.402C311.203 121.594 311.884 120.018 312.725 118.675C313.567 117.333 314.605 116.285 315.84 115.533C317.094 114.781 318.589 114.405 320.325 114.405C322.169 114.405 323.79 114.754 325.186 115.453C326.6 116.151 327.782 117.153 328.731 118.46C329.698 119.75 330.423 121.298 330.906 123.106C331.39 124.915 331.631 126.92 331.631 129.122ZM322.581 129.686V129.122C322.581 127.994 322.5 126.965 322.339 126.034C322.178 125.085 321.919 124.261 321.561 123.563C321.22 122.865 320.764 122.328 320.191 121.952C319.618 121.576 318.911 121.388 318.069 121.388C317.103 121.388 316.288 121.54 315.625 121.844C314.981 122.131 314.462 122.578 314.068 123.187C313.692 123.778 313.423 124.521 313.262 125.416C313.119 126.293 313.056 127.323 313.074 128.504V130.707C313.038 132.067 313.173 133.267 313.477 134.305C313.781 135.326 314.31 136.122 315.062 136.695C315.813 137.268 316.834 137.555 318.123 137.555C318.982 137.555 319.699 137.358 320.271 136.964C320.844 136.552 321.301 135.988 321.641 135.272C321.981 134.538 322.223 133.696 322.366 132.748C322.509 131.799 322.581 130.778 322.581 129.686ZM349.732 144.537C347.369 144.537 345.256 144.17 343.394 143.436C341.532 142.684 339.957 141.655 338.667 140.348C337.396 139.041 336.421 137.537 335.74 135.836C335.078 134.135 334.747 132.336 334.747 130.438V129.417C334.747 127.287 335.042 125.318 335.633 123.509C336.224 121.683 337.101 120.09 338.265 118.729C339.428 117.368 340.888 116.312 342.642 115.56C344.397 114.79 346.438 114.405 348.765 114.405C350.824 114.405 352.668 114.736 354.297 115.399C355.927 116.061 357.305 117.01 358.433 118.246C359.579 119.481 360.447 120.976 361.038 122.73C361.647 124.485 361.951 126.454 361.951 128.639V132.318H338.211V126.651H353.116V125.953C353.134 124.986 352.964 124.163 352.605 123.482C352.265 122.802 351.764 122.283 351.102 121.925C350.439 121.567 349.633 121.388 348.685 121.388C347.7 121.388 346.885 121.603 346.241 122.032C345.614 122.462 345.122 123.053 344.764 123.805C344.424 124.539 344.182 125.389 344.039 126.356C343.895 127.323 343.824 128.343 343.824 129.417V130.438C343.824 131.512 343.967 132.488 344.253 133.365C344.558 134.243 344.987 134.994 345.542 135.621C346.115 136.23 346.796 136.704 347.583 137.044C348.389 137.385 349.302 137.555 350.323 137.555C351.558 137.555 352.776 137.322 353.975 136.856C355.175 136.391 356.204 135.621 357.063 134.547L361.172 139.435C360.582 140.276 359.74 141.091 358.648 141.878C357.574 142.666 356.285 143.311 354.781 143.812C353.277 144.295 351.594 144.537 349.732 144.537ZM374.761 122.14V144H365.711V114.942H374.17L374.761 122.14ZM383.355 114.728L383.194 123.133C382.836 123.097 382.352 123.053 381.744 122.999C381.135 122.945 380.625 122.918 380.213 122.918C379.157 122.918 378.243 123.044 377.474 123.294C376.722 123.527 376.095 123.885 375.594 124.369C375.11 124.834 374.752 125.425 374.52 126.141C374.305 126.857 374.206 127.69 374.224 128.639L372.586 127.564C372.586 125.613 372.774 123.84 373.15 122.247C373.544 120.636 374.099 119.248 374.815 118.084C375.531 116.903 376.399 115.999 377.42 115.372C378.44 114.728 379.586 114.405 380.857 114.405C381.305 114.405 381.744 114.432 382.173 114.486C382.621 114.54 383.015 114.62 383.355 114.728Z" fill="black"/>
<path d="M104.339 59.3726L97.5713 80H92.1196L101.365 55.1172H104.834L104.339 59.3726ZM109.961 80L103.177 59.3726L102.63 55.1172H106.133L115.43 80H109.961ZM109.654 70.7373V74.7534H96.5117V70.7373H109.654ZM122.625 53.75V80H117.686V53.75H122.625ZM131.888 61.5088V80H126.949V61.5088H131.888ZM126.641 56.6895C126.641 55.9717 126.892 55.3792 127.393 54.9121C127.894 54.445 128.567 54.2114 129.41 54.2114C130.241 54.2114 130.908 54.445 131.409 54.9121C131.922 55.3792 132.178 55.9717 132.178 56.6895C132.178 57.4072 131.922 57.9997 131.409 58.4668C130.908 58.9339 130.241 59.1675 129.41 59.1675C128.567 59.1675 127.894 58.9339 127.393 58.4668C126.892 57.9997 126.641 57.4072 126.641 56.6895ZM155.096 59.3726L148.328 80H142.876L152.122 55.1172H155.591L155.096 59.3726ZM160.718 80L153.934 59.3726L153.387 55.1172H156.89L166.187 80H160.718ZM160.411 70.7373V74.7534H147.269V70.7373H160.411ZM183.106 76.1548V80H169.058V76.1548H183.106ZM182.833 64.3457L171.041 80H167.742V77.0776L179.483 61.5088H182.833V64.3457ZM181.089 61.5088V65.3711H168.016V61.5088H181.089ZM200.914 76.1548V80H186.866V76.1548H200.914ZM200.64 64.3457L188.848 80H185.55V77.0776L197.291 61.5088H200.64V64.3457ZM198.897 61.5088V65.3711H185.823V61.5088H198.897ZM213.987 75.8301V67.5928C213.987 67.0003 213.89 66.4933 213.697 66.0718C213.503 65.6388 213.201 65.3027 212.791 65.0635C212.392 64.8242 211.874 64.7046 211.236 64.7046C210.689 64.7046 210.216 64.8014 209.817 64.9951C209.419 65.1774 209.111 65.4451 208.895 65.7983C208.678 66.1401 208.57 66.5446 208.57 67.0117H203.648C203.648 66.2256 203.83 65.4793 204.195 64.7729C204.559 64.0666 205.089 63.4456 205.784 62.9102C206.479 62.3633 207.305 61.936 208.262 61.6284C209.231 61.3208 210.313 61.167 211.509 61.167C212.945 61.167 214.221 61.4062 215.337 61.8848C216.454 62.3633 217.331 63.0811 217.969 64.0381C218.619 64.9951 218.943 66.1914 218.943 67.627V75.5396C218.943 76.5535 219.006 77.3853 219.131 78.0347C219.257 78.6727 219.439 79.231 219.678 79.7095V80H214.705C214.466 79.4987 214.284 78.8721 214.158 78.1201C214.044 77.3568 213.987 76.5934 213.987 75.8301ZM214.637 68.7378L214.671 71.5234H211.919C211.27 71.5234 210.706 71.5975 210.228 71.7456C209.749 71.8937 209.356 72.1045 209.048 72.3779C208.741 72.64 208.513 72.9476 208.365 73.3008C208.228 73.654 208.16 74.0413 208.16 74.4629C208.16 74.8844 208.257 75.2661 208.45 75.6079C208.644 75.9383 208.923 76.2004 209.288 76.394C209.652 76.5763 210.079 76.6675 210.569 76.6675C211.31 76.6675 211.954 76.5194 212.5 76.2231C213.047 75.9269 213.469 75.5623 213.765 75.1294C214.073 74.6965 214.232 74.2863 214.244 73.8989L215.542 75.9839C215.36 76.451 215.11 76.9352 214.791 77.4365C214.483 77.9378 214.09 78.4106 213.611 78.855C213.133 79.2879 212.557 79.6468 211.885 79.9316C211.213 80.2051 210.416 80.3418 209.493 80.3418C208.319 80.3418 207.254 80.1082 206.297 79.6411C205.351 79.1626 204.599 78.5075 204.041 77.6758C203.494 76.8327 203.221 75.8757 203.221 74.8047C203.221 73.8363 203.403 72.9761 203.768 72.2241C204.132 71.4722 204.668 70.8398 205.374 70.3271C206.092 69.8031 206.986 69.41 208.057 69.1479C209.128 68.8745 210.37 68.7378 211.783 68.7378H214.637ZM227.659 65.3369V80H222.72V61.5088H227.352L227.659 65.3369ZM226.976 70.105H225.608C225.608 68.8175 225.762 67.6326 226.07 66.5503C226.389 65.4565 226.85 64.5109 227.454 63.7134C228.069 62.9045 228.827 62.2778 229.727 61.8335C230.627 61.3892 231.67 61.167 232.854 61.167C233.675 61.167 234.427 61.2923 235.11 61.543C235.794 61.7822 236.381 62.1639 236.871 62.688C237.372 63.2007 237.759 63.8729 238.033 64.7046C238.306 65.5249 238.443 66.5104 238.443 67.6611V80H233.521V68.208C233.521 67.3649 233.407 66.7155 233.179 66.2598C232.951 65.804 232.627 65.485 232.205 65.3027C231.795 65.1204 231.299 65.0293 230.718 65.0293C230.08 65.0293 229.522 65.1603 229.043 65.4224C228.576 65.6844 228.189 66.049 227.881 66.5161C227.574 66.9718 227.346 67.5073 227.198 68.1226C227.05 68.7378 226.976 69.3986 226.976 70.105ZM237.981 69.541L236.221 69.7632C236.221 68.5555 236.369 67.4333 236.666 66.3965C236.973 65.3597 237.423 64.4482 238.016 63.6621C238.619 62.876 239.366 62.2664 240.254 61.8335C241.143 61.3892 242.168 61.167 243.331 61.167C244.219 61.167 245.028 61.298 245.757 61.5601C246.486 61.8107 247.107 62.2152 247.62 62.7734C248.144 63.3203 248.543 64.0381 248.816 64.9268C249.101 65.8154 249.244 66.9035 249.244 68.1909V80H244.305V68.1909C244.305 67.3364 244.191 66.687 243.963 66.2427C243.746 65.7869 243.427 65.4736 243.006 65.3027C242.596 65.1204 242.106 65.0293 241.536 65.0293C240.944 65.0293 240.425 65.1489 239.981 65.3882C239.537 65.616 239.166 65.9351 238.87 66.3452C238.574 66.7554 238.352 67.2339 238.204 67.7808C238.056 68.3162 237.981 68.903 237.981 69.541Z" fill="#888888"/>
<rect x="92" y="181" width="1179" height="80" rx="13.3333" fill="#CCCCCC"/>
<rect x="107" y="196.333" width="208" height="49.3333" rx="4.66667" fill="#888888" stroke="#888888" stroke-width="4"/>
<path d="M150.833 213.167H156.802C157.969 213.167 158.983 213.34 159.844 213.687C160.705 214.035 161.368 214.549 161.833 215.229C162.306 215.91 162.542 216.75 162.542 217.75C162.542 218.618 162.406 219.344 162.135 219.927C161.865 220.51 161.486 220.993 161 221.375C160.521 221.75 159.962 222.059 159.323 222.302L158.125 222.979H153.115L153.094 220.156H156.802C157.267 220.156 157.653 220.073 157.958 219.906C158.264 219.74 158.493 219.503 158.646 219.198C158.806 218.885 158.885 218.514 158.885 218.083C158.885 217.646 158.806 217.271 158.646 216.958C158.486 216.646 158.25 216.406 157.937 216.24C157.632 216.073 157.253 215.99 156.802 215.99H154.49V228.333H150.833V213.167ZM159.135 228.333L155.781 221.625L159.656 221.604L163.052 228.177V228.333H159.135ZM170.042 228.542C169.125 228.542 168.306 228.399 167.583 228.115C166.861 227.823 166.25 227.424 165.75 226.917C165.257 226.41 164.878 225.826 164.615 225.167C164.358 224.507 164.229 223.809 164.229 223.073V222.677C164.229 221.851 164.344 221.087 164.573 220.385C164.802 219.677 165.142 219.059 165.594 218.531C166.045 218.003 166.611 217.594 167.292 217.302C167.972 217.003 168.764 216.854 169.667 216.854C170.465 216.854 171.181 216.983 171.813 217.24C172.444 217.497 172.979 217.865 173.417 218.344C173.861 218.823 174.198 219.403 174.427 220.083C174.663 220.764 174.781 221.528 174.781 222.375V223.802H165.573V221.604H171.354V221.333C171.361 220.958 171.295 220.639 171.156 220.375C171.024 220.111 170.83 219.91 170.573 219.771C170.316 219.632 170.003 219.562 169.635 219.562C169.253 219.562 168.938 219.646 168.688 219.812C168.444 219.979 168.253 220.208 168.115 220.5C167.983 220.785 167.889 221.115 167.833 221.49C167.778 221.865 167.75 222.26 167.75 222.677V223.073C167.75 223.49 167.806 223.868 167.917 224.208C168.035 224.549 168.201 224.84 168.417 225.083C168.639 225.319 168.903 225.503 169.208 225.635C169.521 225.767 169.875 225.833 170.271 225.833C170.75 225.833 171.222 225.743 171.688 225.562C172.153 225.382 172.552 225.083 172.885 224.667L174.479 226.562C174.25 226.889 173.924 227.205 173.5 227.51C173.083 227.816 172.583 228.066 172 228.26C171.417 228.448 170.764 228.542 170.042 228.542ZM182.063 225.5V220.854C182.063 220.535 182.017 220.26 181.927 220.031C181.837 219.802 181.694 219.625 181.5 219.5C181.306 219.368 181.045 219.302 180.719 219.302C180.455 219.302 180.229 219.347 180.042 219.437C179.854 219.528 179.712 219.663 179.615 219.844C179.517 220.024 179.469 220.253 179.469 220.531H175.958C175.958 220.01 176.073 219.528 176.302 219.083C176.538 218.632 176.872 218.24 177.302 217.906C177.74 217.573 178.26 217.316 178.865 217.135C179.476 216.948 180.156 216.854 180.906 216.854C181.802 216.854 182.601 217.003 183.302 217.302C184.01 217.601 184.569 218.049 184.979 218.646C185.389 219.236 185.594 219.979 185.594 220.875V225.49C185.594 226.226 185.635 226.785 185.719 227.167C185.802 227.542 185.92 227.872 186.073 228.156V228.333H182.552C182.385 227.986 182.26 227.562 182.177 227.062C182.101 226.556 182.063 226.035 182.063 225.5ZM182.49 221.448L182.51 223.323H180.958C180.632 223.323 180.354 223.368 180.125 223.458C179.903 223.549 179.722 223.674 179.583 223.833C179.451 223.986 179.354 224.16 179.292 224.354C179.236 224.549 179.208 224.753 179.208 224.969C179.208 225.177 179.257 225.365 179.354 225.531C179.458 225.691 179.597 225.816 179.771 225.906C179.944 225.997 180.139 226.042 180.354 226.042C180.743 226.042 181.073 225.969 181.344 225.823C181.622 225.67 181.833 225.486 181.979 225.271C182.125 225.056 182.198 224.854 182.198 224.667L182.969 226.104C182.83 226.382 182.67 226.663 182.49 226.948C182.316 227.233 182.097 227.497 181.833 227.74C181.576 227.976 181.26 228.17 180.885 228.323C180.51 228.469 180.056 228.542 179.521 228.542C178.826 228.542 178.188 228.399 177.604 228.115C177.028 227.83 176.566 227.434 176.219 226.927C175.872 226.413 175.698 225.823 175.698 225.156C175.698 224.573 175.802 224.052 176.01 223.594C176.226 223.135 176.549 222.747 176.979 222.427C177.41 222.108 177.958 221.865 178.625 221.698C179.292 221.531 180.076 221.448 180.979 221.448H182.49ZM192.302 225.833C192.628 225.833 192.906 225.774 193.135 225.656C193.372 225.531 193.549 225.358 193.667 225.135C193.792 224.906 193.851 224.632 193.844 224.312H197.146C197.153 225.16 196.944 225.903 196.521 226.542C196.104 227.174 195.535 227.667 194.812 228.021C194.097 228.368 193.288 228.542 192.385 228.542C191.503 228.542 190.733 228.399 190.073 228.115C189.413 227.823 188.861 227.42 188.417 226.906C187.979 226.385 187.649 225.778 187.427 225.083C187.212 224.389 187.104 223.635 187.104 222.823V222.583C187.104 221.771 187.212 221.017 187.427 220.323C187.649 219.622 187.979 219.014 188.417 218.5C188.861 217.979 189.41 217.576 190.062 217.292C190.722 217 191.49 216.854 192.365 216.854C193.302 216.854 194.128 217.031 194.844 217.385C195.566 217.74 196.132 218.253 196.542 218.927C196.951 219.601 197.153 220.417 197.146 221.375H193.844C193.851 221.035 193.799 220.729 193.687 220.458C193.576 220.187 193.403 219.972 193.167 219.812C192.937 219.646 192.642 219.562 192.281 219.562C191.92 219.562 191.628 219.642 191.406 219.802C191.184 219.962 191.014 220.184 190.896 220.469C190.785 220.747 190.708 221.066 190.667 221.427C190.632 221.788 190.615 222.174 190.615 222.583V222.823C190.615 223.24 190.632 223.632 190.667 224C190.708 224.361 190.788 224.681 190.906 224.958C191.024 225.229 191.194 225.444 191.417 225.604C191.639 225.757 191.934 225.833 192.302 225.833ZM204.583 217.062V219.5H197.792V217.062H204.583ZM199.219 214.26H202.729V224.656C202.729 224.955 202.764 225.187 202.833 225.354C202.903 225.514 203.021 225.628 203.188 225.698C203.361 225.76 203.59 225.792 203.875 225.792C204.076 225.792 204.243 225.788 204.375 225.781C204.507 225.767 204.632 225.75 204.75 225.729V228.24C204.451 228.337 204.139 228.41 203.813 228.458C203.486 228.514 203.139 228.542 202.771 228.542C202.021 228.542 201.378 228.424 200.844 228.187C200.316 227.951 199.913 227.58 199.635 227.073C199.358 226.566 199.219 225.906 199.219 225.094V214.26ZM224.125 213.167V228.333H220.479L215.115 218.896V228.333H211.458V213.167H215.115L220.479 222.604V213.167H224.125ZM232.125 225.5V220.854C232.125 220.535 232.08 220.26 231.99 220.031C231.899 219.802 231.757 219.625 231.563 219.5C231.368 219.368 231.108 219.302 230.781 219.302C230.517 219.302 230.292 219.347 230.104 219.437C229.917 219.528 229.774 219.663 229.677 219.844C229.58 220.024 229.531 220.253 229.531 220.531H226.021C226.021 220.01 226.135 219.528 226.365 219.083C226.601 218.632 226.934 218.24 227.365 217.906C227.802 217.573 228.323 217.316 228.927 217.135C229.538 216.948 230.219 216.854 230.969 216.854C231.865 216.854 232.663 217.003 233.365 217.302C234.073 217.601 234.632 218.049 235.042 218.646C235.451 219.236 235.656 219.979 235.656 220.875V225.49C235.656 226.226 235.698 226.785 235.781 227.167C235.865 227.542 235.983 227.872 236.135 228.156V228.333H232.615C232.448 227.986 232.323 227.562 232.24 227.062C232.163 226.556 232.125 226.035 232.125 225.5ZM232.552 221.448L232.573 223.323H231.021C230.694 223.323 230.417 223.368 230.188 223.458C229.965 223.549 229.785 223.674 229.646 223.833C229.514 223.986 229.417 224.16 229.354 224.354C229.299 224.549 229.271 224.753 229.271 224.969C229.271 225.177 229.319 225.365 229.417 225.531C229.521 225.691 229.66 225.816 229.833 225.906C230.007 225.997 230.201 226.042 230.417 226.042C230.806 226.042 231.135 225.969 231.406 225.823C231.684 225.67 231.896 225.486 232.042 225.271C232.188 225.056 232.26 224.854 232.26 224.667L233.031 226.104C232.892 226.382 232.733 226.663 232.552 226.948C232.378 227.233 232.16 227.497 231.896 227.74C231.639 227.976 231.323 228.17 230.948 228.323C230.573 228.469 230.118 228.542 229.583 228.542C228.889 228.542 228.25 228.399 227.667 228.115C227.09 227.83 226.628 227.434 226.281 226.927C225.934 226.413 225.76 225.823 225.76 225.156C225.76 224.573 225.865 224.052 226.073 223.594C226.288 223.135 226.611 222.747 227.042 222.427C227.472 222.108 228.021 221.865 228.688 221.698C229.354 221.531 230.139 221.448 231.042 221.448H232.552ZM243.542 217.062V219.5H236.75V217.062H243.542ZM238.177 214.26H241.687V224.656C241.687 224.955 241.722 225.187 241.792 225.354C241.861 225.514 241.979 225.628 242.146 225.698C242.319 225.76 242.549 225.792 242.833 225.792C243.035 225.792 243.201 225.788 243.333 225.781C243.465 225.767 243.59 225.75 243.708 225.729V228.24C243.41 228.337 243.097 228.41 242.771 228.458C242.444 228.514 242.097 228.542 241.729 228.542C240.979 228.542 240.337 228.424 239.802 228.187C239.274 227.951 238.872 227.58 238.594 227.073C238.316 226.566 238.177 225.906 238.177 225.094V214.26ZM248.646 217.062V228.333H245.125V217.062H248.646ZM244.917 214.156C244.917 213.656 245.097 213.247 245.458 212.927C245.819 212.608 246.288 212.448 246.865 212.448C247.441 212.448 247.91 212.608 248.271 212.927C248.632 213.247 248.813 213.656 248.813 214.156C248.813 214.656 248.632 215.066 248.271 215.385C247.91 215.705 247.441 215.865 246.865 215.865C246.288 215.865 245.819 215.705 245.458 215.385C245.097 215.066 244.917 214.656 244.917 214.156ZM254.875 225.927L257.094 217.062H260.792L257.104 228.333H254.917L254.875 225.927ZM253.563 217.062L255.75 225.927L255.729 228.333H253.531L249.854 217.062H253.563ZM267.146 228.542C266.229 228.542 265.41 228.399 264.688 228.115C263.965 227.823 263.354 227.424 262.854 226.917C262.361 226.41 261.983 225.826 261.719 225.167C261.462 224.507 261.333 223.809 261.333 223.073V222.677C261.333 221.851 261.448 221.087 261.677 220.385C261.906 219.677 262.247 219.059 262.698 218.531C263.149 218.003 263.715 217.594 264.396 217.302C265.076 217.003 265.868 216.854 266.771 216.854C267.569 216.854 268.285 216.983 268.917 217.24C269.549 217.497 270.083 217.865 270.521 218.344C270.965 218.823 271.302 219.403 271.531 220.083C271.767 220.764 271.885 221.528 271.885 222.375V223.802H262.677V221.604H268.458V221.333C268.465 220.958 268.399 220.639 268.26 220.375C268.128 220.111 267.934 219.91 267.677 219.771C267.42 219.632 267.108 219.562 266.74 219.562C266.358 219.562 266.042 219.646 265.792 219.812C265.549 219.979 265.358 220.208 265.219 220.5C265.087 220.785 264.993 221.115 264.938 221.49C264.882 221.865 264.854 222.26 264.854 222.677V223.073C264.854 223.49 264.91 223.868 265.021 224.208C265.139 224.549 265.306 224.84 265.521 225.083C265.743 225.319 266.007 225.503 266.313 225.635C266.625 225.767 266.979 225.833 267.375 225.833C267.854 225.833 268.326 225.743 268.792 225.562C269.257 225.382 269.656 225.083 269.99 224.667L271.583 226.562C271.354 226.889 271.028 227.205 270.604 227.51C270.188 227.816 269.688 228.066 269.104 228.26C268.521 228.448 267.868 228.542 267.146 228.542Z" fill="white"/>
<rect x="339" y="196.333" width="208" height="49.3333" rx="4.66667" fill="#888888" stroke="#888888" stroke-width="4"/>
<path d="M431.521 213.167V228.333H427.875L422.51 218.896V228.333H418.854V213.167H422.51L427.875 222.604V213.167H431.521ZM433.229 222.812V222.594C433.229 221.767 433.347 221.007 433.583 220.312C433.819 219.611 434.167 219.003 434.625 218.49C435.083 217.976 435.649 217.576 436.323 217.292C436.997 217 437.774 216.854 438.656 216.854C439.545 216.854 440.326 217 441 217.292C441.681 217.576 442.25 217.976 442.708 218.49C443.167 219.003 443.514 219.611 443.75 220.312C443.986 221.007 444.104 221.767 444.104 222.594V222.812C444.104 223.632 443.986 224.392 443.75 225.094C443.514 225.788 443.167 226.396 442.708 226.917C442.25 227.431 441.684 227.83 441.01 228.115C440.337 228.399 439.559 228.542 438.677 228.542C437.795 228.542 437.014 228.399 436.333 228.115C435.653 227.83 435.083 227.431 434.625 226.917C434.167 226.396 433.819 225.788 433.583 225.094C433.347 224.392 433.229 223.632 433.229 222.812ZM436.74 222.594V222.812C436.74 223.236 436.771 223.632 436.833 224C436.896 224.368 437 224.691 437.146 224.969C437.292 225.24 437.49 225.451 437.74 225.604C437.99 225.757 438.302 225.833 438.677 225.833C439.045 225.833 439.351 225.757 439.594 225.604C439.844 225.451 440.042 225.24 440.187 224.969C440.333 224.691 440.437 224.368 440.5 224C440.562 223.632 440.594 223.236 440.594 222.812V222.594C440.594 222.184 440.562 221.799 440.5 221.437C440.437 221.069 440.333 220.747 440.187 220.469C440.042 220.184 439.844 219.962 439.594 219.802C439.344 219.642 439.031 219.562 438.656 219.562C438.288 219.562 437.979 219.642 437.729 219.802C437.486 219.962 437.292 220.184 437.146 220.469C437 220.747 436.896 221.069 436.833 221.437C436.771 221.799 436.74 222.184 436.74 222.594ZM452.146 225.75V212.333H455.677V228.333H452.51L452.146 225.75ZM445.229 222.833V222.615C445.229 221.76 445.323 220.983 445.51 220.281C445.698 219.573 445.976 218.965 446.344 218.458C446.712 217.944 447.17 217.549 447.719 217.271C448.267 216.993 448.899 216.854 449.615 216.854C450.253 216.854 450.812 217.003 451.292 217.302C451.771 217.594 452.181 218.003 452.521 218.531C452.861 219.059 453.139 219.677 453.354 220.385C453.569 221.087 453.733 221.844 453.844 222.656V222.917C453.733 223.681 453.569 224.403 453.354 225.083C453.139 225.757 452.861 226.354 452.521 226.875C452.181 227.396 451.767 227.806 451.281 228.104C450.802 228.396 450.24 228.542 449.594 228.542C448.878 228.542 448.247 228.399 447.698 228.115C447.156 227.83 446.701 227.431 446.333 226.917C445.972 226.403 445.698 225.799 445.51 225.104C445.323 224.41 445.229 223.653 445.229 222.833ZM448.74 222.615V222.833C448.74 223.257 448.767 223.649 448.823 224.01C448.878 224.372 448.972 224.691 449.104 224.969C449.243 225.24 449.424 225.451 449.646 225.604C449.875 225.757 450.156 225.833 450.49 225.833C450.941 225.833 451.312 225.726 451.604 225.51C451.903 225.295 452.122 224.99 452.26 224.594C452.406 224.198 452.469 223.733 452.448 223.198V222.375C452.462 221.917 452.431 221.514 452.354 221.167C452.278 220.812 452.156 220.517 451.99 220.281C451.83 220.045 451.625 219.868 451.375 219.75C451.132 219.625 450.844 219.562 450.51 219.562C450.184 219.562 449.906 219.639 449.677 219.792C449.455 219.944 449.274 220.16 449.135 220.437C448.997 220.708 448.896 221.031 448.833 221.406C448.771 221.774 448.74 222.177 448.74 222.615ZM463.125 228.542C462.208 228.542 461.389 228.399 460.667 228.115C459.944 227.823 459.333 227.424 458.833 226.917C458.34 226.41 457.962 225.826 457.698 225.167C457.441 224.507 457.312 223.809 457.312 223.073V222.677C457.312 221.851 457.427 221.087 457.656 220.385C457.885 219.677 458.226 219.059 458.677 218.531C459.128 218.003 459.694 217.594 460.375 217.302C461.056 217.003 461.847 216.854 462.75 216.854C463.549 216.854 464.264 216.983 464.896 217.24C465.528 217.497 466.062 217.865 466.5 218.344C466.944 218.823 467.281 219.403 467.51 220.083C467.747 220.764 467.865 221.528 467.865 222.375V223.802H458.656V221.604H464.437V221.333C464.444 220.958 464.378 220.639 464.24 220.375C464.108 220.111 463.913 219.91 463.656 219.771C463.399 219.632 463.087 219.562 462.719 219.562C462.337 219.562 462.021 219.646 461.771 219.812C461.528 219.979 461.337 220.208 461.198 220.5C461.066 220.785 460.972 221.115 460.917 221.49C460.861 221.865 460.833 222.26 460.833 222.677V223.073C460.833 223.49 460.889 223.868 461 224.208C461.118 224.549 461.285 224.84 461.5 225.083C461.722 225.319 461.986 225.503 462.292 225.635C462.604 225.767 462.958 225.833 463.354 225.833C463.833 225.833 464.306 225.743 464.771 225.562C465.236 225.382 465.635 225.083 465.969 224.667L467.562 226.562C467.333 226.889 467.007 227.205 466.583 227.51C466.167 227.816 465.667 228.066 465.083 228.26C464.5 228.448 463.847 228.542 463.125 228.542Z" fill="white"/>
<rect x="571" y="196.333" width="208" height="49.3333" rx="4.66667" fill="#888888" stroke="#888888" stroke-width="4"/>
<path d="M648.427 225.521V228.333H640.344V225.521H648.427ZM641.646 213.167V228.333H637.99V213.167H641.646ZM647.385 219.187V221.906H640.344V219.187H647.385ZM648.458 213.167V215.99H640.344V213.167H648.458ZM652.74 217.062L654.323 220.167L655.958 217.062H659.604L656.646 222.552L659.76 228.333H656.083L654.323 225L652.573 228.333H648.896L652.01 222.552L649.062 217.062H652.74ZM664.302 219.229V232.667H660.792V217.062H664.062L664.302 219.229ZM671.219 222.562V222.781C671.219 223.601 671.125 224.361 670.937 225.062C670.75 225.764 670.472 226.375 670.104 226.896C669.736 227.417 669.278 227.823 668.729 228.115C668.187 228.399 667.559 228.542 666.844 228.542C666.17 228.542 665.59 228.392 665.104 228.094C664.618 227.795 664.212 227.382 663.885 226.854C663.559 226.326 663.295 225.722 663.094 225.042C662.892 224.361 662.733 223.642 662.615 222.885V222.604C662.733 221.792 662.892 221.038 663.094 220.344C663.295 219.642 663.559 219.031 663.885 218.51C664.212 217.99 664.615 217.583 665.094 217.292C665.58 217 666.16 216.854 666.833 216.854C667.549 216.854 668.177 216.99 668.719 217.26C669.267 217.531 669.726 217.92 670.094 218.427C670.469 218.927 670.75 219.528 670.937 220.229C671.125 220.931 671.219 221.708 671.219 222.562ZM667.708 222.781V222.562C667.708 222.125 667.677 221.726 667.615 221.365C667.552 220.997 667.451 220.677 667.312 220.406C667.181 220.135 667.003 219.927 666.781 219.781C666.559 219.635 666.285 219.562 665.958 219.562C665.583 219.562 665.267 219.622 665.01 219.74C664.76 219.851 664.559 220.024 664.406 220.26C664.26 220.49 664.156 220.778 664.094 221.125C664.038 221.465 664.014 221.865 664.021 222.323V223.177C664.007 223.705 664.059 224.17 664.177 224.573C664.295 224.969 664.5 225.278 664.792 225.5C665.083 225.722 665.479 225.833 665.979 225.833C666.312 225.833 666.59 225.757 666.812 225.604C667.035 225.444 667.212 225.226 667.344 224.948C667.476 224.663 667.569 224.337 667.625 223.969C667.681 223.601 667.708 223.205 667.708 222.781ZM676.323 219.854V228.333H672.812V217.062H676.094L676.323 219.854ZM679.656 216.979L679.594 220.24C679.455 220.226 679.267 220.208 679.031 220.187C678.795 220.167 678.597 220.156 678.437 220.156C678.028 220.156 677.674 220.205 677.375 220.302C677.083 220.392 676.84 220.531 676.646 220.719C676.458 220.899 676.319 221.128 676.229 221.406C676.146 221.684 676.108 222.007 676.115 222.375L675.479 221.958C675.479 221.201 675.552 220.514 675.698 219.896C675.851 219.271 676.066 218.733 676.344 218.281C676.622 217.823 676.958 217.472 677.354 217.229C677.75 216.979 678.194 216.854 678.687 216.854C678.861 216.854 679.031 216.865 679.198 216.885C679.372 216.906 679.524 216.937 679.656 216.979ZM686.115 228.542C685.198 228.542 684.378 228.399 683.656 228.115C682.934 227.823 682.323 227.424 681.823 226.917C681.33 226.41 680.951 225.826 680.687 225.167C680.431 224.507 680.302 223.809 680.302 223.073V222.677C680.302 221.851 680.417 221.087 680.646 220.385C680.875 219.677 681.215 219.059 681.667 218.531C682.118 218.003 682.684 217.594 683.365 217.302C684.045 217.003 684.837 216.854 685.74 216.854C686.538 216.854 687.253 216.983 687.885 217.24C688.517 217.497 689.052 217.865 689.49 218.344C689.934 218.823 690.271 219.403 690.5 220.083C690.736 220.764 690.854 221.528 690.854 222.375V223.802H681.646V221.604H687.427V221.333C687.434 220.958 687.368 220.639 687.229 220.375C687.097 220.111 686.903 219.91 686.646 219.771C686.389 219.632 686.076 219.562 685.708 219.562C685.326 219.562 685.01 219.646 684.76 219.812C684.517 219.979 684.326 220.208 684.187 220.5C684.056 220.785 683.962 221.115 683.906 221.49C683.851 221.865 683.823 222.26 683.823 222.677V223.073C683.823 223.49 683.878 223.868 683.99 224.208C684.108 224.549 684.274 224.84 684.49 225.083C684.712 225.319 684.976 225.503 685.281 225.635C685.594 225.767 685.948 225.833 686.344 225.833C686.823 225.833 687.295 225.743 687.76 225.562C688.226 225.382 688.625 225.083 688.958 224.667L690.552 226.562C690.323 226.889 689.997 227.205 689.573 227.51C689.156 227.816 688.656 228.066 688.073 228.26C687.49 228.448 686.837 228.542 686.115 228.542ZM698.187 225.167C698.187 224.972 698.122 224.806 697.99 224.667C697.865 224.521 697.642 224.389 697.323 224.271C697.003 224.146 696.556 224.021 695.979 223.896C695.431 223.778 694.913 223.622 694.427 223.427C693.948 223.233 693.528 222.997 693.167 222.719C692.806 222.441 692.521 222.111 692.312 221.729C692.111 221.347 692.01 220.91 692.01 220.417C692.01 219.937 692.111 219.486 692.312 219.062C692.521 218.632 692.823 218.253 693.219 217.927C693.622 217.594 694.111 217.333 694.687 217.146C695.264 216.951 695.92 216.854 696.656 216.854C697.67 216.854 698.545 217.01 699.281 217.323C700.017 217.628 700.583 218.059 700.979 218.615C701.382 219.163 701.583 219.799 701.583 220.521H698.073C698.073 220.236 698.024 219.993 697.927 219.792C697.837 219.59 697.687 219.437 697.479 219.333C697.271 219.222 696.993 219.167 696.646 219.167C696.403 219.167 696.181 219.212 695.979 219.302C695.785 219.392 695.628 219.517 695.51 219.677C695.392 219.837 695.333 220.024 695.333 220.24C695.333 220.392 695.368 220.531 695.437 220.656C695.514 220.774 695.628 220.885 695.781 220.99C695.934 221.087 696.128 221.177 696.365 221.26C696.601 221.337 696.885 221.406 697.219 221.469C697.976 221.608 698.684 221.806 699.344 222.062C700.003 222.319 700.538 222.684 700.948 223.156C701.365 223.628 701.573 224.264 701.573 225.062C701.573 225.562 701.458 226.024 701.229 226.448C701 226.865 700.67 227.233 700.24 227.552C699.809 227.865 699.292 228.108 698.687 228.281C698.083 228.455 697.403 228.542 696.646 228.542C695.569 228.542 694.66 228.351 693.917 227.969C693.174 227.58 692.611 227.094 692.229 226.51C691.854 225.92 691.667 225.323 691.667 224.719H694.937C694.951 225.066 695.035 225.351 695.187 225.573C695.347 225.795 695.559 225.958 695.823 226.062C696.087 226.167 696.392 226.219 696.74 226.219C697.059 226.219 697.323 226.174 697.531 226.083C697.747 225.993 697.91 225.872 698.021 225.719C698.132 225.559 698.187 225.375 698.187 225.167ZM709.125 225.167C709.125 224.972 709.059 224.806 708.927 224.667C708.802 224.521 708.58 224.389 708.26 224.271C707.941 224.146 707.493 224.021 706.917 223.896C706.368 223.778 705.851 223.622 705.365 223.427C704.885 223.233 704.465 222.997 704.104 222.719C703.743 222.441 703.458 222.111 703.25 221.729C703.049 221.347 702.948 220.91 702.948 220.417C702.948 219.937 703.049 219.486 703.25 219.062C703.458 218.632 703.76 218.253 704.156 217.927C704.559 217.594 705.049 217.333 705.625 217.146C706.201 216.951 706.858 216.854 707.594 216.854C708.608 216.854 709.483 217.01 710.219 217.323C710.955 217.628 711.521 218.059 711.917 218.615C712.319 219.163 712.521 219.799 712.521 220.521H709.01C709.01 220.236 708.962 219.993 708.865 219.792C708.774 219.59 708.625 219.437 708.417 219.333C708.208 219.222 707.931 219.167 707.583 219.167C707.34 219.167 707.118 219.212 706.917 219.302C706.722 219.392 706.566 219.517 706.448 219.677C706.33 219.837 706.271 220.024 706.271 220.24C706.271 220.392 706.306 220.531 706.375 220.656C706.451 220.774 706.566 220.885 706.719 220.99C706.872 221.087 707.066 221.177 707.302 221.26C707.538 221.337 707.823 221.406 708.156 221.469C708.913 221.608 709.622 221.806 710.281 222.062C710.941 222.319 711.476 222.684 711.885 223.156C712.302 223.628 712.51 224.264 712.51 225.062C712.51 225.562 712.396 226.024 712.167 226.448C711.937 226.865 711.608 227.233 711.177 227.552C710.747 227.865 710.229 228.108 709.625 228.281C709.021 228.455 708.34 228.542 707.583 228.542C706.507 228.542 705.597 228.351 704.854 227.969C704.111 227.58 703.549 227.094 703.167 226.51C702.792 225.92 702.604 225.323 702.604 224.719H705.875C705.889 225.066 705.972 225.351 706.125 225.573C706.285 225.795 706.497 225.958 706.76 226.062C707.024 226.167 707.33 226.219 707.677 226.219C707.997 226.219 708.26 226.174 708.469 226.083C708.684 225.993 708.847 225.872 708.958 225.719C709.069 225.559 709.125 225.375 709.125 225.167Z" fill="white"/>
<rect x="803" y="196.333" width="208" height="49.3333" rx="4.66667" fill="#888888" stroke="#888888" stroke-width="4"/>
<path d="M862.656 213.167H865.635L869.021 223.719L872.406 213.167H875.385L870.229 228.333H867.813L862.656 213.167ZM860.844 213.167H863.927L864.5 224.792V228.333H860.844V213.167ZM874.115 213.167H877.208V228.333H873.542V224.792L874.115 213.167ZM878.948 222.812V222.594C878.948 221.767 879.066 221.007 879.302 220.312C879.538 219.611 879.885 219.003 880.344 218.49C880.802 217.976 881.368 217.576 882.042 217.292C882.715 217 883.493 216.854 884.375 216.854C885.264 216.854 886.045 217 886.719 217.292C887.399 217.576 887.969 217.976 888.427 218.49C888.885 219.003 889.233 219.611 889.469 220.312C889.705 221.007 889.823 221.767 889.823 222.594V222.812C889.823 223.632 889.705 224.392 889.469 225.094C889.233 225.788 888.885 226.396 888.427 226.917C887.969 227.431 887.403 227.83 886.729 228.115C886.056 228.399 885.278 228.542 884.396 228.542C883.514 228.542 882.733 228.399 882.052 228.115C881.372 227.83 880.802 227.431 880.344 226.917C879.885 226.396 879.538 225.788 879.302 225.094C879.066 224.392 878.948 223.632 878.948 222.812ZM882.458 222.594V222.812C882.458 223.236 882.49 223.632 882.552 224C882.615 224.368 882.719 224.691 882.865 224.969C883.01 225.24 883.208 225.451 883.458 225.604C883.708 225.757 884.021 225.833 884.396 225.833C884.764 225.833 885.069 225.757 885.313 225.604C885.563 225.451 885.76 225.24 885.906 224.969C886.052 224.691 886.156 224.368 886.219 224C886.281 223.632 886.313 223.236 886.313 222.812V222.594C886.313 222.184 886.281 221.799 886.219 221.437C886.156 221.069 886.052 220.747 885.906 220.469C885.76 220.184 885.563 219.962 885.313 219.802C885.063 219.642 884.75 219.562 884.375 219.562C884.007 219.562 883.698 219.642 883.448 219.802C883.205 219.962 883.01 220.184 882.865 220.469C882.719 220.747 882.615 221.069 882.552 221.437C882.49 221.799 882.458 222.184 882.458 222.594ZM894.833 219.469V228.333H891.323V217.062H894.615L894.833 219.469ZM894.417 222.312L893.594 222.333C893.594 221.472 893.698 220.705 893.906 220.031C894.115 219.351 894.41 218.774 894.792 218.302C895.174 217.83 895.628 217.472 896.156 217.229C896.691 216.979 897.285 216.854 897.938 216.854C898.458 216.854 898.934 216.931 899.365 217.083C899.802 217.236 900.177 217.483 900.49 217.823C900.809 218.163 901.052 218.615 901.219 219.177C901.392 219.733 901.479 220.42 901.479 221.24V228.333H897.948V221.229C897.948 220.778 897.885 220.434 897.76 220.198C897.635 219.955 897.455 219.788 897.219 219.698C896.983 219.608 896.694 219.562 896.354 219.562C895.993 219.562 895.688 219.632 895.438 219.771C895.188 219.91 894.986 220.104 894.833 220.354C894.688 220.597 894.58 220.885 894.51 221.219C894.448 221.552 894.417 221.917 894.417 222.312ZM910.51 217.062H913.698V227.896C913.698 228.937 913.458 229.819 912.979 230.542C912.5 231.271 911.83 231.823 910.969 232.198C910.115 232.58 909.115 232.771 907.969 232.771C907.462 232.771 906.944 232.705 906.417 232.573C905.889 232.448 905.396 232.26 904.938 232.01C904.479 231.76 904.094 231.451 903.781 231.083L905.25 229.021C905.535 229.34 905.892 229.611 906.323 229.833C906.753 230.062 907.26 230.177 907.844 230.177C908.351 230.177 908.774 230.087 909.115 229.906C909.462 229.726 909.726 229.462 909.906 229.115C910.087 228.774 910.177 228.361 910.177 227.875V219.729L910.51 217.062ZM903.021 222.833V222.615C903.021 221.76 903.125 220.983 903.333 220.281C903.549 219.573 903.854 218.965 904.25 218.458C904.653 217.944 905.139 217.549 905.708 217.271C906.278 216.993 906.92 216.854 907.635 216.854C908.406 216.854 909.038 217.003 909.531 217.302C910.031 217.594 910.431 218.003 910.729 218.531C911.035 219.059 911.271 219.677 911.438 220.385C911.611 221.087 911.757 221.844 911.875 222.656V222.917C911.757 223.681 911.594 224.403 911.385 225.083C911.184 225.757 910.92 226.354 910.594 226.875C910.267 227.396 909.858 227.806 909.365 228.104C908.878 228.396 908.295 228.542 907.615 228.542C906.906 228.542 906.267 228.399 905.698 228.115C905.135 227.83 904.653 227.431 904.25 226.917C903.854 226.403 903.549 225.799 903.333 225.104C903.125 224.41 903.021 223.653 903.021 222.833ZM906.531 222.615V222.833C906.531 223.257 906.569 223.649 906.646 224.01C906.729 224.372 906.854 224.691 907.021 224.969C907.188 225.24 907.392 225.451 907.635 225.604C907.885 225.757 908.177 225.833 908.51 225.833C909.017 225.833 909.427 225.726 909.74 225.51C910.052 225.295 910.278 224.99 910.417 224.594C910.556 224.198 910.615 223.733 910.594 223.198V222.375C910.608 221.917 910.576 221.514 910.5 221.167C910.424 220.812 910.302 220.517 910.135 220.281C909.976 220.045 909.76 219.868 909.49 219.75C909.226 219.625 908.906 219.562 908.531 219.562C908.205 219.562 907.917 219.639 907.667 219.792C907.417 219.944 907.208 220.16 907.042 220.437C906.875 220.708 906.747 221.031 906.656 221.406C906.573 221.774 906.531 222.177 906.531 222.615ZM915.281 222.812V222.594C915.281 221.767 915.399 221.007 915.635 220.312C915.872 219.611 916.219 219.003 916.677 218.49C917.135 217.976 917.701 217.576 918.375 217.292C919.049 217 919.826 216.854 920.708 216.854C921.597 216.854 922.378 217 923.052 217.292C923.733 217.576 924.302 217.976 924.76 218.49C925.219 219.003 925.566 219.611 925.802 220.312C926.038 221.007 926.156 221.767 926.156 222.594V222.812C926.156 223.632 926.038 224.392 925.802 225.094C925.566 225.788 925.219 226.396 924.76 226.917C924.302 227.431 923.736 227.83 923.063 228.115C922.389 228.399 921.611 228.542 920.729 228.542C919.847 228.542 919.066 228.399 918.385 228.115C917.705 227.83 917.135 227.431 916.677 226.917C916.219 226.396 915.872 225.788 915.635 225.094C915.399 224.392 915.281 223.632 915.281 222.812ZM918.792 222.594V222.812C918.792 223.236 918.823 223.632 918.885 224C918.948 224.368 919.052 224.691 919.198 224.969C919.344 225.24 919.542 225.451 919.792 225.604C920.042 225.757 920.354 225.833 920.729 225.833C921.097 225.833 921.403 225.757 921.646 225.604C921.896 225.451 922.094 225.24 922.24 224.969C922.385 224.691 922.49 224.368 922.552 224C922.615 223.632 922.646 223.236 922.646 222.812V222.594C922.646 222.184 922.615 221.799 922.552 221.437C922.49 221.069 922.385 220.747 922.24 220.469C922.094 220.184 921.896 219.962 921.646 219.802C921.396 219.642 921.083 219.562 920.708 219.562C920.34 219.562 920.031 219.642 919.781 219.802C919.538 219.962 919.344 220.184 919.198 220.469C919.052 220.747 918.948 221.069 918.885 221.437C918.823 221.799 918.792 222.184 918.792 222.594ZM932.813 228.333H929.448L929.469 225.521H932.813C933.507 225.521 934.094 225.354 934.573 225.021C935.059 224.687 935.427 224.191 935.677 223.531C935.934 222.865 936.063 222.045 936.063 221.073V220.417C936.063 219.687 935.99 219.049 935.844 218.5C935.705 217.944 935.497 217.483 935.219 217.115C934.941 216.74 934.594 216.458 934.177 216.271C933.767 216.083 933.295 215.99 932.76 215.99H929.385V213.167H932.76C933.788 213.167 934.729 213.344 935.583 213.698C936.444 214.045 937.188 214.545 937.813 215.198C938.444 215.844 938.931 216.611 939.271 217.5C939.618 218.382 939.792 219.361 939.792 220.437V221.073C939.792 222.142 939.618 223.122 939.271 224.01C938.931 224.899 938.448 225.667 937.823 226.312C937.198 226.958 936.458 227.458 935.604 227.812C934.757 228.16 933.826 228.333 932.813 228.333ZM931.542 213.167V228.333H927.885V213.167H931.542ZM947.885 221.885H943.979L943.958 219.49H947.125C947.694 219.49 948.149 219.427 948.49 219.302C948.83 219.17 949.076 218.979 949.229 218.729C949.389 218.479 949.469 218.167 949.469 217.792C949.469 217.361 949.389 217.014 949.229 216.75C949.069 216.486 948.816 216.295 948.469 216.177C948.128 216.052 947.688 215.99 947.146 215.99H945.354V228.333H941.698V213.167H947.146C948.083 213.167 948.92 213.253 949.656 213.427C950.392 213.594 951.017 213.851 951.531 214.198C952.052 214.545 952.448 214.983 952.719 215.51C952.99 216.031 953.125 216.646 953.125 217.354C953.125 217.972 952.993 218.552 952.729 219.094C952.465 219.635 952.024 220.076 951.406 220.417C950.795 220.75 949.958 220.924 948.896 220.937L947.885 221.885ZM947.74 228.333H943.094L944.344 225.521H947.74C948.24 225.521 948.639 225.444 948.938 225.292C949.243 225.132 949.462 224.924 949.594 224.667C949.733 224.403 949.802 224.111 949.802 223.792C949.802 223.403 949.736 223.066 949.604 222.781C949.479 222.497 949.278 222.278 949 222.125C948.722 221.965 948.351 221.885 947.885 221.885H944.813L944.833 219.49H948.51L949.365 220.448C950.378 220.406 951.181 220.549 951.771 220.875C952.368 221.201 952.795 221.632 953.052 222.167C953.309 222.701 953.438 223.26 953.438 223.844C953.438 224.837 953.222 225.667 952.792 226.333C952.368 227 951.733 227.5 950.885 227.833C950.038 228.167 948.99 228.333 947.74 228.333Z" fill="white"/>
</svg>
