<svg width="1363" height="301" viewBox="0 0 1363 301" fill="none" xmlns="http://www.w3.org/2000/svg">
<rect width="1363" height="301" rx="15" fill="#F0F0F0"/>
<path d="M0 15C0 6.71573 6.71573 0 15 0H37V301H15C6.71573 301 0 294.284 0 286V15Z" fill="#004B67"/>
<path d="M110.584 130.733H100.862V123.456H110.584C111.909 123.456 112.983 123.232 113.807 122.784C114.63 122.337 115.23 121.719 115.606 120.931C116 120.125 116.197 119.221 116.197 118.219C116.197 117.145 116 116.151 115.606 115.238C115.23 114.325 114.63 113.591 113.807 113.036C112.983 112.463 111.909 112.176 110.584 112.176H104.407V144H94.981V104.898H110.584C113.717 104.898 116.412 105.471 118.667 106.617C120.941 107.763 122.687 109.339 123.904 111.344C125.122 113.331 125.73 115.605 125.73 118.165C125.73 120.689 125.122 122.892 123.904 124.771C122.687 126.651 120.941 128.119 118.667 129.176C116.412 130.214 113.717 130.733 110.584 130.733ZM144.073 144.537C141.709 144.537 139.597 144.17 137.735 143.436C135.873 142.684 134.297 141.655 133.008 140.348C131.737 139.041 130.761 137.537 130.081 135.836C129.419 134.135 129.087 132.336 129.087 130.438V129.417C129.087 127.287 129.383 125.318 129.974 123.509C130.564 121.683 131.442 120.09 132.605 118.729C133.769 117.368 135.228 116.312 136.983 115.56C138.737 114.79 140.778 114.405 143.106 114.405C145.165 114.405 147.009 114.736 148.638 115.399C150.267 116.061 151.646 117.01 152.774 118.246C153.92 119.481 154.788 120.976 155.379 122.73C155.988 124.485 156.292 126.454 156.292 128.639V132.318H132.552V126.651H147.457V125.953C147.474 124.986 147.304 124.163 146.946 123.482C146.606 122.802 146.105 122.283 145.442 121.925C144.78 121.567 143.974 121.388 143.025 121.388C142.041 121.388 141.226 121.603 140.582 122.032C139.955 122.462 139.463 123.053 139.104 123.805C138.764 124.539 138.523 125.389 138.379 126.356C138.236 127.323 138.165 128.343 138.165 129.417V130.438C138.165 131.512 138.308 132.488 138.594 133.365C138.899 134.243 139.328 134.994 139.883 135.621C140.456 136.23 141.137 136.704 141.924 137.044C142.73 137.385 143.643 137.555 144.664 137.555C145.899 137.555 147.116 137.322 148.316 136.856C149.515 136.391 150.545 135.621 151.404 134.547L155.513 139.435C154.922 140.276 154.081 141.091 152.989 141.878C151.915 142.666 150.625 143.311 149.122 143.812C147.618 144.295 145.935 144.537 144.073 144.537ZM175.279 114.942V121.227H157.769V114.942H175.279ZM161.448 107.718H170.499V134.52C170.499 135.29 170.588 135.89 170.767 136.319C170.946 136.731 171.25 137.027 171.68 137.206C172.128 137.367 172.719 137.447 173.453 137.447C173.972 137.447 174.402 137.438 174.742 137.42C175.082 137.385 175.404 137.34 175.708 137.286V143.758C174.939 144.009 174.133 144.197 173.292 144.322C172.45 144.465 171.555 144.537 170.606 144.537C168.672 144.537 167.016 144.233 165.638 143.624C164.277 143.015 163.239 142.057 162.522 140.75C161.806 139.444 161.448 137.743 161.448 135.648V107.718ZM208.606 130.733H198.885V123.456H208.606C209.931 123.456 211.006 123.232 211.829 122.784C212.653 122.337 213.252 121.719 213.628 120.931C214.022 120.125 214.219 119.221 214.219 118.219C214.219 117.145 214.022 116.151 213.628 115.238C213.252 114.325 212.653 113.591 211.829 113.036C211.006 112.463 209.931 112.176 208.606 112.176H202.43V144H193.003V104.898H208.606C211.74 104.898 214.434 105.471 216.69 106.617C218.964 107.763 220.709 109.339 221.927 111.344C223.144 113.331 223.753 115.605 223.753 118.165C223.753 120.689 223.144 122.892 221.927 124.771C220.709 126.651 218.964 128.119 216.69 129.176C214.434 130.214 211.74 130.733 208.606 130.733ZM243.169 136.695V124.718C243.169 123.894 243.053 123.187 242.82 122.596C242.588 122.005 242.221 121.549 241.719 121.227C241.218 120.886 240.547 120.716 239.705 120.716C239.025 120.716 238.443 120.833 237.959 121.065C237.476 121.298 237.109 121.647 236.858 122.113C236.608 122.578 236.482 123.169 236.482 123.885H227.432C227.432 122.542 227.728 121.298 228.318 120.152C228.927 118.989 229.786 117.977 230.896 117.118C232.024 116.258 233.367 115.596 234.925 115.13C236.5 114.647 238.255 114.405 240.188 114.405C242.498 114.405 244.557 114.79 246.365 115.56C248.191 116.33 249.633 117.485 250.689 119.024C251.745 120.546 252.273 122.462 252.273 124.771V136.668C252.273 138.566 252.381 140.007 252.596 140.992C252.811 141.959 253.115 142.809 253.509 143.543V144H244.432C244.002 143.105 243.68 142.013 243.465 140.724C243.268 139.417 243.169 138.074 243.169 136.695ZM244.271 126.249L244.324 131.083H240.323C239.481 131.083 238.765 131.199 238.174 131.432C237.601 131.664 237.136 131.987 236.778 132.398C236.438 132.792 236.187 133.24 236.026 133.741C235.883 134.243 235.811 134.771 235.811 135.326C235.811 135.863 235.936 136.346 236.187 136.776C236.456 137.188 236.814 137.51 237.261 137.743C237.709 137.975 238.21 138.092 238.765 138.092C239.768 138.092 240.618 137.904 241.316 137.528C242.033 137.134 242.579 136.66 242.955 136.104C243.331 135.549 243.519 135.03 243.519 134.547L245.506 138.253C245.148 138.969 244.736 139.694 244.271 140.428C243.823 141.162 243.259 141.843 242.579 142.469C241.916 143.078 241.102 143.579 240.135 143.973C239.168 144.349 237.995 144.537 236.617 144.537C234.826 144.537 233.179 144.17 231.675 143.436C230.189 142.702 228.999 141.681 228.104 140.375C227.208 139.05 226.761 137.528 226.761 135.809C226.761 134.305 227.029 132.962 227.566 131.781C228.121 130.599 228.954 129.597 230.064 128.773C231.174 127.949 232.588 127.323 234.307 126.893C236.026 126.463 238.049 126.249 240.376 126.249H244.271ZM266.426 121.092V144H257.376V114.942H265.862L266.426 121.092ZM265.325 128.478L263.257 128.531C263.257 126.49 263.499 124.61 263.982 122.892C264.466 121.173 265.182 119.678 266.131 118.407C267.08 117.136 268.243 116.151 269.622 115.453C271.019 114.754 272.63 114.405 274.456 114.405C275.727 114.405 276.882 114.602 277.92 114.996C278.959 115.372 279.854 115.972 280.606 116.795C281.358 117.601 281.931 118.657 282.325 119.964C282.736 121.253 282.942 122.802 282.942 124.61V144H273.892V125.765C273.892 124.53 273.749 123.599 273.462 122.972C273.194 122.346 272.8 121.925 272.281 121.71C271.762 121.495 271.126 121.388 270.374 121.388C269.586 121.388 268.879 121.567 268.252 121.925C267.626 122.283 267.089 122.784 266.641 123.429C266.211 124.055 265.88 124.798 265.647 125.658C265.433 126.517 265.325 127.457 265.325 128.478ZM281.922 128.478L279.397 128.531C279.397 126.49 279.621 124.61 280.069 122.892C280.534 121.173 281.224 119.678 282.137 118.407C283.068 117.136 284.222 116.151 285.601 115.453C286.98 114.754 288.582 114.405 290.408 114.405C291.733 114.405 292.951 114.602 294.061 114.996C295.171 115.39 296.128 116.026 296.934 116.903C297.74 117.78 298.366 118.944 298.814 120.394C299.262 121.826 299.485 123.599 299.485 125.711V144H290.408V125.711C290.408 124.512 290.265 123.608 289.979 122.999C289.71 122.372 289.316 121.952 288.797 121.737C288.278 121.504 287.66 121.388 286.944 121.388C286.084 121.388 285.341 121.567 284.715 121.925C284.088 122.283 283.56 122.784 283.13 123.429C282.719 124.055 282.414 124.798 282.217 125.658C282.02 126.517 281.922 127.457 281.922 128.478ZM313.799 120.528V155.172H304.749V114.942H313.182L313.799 120.528ZM331.631 129.122V129.686C331.631 131.799 331.39 133.759 330.906 135.567C330.423 137.376 329.707 138.951 328.758 140.294C327.809 141.637 326.627 142.684 325.213 143.436C323.816 144.17 322.196 144.537 320.352 144.537C318.615 144.537 317.12 144.152 315.867 143.382C314.614 142.612 313.567 141.547 312.725 140.187C311.884 138.826 311.203 137.268 310.684 135.514C310.165 133.759 309.753 131.906 309.449 129.955V129.229C309.753 127.135 310.165 125.192 310.684 123.402C311.203 121.594 311.884 120.018 312.725 118.675C313.567 117.333 314.605 116.285 315.84 115.533C317.094 114.781 318.589 114.405 320.325 114.405C322.169 114.405 323.79 114.754 325.186 115.453C326.6 116.151 327.782 117.153 328.731 118.46C329.698 119.75 330.423 121.298 330.906 123.106C331.39 124.915 331.631 126.92 331.631 129.122ZM322.581 129.686V129.122C322.581 127.994 322.5 126.965 322.339 126.034C322.178 125.085 321.919 124.261 321.561 123.563C321.22 122.865 320.764 122.328 320.191 121.952C319.618 121.576 318.911 121.388 318.069 121.388C317.103 121.388 316.288 121.54 315.625 121.844C314.981 122.131 314.462 122.578 314.068 123.187C313.692 123.778 313.423 124.521 313.262 125.416C313.119 126.293 313.056 127.323 313.074 128.504V130.707C313.038 132.067 313.173 133.267 313.477 134.305C313.781 135.326 314.31 136.122 315.062 136.695C315.813 137.268 316.834 137.555 318.123 137.555C318.982 137.555 319.699 137.358 320.271 136.964C320.844 136.552 321.301 135.988 321.641 135.272C321.981 134.538 322.223 133.696 322.366 132.748C322.509 131.799 322.581 130.778 322.581 129.686ZM349.732 144.537C347.369 144.537 345.256 144.17 343.394 143.436C341.532 142.684 339.957 141.655 338.667 140.348C337.396 139.041 336.421 137.537 335.74 135.836C335.078 134.135 334.747 132.336 334.747 130.438V129.417C334.747 127.287 335.042 125.318 335.633 123.509C336.224 121.683 337.101 120.09 338.265 118.729C339.428 117.368 340.888 116.312 342.642 115.56C344.397 114.79 346.438 114.405 348.765 114.405C350.824 114.405 352.668 114.736 354.297 115.399C355.927 116.061 357.305 117.01 358.433 118.246C359.579 119.481 360.447 120.976 361.038 122.73C361.647 124.485 361.951 126.454 361.951 128.639V132.318H338.211V126.651H353.116V125.953C353.134 124.986 352.964 124.163 352.605 123.482C352.265 122.802 351.764 122.283 351.102 121.925C350.439 121.567 349.633 121.388 348.685 121.388C347.7 121.388 346.885 121.603 346.241 122.032C345.614 122.462 345.122 123.053 344.764 123.805C344.424 124.539 344.182 125.389 344.039 126.356C343.895 127.323 343.824 128.343 343.824 129.417V130.438C343.824 131.512 343.967 132.488 344.253 133.365C344.558 134.243 344.987 134.994 345.542 135.621C346.115 136.23 346.796 136.704 347.583 137.044C348.389 137.385 349.302 137.555 350.323 137.555C351.558 137.555 352.776 137.322 353.975 136.856C355.175 136.391 356.204 135.621 357.063 134.547L361.172 139.435C360.582 140.276 359.74 141.091 358.648 141.878C357.574 142.666 356.285 143.311 354.781 143.812C353.277 144.295 351.594 144.537 349.732 144.537ZM374.761 122.14V144H365.711V114.942H374.17L374.761 122.14ZM383.355 114.728L383.194 123.133C382.836 123.097 382.352 123.053 381.744 122.999C381.135 122.945 380.625 122.918 380.213 122.918C379.157 122.918 378.243 123.044 377.474 123.294C376.722 123.527 376.095 123.885 375.594 124.369C375.11 124.834 374.752 125.425 374.52 126.141C374.305 126.857 374.206 127.69 374.224 128.639L372.586 127.564C372.586 125.613 372.774 123.84 373.15 122.247C373.544 120.636 374.099 119.248 374.815 118.084C375.531 116.903 376.399 115.999 377.42 115.372C378.44 114.728 379.586 114.405 380.857 114.405C381.305 114.405 381.744 114.432 382.173 114.486C382.621 114.54 383.015 114.62 383.355 114.728Z" fill="black"/>
<path d="M104.339 59.3726L97.5713 80H92.1196L101.365 55.1172H104.834L104.339 59.3726ZM109.961 80L103.177 59.3726L102.63 55.1172H106.133L115.43 80H109.961ZM109.654 70.7373V74.7534H96.5117V70.7373H109.654ZM122.625 53.75V80H117.686V53.75H122.625ZM131.888 61.5088V80H126.949V61.5088H131.888ZM126.641 56.6895C126.641 55.9717 126.892 55.3792 127.393 54.9121C127.894 54.445 128.567 54.2114 129.41 54.2114C130.241 54.2114 130.908 54.445 131.409 54.9121C131.922 55.3792 132.178 55.9717 132.178 56.6895C132.178 57.4072 131.922 57.9997 131.409 58.4668C130.908 58.9339 130.241 59.1675 129.41 59.1675C128.567 59.1675 127.894 58.9339 127.393 58.4668C126.892 57.9997 126.641 57.4072 126.641 56.6895ZM155.096 59.3726L148.328 80H142.876L152.122 55.1172H155.591L155.096 59.3726ZM160.718 80L153.934 59.3726L153.387 55.1172H156.89L166.187 80H160.718ZM160.411 70.7373V74.7534H147.269V70.7373H160.411ZM183.106 76.1548V80H169.058V76.1548H183.106ZM182.833 64.3457L171.041 80H167.742V77.0776L179.483 61.5088H182.833V64.3457ZM181.089 61.5088V65.3711H168.016V61.5088H181.089ZM200.914 76.1548V80H186.866V76.1548H200.914ZM200.64 64.3457L188.848 80H185.55V77.0776L197.291 61.5088H200.64V64.3457ZM198.897 61.5088V65.3711H185.823V61.5088H198.897ZM213.987 75.8301V67.5928C213.987 67.0003 213.89 66.4933 213.697 66.0718C213.503 65.6388 213.201 65.3027 212.791 65.0635C212.392 64.8242 211.874 64.7046 211.236 64.7046C210.689 64.7046 210.216 64.8014 209.817 64.9951C209.419 65.1774 209.111 65.4451 208.895 65.7983C208.678 66.1401 208.57 66.5446 208.57 67.0117H203.648C203.648 66.2256 203.83 65.4793 204.195 64.7729C204.559 64.0666 205.089 63.4456 205.784 62.9102C206.479 62.3633 207.305 61.936 208.262 61.6284C209.231 61.3208 210.313 61.167 211.509 61.167C212.945 61.167 214.221 61.4062 215.337 61.8848C216.454 62.3633 217.331 63.0811 217.969 64.0381C218.619 64.9951 218.943 66.1914 218.943 67.627V75.5396C218.943 76.5535 219.006 77.3853 219.131 78.0347C219.257 78.6727 219.439 79.231 219.678 79.7095V80H214.705C214.466 79.4987 214.284 78.8721 214.158 78.1201C214.044 77.3568 213.987 76.5934 213.987 75.8301ZM214.637 68.7378L214.671 71.5234H211.919C211.27 71.5234 210.706 71.5975 210.228 71.7456C209.749 71.8937 209.356 72.1045 209.048 72.3779C208.741 72.64 208.513 72.9476 208.365 73.3008C208.228 73.654 208.16 74.0413 208.16 74.4629C208.16 74.8844 208.257 75.2661 208.45 75.6079C208.644 75.9383 208.923 76.2004 209.288 76.394C209.652 76.5763 210.079 76.6675 210.569 76.6675C211.31 76.6675 211.954 76.5194 212.5 76.2231C213.047 75.9269 213.469 75.5623 213.765 75.1294C214.073 74.6965 214.232 74.2863 214.244 73.8989L215.542 75.9839C215.36 76.451 215.11 76.9352 214.791 77.4365C214.483 77.9378 214.09 78.4106 213.611 78.855C213.133 79.2879 212.557 79.6468 211.885 79.9316C211.213 80.2051 210.416 80.3418 209.493 80.3418C208.319 80.3418 207.254 80.1082 206.297 79.6411C205.351 79.1626 204.599 78.5075 204.041 77.6758C203.494 76.8327 203.221 75.8757 203.221 74.8047C203.221 73.8363 203.403 72.9761 203.768 72.2241C204.132 71.4722 204.668 70.8398 205.374 70.3271C206.092 69.8031 206.986 69.41 208.057 69.1479C209.128 68.8745 210.37 68.7378 211.783 68.7378H214.637ZM227.659 65.3369V80H222.72V61.5088H227.352L227.659 65.3369ZM226.976 70.105H225.608C225.608 68.8175 225.762 67.6326 226.07 66.5503C226.389 65.4565 226.85 64.5109 227.454 63.7134C228.069 62.9045 228.827 62.2778 229.727 61.8335C230.627 61.3892 231.67 61.167 232.854 61.167C233.675 61.167 234.427 61.2923 235.11 61.543C235.794 61.7822 236.381 62.1639 236.871 62.688C237.372 63.2007 237.759 63.8729 238.033 64.7046C238.306 65.5249 238.443 66.5104 238.443 67.6611V80H233.521V68.208C233.521 67.3649 233.407 66.7155 233.179 66.2598C232.951 65.804 232.627 65.485 232.205 65.3027C231.795 65.1204 231.299 65.0293 230.718 65.0293C230.08 65.0293 229.522 65.1603 229.043 65.4224C228.576 65.6844 228.189 66.049 227.881 66.5161C227.574 66.9718 227.346 67.5073 227.198 68.1226C227.05 68.7378 226.976 69.3986 226.976 70.105ZM237.981 69.541L236.221 69.7632C236.221 68.5555 236.369 67.4333 236.666 66.3965C236.973 65.3597 237.423 64.4482 238.016 63.6621C238.619 62.876 239.366 62.2664 240.254 61.8335C241.143 61.3892 242.168 61.167 243.331 61.167C244.219 61.167 245.028 61.298 245.757 61.5601C246.486 61.8107 247.107 62.2152 247.62 62.7734C248.144 63.3203 248.543 64.0381 248.816 64.9268C249.101 65.8154 249.244 66.9035 249.244 68.1909V80H244.305V68.1909C244.305 67.3364 244.191 66.687 243.963 66.2427C243.746 65.7869 243.427 65.4736 243.006 65.3027C242.596 65.1204 242.106 65.0293 241.536 65.0293C240.944 65.0293 240.425 65.1489 239.981 65.3882C239.537 65.616 239.166 65.9351 238.87 66.3452C238.574 66.7554 238.352 67.2339 238.204 67.7808C238.056 68.3162 237.981 68.903 237.981 69.541Z" fill="#888888"/>
<rect x="92" y="181" width="1179" height="80" rx="13.3333" fill="#CCCCCC"/>
<rect x="107" y="196.333" width="208" height="49.3333" rx="4.66667" fill="#888888" stroke="#888888" stroke-width="4"/>
<path d="M150.833 213.167H156.802C157.969 213.167 158.983 213.34 159.844 213.687C160.705 214.035 161.368 214.549 161.833 215.229C162.306 215.91 162.542 216.75 162.542 217.75C162.542 218.618 162.406 219.344 162.135 219.927C161.865 220.51 161.486 220.993 161 221.375C160.521 221.75 159.962 222.059 159.323 222.302L158.125 222.979H153.115L153.094 220.156H156.802C157.267 220.156 157.653 220.073 157.958 219.906C158.264 219.74 158.493 219.503 158.646 219.198C158.806 218.885 158.885 218.514 158.885 218.083C158.885 217.646 158.806 217.271 158.646 216.958C158.486 216.646 158.25 216.406 157.937 216.24C157.632 216.073 157.253 215.99 156.802 215.99H154.49V228.333H150.833V213.167ZM159.135 228.333L155.781 221.625L159.656 221.604L163.052 228.177V228.333H159.135ZM170.042 228.542C169.125 228.542 168.306 228.399 167.583 228.115C166.861 227.823 166.25 227.424 165.75 226.917C165.257 226.41 164.878 225.826 164.615 225.167C164.358 224.507 164.229 223.809 164.229 223.073V222.677C164.229 221.851 164.344 221.087 164.573 220.385C164.802 219.677 165.142 219.059 165.594 218.531C166.045 218.003 166.611 217.594 167.292 217.302C167.972 217.003 168.764 216.854 169.667 216.854C170.465 216.854 171.181 216.983 171.813 217.24C172.444 217.497 172.979 217.865 173.417 218.344C173.861 218.823 174.198 219.403 174.427 220.083C174.663 220.764 174.781 221.528 174.781 222.375V223.802H165.573V221.604H171.354V221.333C171.361 220.958 171.295 220.639 171.156 220.375C171.024 220.111 170.83 219.91 170.573 219.771C170.316 219.632 170.003 219.562 169.635 219.562C169.253 219.562 168.938 219.646 168.688 219.812C168.444 219.979 168.253 220.208 168.115 220.5C167.983 220.785 167.889 221.115 167.833 221.49C167.778 221.865 167.75 222.26 167.75 222.677V223.073C167.75 223.49 167.806 223.868 167.917 224.208C168.035 224.549 168.201 224.84 168.417 225.083C168.639 225.319 168.903 225.503 169.208 225.635C169.521 225.767 169.875 225.833 170.271 225.833C170.75 225.833 171.222 225.743 171.688 225.562C172.153 225.382 172.552 225.083 172.885 224.667L174.479 226.562C174.25 226.889 173.924 227.205 173.5 227.51C173.083 227.816 172.583 228.066 172 228.26C171.417 228.448 170.764 228.542 170.042 228.542ZM182.063 225.5V220.854C182.063 220.535 182.017 220.26 181.927 220.031C181.837 219.802 181.694 219.625 181.5 219.5C181.306 219.368 181.045 219.302 180.719 219.302C180.455 219.302 180.229 219.347 180.042 219.437C179.854 219.528 179.712 219.663 179.615 219.844C179.517 220.024 179.469 220.253 179.469 220.531H175.958C175.958 220.01 176.073 219.528 176.302 219.083C176.538 218.632 176.872 218.24 177.302 217.906C177.74 217.573 178.26 217.316 178.865 217.135C179.476 216.948 180.156 216.854 180.906 216.854C181.802 216.854 182.601 217.003 183.302 217.302C184.01 217.601 184.569 218.049 184.979 218.646C185.389 219.236 185.594 219.979 185.594 220.875V225.49C185.594 226.226 185.635 226.785 185.719 227.167C185.802 227.542 185.92 227.872 186.073 228.156V228.333H182.552C182.385 227.986 182.26 227.562 182.177 227.062C182.101 226.556 182.063 226.035 182.063 225.5ZM182.49 221.448L182.51 223.323H180.958C180.632 223.323 180.354 223.368 180.125 223.458C179.903 223.549 179.722 223.674 179.583 223.833C179.451 223.986 179.354 224.16 179.292 224.354C179.236 224.549 179.208 224.753 179.208 224.969C179.208 225.177 179.257 225.365 179.354 225.531C179.458 225.691 179.597 225.816 179.771 225.906C179.944 225.997 180.139 226.042 180.354 226.042C180.743 226.042 181.073 225.969 181.344 225.823C181.622 225.67 181.833 225.486 181.979 225.271C182.125 225.056 182.198 224.854 182.198 224.667L182.969 226.104C182.83 226.382 182.67 226.663 182.49 226.948C182.316 227.233 182.097 227.497 181.833 227.74C181.576 227.976 181.26 228.17 180.885 228.323C180.51 228.469 180.056 228.542 179.521 228.542C178.826 228.542 178.188 228.399 177.604 228.115C177.028 227.83 176.566 227.434 176.219 226.927C175.872 226.413 175.698 225.823 175.698 225.156C175.698 224.573 175.802 224.052 176.01 223.594C176.226 223.135 176.549 222.747 176.979 222.427C177.41 222.108 177.958 221.865 178.625 221.698C179.292 221.531 180.076 221.448 180.979 221.448H182.49ZM192.302 225.833C192.628 225.833 192.906 225.774 193.135 225.656C193.372 225.531 193.549 225.358 193.667 225.135C193.792 224.906 193.851 224.632 193.844 224.312H197.146C197.153 225.16 196.944 225.903 196.521 226.542C196.104 227.174 195.535 227.667 194.812 228.021C194.097 228.368 193.288 228.542 192.385 228.542C191.503 228.542 190.733 228.399 190.073 228.115C189.413 227.823 188.861 227.42 188.417 226.906C187.979 226.385 187.649 225.778 187.427 225.083C187.212 224.389 187.104 223.635 187.104 222.823V222.583C187.104 221.771 187.212 221.017 187.427 220.323C187.649 219.622 187.979 219.014 188.417 218.5C188.861 217.979 189.41 217.576 190.062 217.292C190.722 217 191.49 216.854 192.365 216.854C193.302 216.854 194.128 217.031 194.844 217.385C195.566 217.74 196.132 218.253 196.542 218.927C196.951 219.601 197.153 220.417 197.146 221.375H193.844C193.851 221.035 193.799 220.729 193.687 220.458C193.576 220.187 193.403 219.972 193.167 219.812C192.937 219.646 192.642 219.562 192.281 219.562C191.92 219.562 191.628 219.642 191.406 219.802C191.184 219.962 191.014 220.184 190.896 220.469C190.785 220.747 190.708 221.066 190.667 221.427C190.632 221.788 190.615 222.174 190.615 222.583V222.823C190.615 223.24 190.632 223.632 190.667 224C190.708 224.361 190.788 224.681 190.906 224.958C191.024 225.229 191.194 225.444 191.417 225.604C191.639 225.757 191.934 225.833 192.302 225.833ZM204.583 217.062V219.5H197.792V217.062H204.583ZM199.219 214.26H202.729V224.656C202.729 224.955 202.764 225.187 202.833 225.354C202.903 225.514 203.021 225.628 203.188 225.698C203.361 225.76 203.59 225.792 203.875 225.792C204.076 225.792 204.243 225.788 204.375 225.781C204.507 225.767 204.632 225.75 204.75 225.729V228.24C204.451 228.337 204.139 228.41 203.813 228.458C203.486 228.514 203.139 228.542 202.771 228.542C202.021 228.542 201.378 228.424 200.844 228.187C200.316 227.951 199.913 227.58 199.635 227.073C199.358 226.566 199.219 225.906 199.219 225.094V214.26ZM224.125 213.167V228.333H220.479L215.115 218.896V228.333H211.458V213.167H215.115L220.479 222.604V213.167H224.125ZM232.125 225.5V220.854C232.125 220.535 232.08 220.26 231.99 220.031C231.899 219.802 231.757 219.625 231.563 219.5C231.368 219.368 231.108 219.302 230.781 219.302C230.517 219.302 230.292 219.347 230.104 219.437C229.917 219.528 229.774 219.663 229.677 219.844C229.58 220.024 229.531 220.253 229.531 220.531H226.021C226.021 220.01 226.135 219.528 226.365 219.083C226.601 218.632 226.934 218.24 227.365 217.906C227.802 217.573 228.323 217.316 228.927 217.135C229.538 216.948 230.219 216.854 230.969 216.854C231.865 216.854 232.663 217.003 233.365 217.302C234.073 217.601 234.632 218.049 235.042 218.646C235.451 219.236 235.656 219.979 235.656 220.875V225.49C235.656 226.226 235.698 226.785 235.781 227.167C235.865 227.542 235.983 227.872 236.135 228.156V228.333H232.615C232.448 227.986 232.323 227.562 232.24 227.062C232.163 226.556 232.125 226.035 232.125 225.5ZM232.552 221.448L232.573 223.323H231.021C230.694 223.323 230.417 223.368 230.188 223.458C229.965 223.549 229.785 223.674 229.646 223.833C229.514 223.986 229.417 224.16 229.354 224.354C229.299 224.549 229.271 224.753 229.271 224.969C229.271 225.177 229.319 225.365 229.417 225.531C229.521 225.691 229.66 225.816 229.833 225.906C230.007 225.997 230.201 226.042 230.417 226.042C230.806 226.042 231.135 225.969 231.406 225.823C231.684 225.67 231.896 225.486 232.042 225.271C232.188 225.056 232.26 224.854 232.26 224.667L233.031 226.104C232.892 226.382 232.733 226.663 232.552 226.948C232.378 227.233 232.16 227.497 231.896 227.74C231.639 227.976 231.323 228.17 230.948 228.323C230.573 228.469 230.118 228.542 229.583 228.542C228.889 228.542 228.25 228.399 227.667 228.115C227.09 227.83 226.628 227.434 226.281 226.927C225.934 226.413 225.76 225.823 225.76 225.156C225.76 224.573 225.865 224.052 226.073 223.594C226.288 223.135 226.611 222.747 227.042 222.427C227.472 222.108 228.021 221.865 228.688 221.698C229.354 221.531 230.139 221.448 231.042 221.448H232.552ZM243.542 217.062V219.5H236.75V217.062H243.542ZM238.177 214.26H241.687V224.656C241.687 224.955 241.722 225.187 241.792 225.354C241.861 225.514 241.979 225.628 242.146 225.698C242.319 225.76 242.549 225.792 242.833 225.792C243.035 225.792 243.201 225.788 243.333 225.781C243.465 225.767 243.59 225.75 243.708 225.729V228.24C243.41 228.337 243.097 228.41 242.771 228.458C242.444 228.514 242.097 228.542 241.729 228.542C240.979 228.542 240.337 228.424 239.802 228.187C239.274 227.951 238.872 227.58 238.594 227.073C238.316 226.566 238.177 225.906 238.177 225.094V214.26ZM248.646 217.062V228.333H245.125V217.062H248.646ZM244.917 214.156C244.917 213.656 245.097 213.247 245.458 212.927C245.819 212.608 246.288 212.448 246.865 212.448C247.441 212.448 247.91 212.608 248.271 212.927C248.632 213.247 248.813 213.656 248.813 214.156C248.813 214.656 248.632 215.066 248.271 215.385C247.91 215.705 247.441 215.865 246.865 215.865C246.288 215.865 245.819 215.705 245.458 215.385C245.097 215.066 244.917 214.656 244.917 214.156ZM254.875 225.927L257.094 217.062H260.792L257.104 228.333H254.917L254.875 225.927ZM253.563 217.062L255.75 225.927L255.729 228.333H253.531L249.854 217.062H253.563ZM267.146 228.542C266.229 228.542 265.41 228.399 264.688 228.115C263.965 227.823 263.354 227.424 262.854 226.917C262.361 226.41 261.983 225.826 261.719 225.167C261.462 224.507 261.333 223.809 261.333 223.073V222.677C261.333 221.851 261.448 221.087 261.677 220.385C261.906 219.677 262.247 219.059 262.698 218.531C263.149 218.003 263.715 217.594 264.396 217.302C265.076 217.003 265.868 216.854 266.771 216.854C267.569 216.854 268.285 216.983 268.917 217.24C269.549 217.497 270.083 217.865 270.521 218.344C270.965 218.823 271.302 219.403 271.531 220.083C271.767 220.764 271.885 221.528 271.885 222.375V223.802H262.677V221.604H268.458V221.333C268.465 220.958 268.399 220.639 268.26 220.375C268.128 220.111 267.934 219.91 267.677 219.771C267.42 219.632 267.108 219.562 266.74 219.562C266.358 219.562 266.042 219.646 265.792 219.812C265.549 219.979 265.358 220.208 265.219 220.5C265.087 220.785 264.993 221.115 264.938 221.49C264.882 221.865 264.854 222.26 264.854 222.677V223.073C264.854 223.49 264.91 223.868 265.021 224.208C265.139 224.549 265.306 224.84 265.521 225.083C265.743 225.319 266.007 225.503 266.313 225.635C266.625 225.767 266.979 225.833 267.375 225.833C267.854 225.833 268.326 225.743 268.792 225.562C269.257 225.382 269.656 225.083 269.99 224.667L271.583 226.562C271.354 226.889 271.028 227.205 270.604 227.51C270.188 227.816 269.688 228.066 269.104 228.26C268.521 228.448 267.868 228.542 267.146 228.542Z" fill="white"/>
<rect x="339" y="196.333" width="208" height="49.3333" rx="4.66667" fill="#888888" stroke="#888888" stroke-width="4"/>
<path d="M419.937 213.167V228.333H416.292L410.927 218.896V228.333H407.271V213.167H410.927L416.292 222.604V213.167H419.937ZM421.646 222.812V222.594C421.646 221.767 421.764 221.007 422 220.312C422.236 219.611 422.583 219.003 423.042 218.49C423.5 217.976 424.066 217.576 424.74 217.292C425.413 217 426.191 216.854 427.073 216.854C427.962 216.854 428.743 217 429.417 217.292C430.097 217.576 430.667 217.976 431.125 218.49C431.583 219.003 431.931 219.611 432.167 220.312C432.403 221.007 432.521 221.767 432.521 222.594V222.812C432.521 223.632 432.403 224.392 432.167 225.094C431.931 225.788 431.583 226.396 431.125 226.917C430.667 227.431 430.101 227.83 429.427 228.115C428.753 228.399 427.976 228.542 427.094 228.542C426.212 228.542 425.431 228.399 424.75 228.115C424.069 227.83 423.5 227.431 423.042 226.917C422.583 226.396 422.236 225.788 422 225.094C421.764 224.392 421.646 223.632 421.646 222.812ZM425.156 222.594V222.812C425.156 223.236 425.187 223.632 425.25 224C425.312 224.368 425.417 224.691 425.562 224.969C425.708 225.24 425.906 225.451 426.156 225.604C426.406 225.757 426.719 225.833 427.094 225.833C427.462 225.833 427.767 225.757 428.01 225.604C428.26 225.451 428.458 225.24 428.604 224.969C428.75 224.691 428.854 224.368 428.917 224C428.979 223.632 429.01 223.236 429.01 222.812V222.594C429.01 222.184 428.979 221.799 428.917 221.437C428.854 221.069 428.75 220.747 428.604 220.469C428.458 220.184 428.26 219.962 428.01 219.802C427.76 219.642 427.448 219.562 427.073 219.562C426.705 219.562 426.396 219.642 426.146 219.802C425.903 219.962 425.708 220.184 425.562 220.469C425.417 220.747 425.312 221.069 425.25 221.437C425.187 221.799 425.156 222.184 425.156 222.594ZM440.563 225.75V212.333H444.094V228.333H440.927L440.563 225.75ZM433.646 222.833V222.615C433.646 221.76 433.74 220.983 433.927 220.281C434.115 219.573 434.392 218.965 434.76 218.458C435.128 217.944 435.587 217.549 436.135 217.271C436.684 216.993 437.316 216.854 438.031 216.854C438.67 216.854 439.229 217.003 439.708 217.302C440.188 217.594 440.597 218.003 440.938 218.531C441.278 219.059 441.556 219.677 441.771 220.385C441.986 221.087 442.149 221.844 442.26 222.656V222.917C442.149 223.681 441.986 224.403 441.771 225.083C441.556 225.757 441.278 226.354 440.938 226.875C440.597 227.396 440.184 227.806 439.698 228.104C439.219 228.396 438.656 228.542 438.01 228.542C437.295 228.542 436.663 228.399 436.115 228.115C435.573 227.83 435.118 227.431 434.75 226.917C434.389 226.403 434.115 225.799 433.927 225.104C433.74 224.41 433.646 223.653 433.646 222.833ZM437.156 222.615V222.833C437.156 223.257 437.184 223.649 437.24 224.01C437.295 224.372 437.389 224.691 437.521 224.969C437.66 225.24 437.84 225.451 438.063 225.604C438.292 225.757 438.573 225.833 438.906 225.833C439.358 225.833 439.729 225.726 440.021 225.51C440.319 225.295 440.538 224.99 440.677 224.594C440.823 224.198 440.885 223.733 440.865 223.198V222.375C440.878 221.917 440.847 221.514 440.771 221.167C440.694 220.812 440.573 220.517 440.406 220.281C440.247 220.045 440.042 219.868 439.792 219.75C439.549 219.625 439.26 219.562 438.927 219.562C438.601 219.562 438.323 219.639 438.094 219.792C437.872 219.944 437.691 220.16 437.552 220.437C437.413 220.708 437.313 221.031 437.25 221.406C437.188 221.774 437.156 222.177 437.156 222.615ZM451.542 228.542C450.625 228.542 449.806 228.399 449.083 228.115C448.361 227.823 447.75 227.424 447.25 226.917C446.757 226.41 446.378 225.826 446.115 225.167C445.858 224.507 445.729 223.809 445.729 223.073V222.677C445.729 221.851 445.844 221.087 446.073 220.385C446.302 219.677 446.642 219.059 447.094 218.531C447.545 218.003 448.111 217.594 448.792 217.302C449.472 217.003 450.264 216.854 451.167 216.854C451.965 216.854 452.681 216.983 453.313 217.24C453.944 217.497 454.479 217.865 454.917 218.344C455.361 218.823 455.698 219.403 455.927 220.083C456.163 220.764 456.281 221.528 456.281 222.375V223.802H447.073V221.604H452.854V221.333C452.861 220.958 452.795 220.639 452.656 220.375C452.524 220.111 452.33 219.91 452.073 219.771C451.816 219.632 451.503 219.562 451.135 219.562C450.753 219.562 450.438 219.646 450.188 219.812C449.944 219.979 449.753 220.208 449.615 220.5C449.483 220.785 449.389 221.115 449.333 221.49C449.278 221.865 449.25 222.26 449.25 222.677V223.073C449.25 223.49 449.306 223.868 449.417 224.208C449.535 224.549 449.701 224.84 449.917 225.083C450.139 225.319 450.403 225.503 450.708 225.635C451.021 225.767 451.375 225.833 451.771 225.833C452.25 225.833 452.722 225.743 453.188 225.562C453.653 225.382 454.052 225.083 454.385 224.667L455.979 226.562C455.75 226.889 455.424 227.205 455 227.51C454.583 227.816 454.083 228.066 453.5 228.26C452.917 228.448 452.264 228.542 451.542 228.542ZM457.938 226.687C457.938 226.187 458.118 225.771 458.479 225.437C458.84 225.097 459.306 224.927 459.875 224.927C460.451 224.927 460.917 225.097 461.271 225.437C461.632 225.771 461.813 226.187 461.813 226.687C461.813 227.187 461.632 227.608 461.271 227.948C460.917 228.281 460.451 228.448 459.875 228.448C459.306 228.448 458.84 228.281 458.479 227.948C458.118 227.608 457.938 227.187 457.938 226.687ZM464.427 217.062H467.948V228.698C467.948 229.601 467.774 230.361 467.427 230.979C467.08 231.604 466.583 232.076 465.937 232.396C465.292 232.722 464.521 232.885 463.625 232.885C463.326 232.885 463.052 232.872 462.802 232.844C462.545 232.823 462.264 232.778 461.958 232.708V230.052C462.139 230.08 462.306 230.101 462.458 230.115C462.611 230.135 462.778 230.146 462.958 230.146C463.278 230.146 463.545 230.094 463.76 229.99C463.976 229.885 464.139 229.726 464.25 229.51C464.368 229.295 464.427 229.024 464.427 228.698V217.062ZM464.167 214.156C464.167 213.656 464.347 213.247 464.708 212.927C465.069 212.608 465.538 212.448 466.115 212.448C466.691 212.448 467.16 212.608 467.521 212.927C467.882 213.247 468.062 213.656 468.062 214.156C468.062 214.656 467.882 215.066 467.521 215.385C467.16 215.705 466.691 215.865 466.115 215.865C465.538 215.865 465.069 215.705 464.708 215.385C464.347 215.066 464.167 214.656 464.167 214.156ZM475.844 225.167C475.844 224.972 475.778 224.806 475.646 224.667C475.521 224.521 475.299 224.389 474.979 224.271C474.66 224.146 474.212 224.021 473.635 223.896C473.087 223.778 472.569 223.622 472.083 223.427C471.604 223.233 471.184 222.997 470.823 222.719C470.462 222.441 470.177 222.111 469.969 221.729C469.767 221.347 469.667 220.91 469.667 220.417C469.667 219.937 469.767 219.486 469.969 219.062C470.177 218.632 470.479 218.253 470.875 217.927C471.278 217.594 471.767 217.333 472.344 217.146C472.92 216.951 473.576 216.854 474.312 216.854C475.326 216.854 476.201 217.01 476.937 217.323C477.674 217.628 478.24 218.059 478.635 218.615C479.038 219.163 479.24 219.799 479.24 220.521H475.729C475.729 220.236 475.681 219.993 475.583 219.792C475.493 219.59 475.344 219.437 475.135 219.333C474.927 219.222 474.649 219.167 474.302 219.167C474.059 219.167 473.837 219.212 473.635 219.302C473.441 219.392 473.285 219.517 473.167 219.677C473.049 219.837 472.99 220.024 472.99 220.24C472.99 220.392 473.024 220.531 473.094 220.656C473.17 220.774 473.285 220.885 473.437 220.99C473.59 221.087 473.785 221.177 474.021 221.26C474.257 221.337 474.542 221.406 474.875 221.469C475.632 221.608 476.34 221.806 477 222.062C477.66 222.319 478.194 222.684 478.604 223.156C479.021 223.628 479.229 224.264 479.229 225.062C479.229 225.562 479.115 226.024 478.885 226.448C478.656 226.865 478.326 227.233 477.896 227.552C477.465 227.865 476.948 228.108 476.344 228.281C475.74 228.455 475.059 228.542 474.302 228.542C473.226 228.542 472.316 228.351 471.573 227.969C470.83 227.58 470.267 227.094 469.885 226.51C469.51 225.92 469.323 225.323 469.323 224.719H472.594C472.608 225.066 472.691 225.351 472.844 225.573C473.003 225.795 473.215 225.958 473.479 226.062C473.743 226.167 474.049 226.219 474.396 226.219C474.715 226.219 474.979 226.174 475.187 226.083C475.403 225.993 475.566 225.872 475.677 225.719C475.788 225.559 475.844 225.375 475.844 225.167Z" fill="white"/>
<rect x="571" y="196.333" width="208" height="49.3333" rx="4.66667" fill="#888888" stroke="#888888" stroke-width="4"/>
<path d="M636.844 225.521V228.333H628.76V225.521H636.844ZM630.063 213.167V228.333H626.406V213.167H630.063ZM635.802 219.187V221.906H628.76V219.187H635.802ZM636.875 213.167V215.99H628.76V213.167H636.875ZM641.156 217.062L642.74 220.167L644.375 217.062H648.021L645.063 222.552L648.177 228.333H644.5L642.74 225L640.99 228.333H637.313L640.427 222.552L637.479 217.062H641.156ZM652.719 219.229V232.667H649.208V217.062H652.479L652.719 219.229ZM659.635 222.562V222.781C659.635 223.601 659.542 224.361 659.354 225.062C659.167 225.764 658.889 226.375 658.521 226.896C658.153 227.417 657.694 227.823 657.146 228.115C656.604 228.399 655.976 228.542 655.26 228.542C654.587 228.542 654.007 228.392 653.521 228.094C653.035 227.795 652.628 227.382 652.302 226.854C651.976 226.326 651.712 225.722 651.51 225.042C651.309 224.361 651.149 223.642 651.031 222.885V222.604C651.149 221.792 651.309 221.038 651.51 220.344C651.712 219.642 651.976 219.031 652.302 218.51C652.628 217.99 653.031 217.583 653.51 217.292C653.997 217 654.576 216.854 655.25 216.854C655.965 216.854 656.594 216.99 657.135 217.26C657.684 217.531 658.142 217.92 658.51 218.427C658.885 218.927 659.167 219.528 659.354 220.229C659.542 220.931 659.635 221.708 659.635 222.562ZM656.125 222.781V222.562C656.125 222.125 656.094 221.726 656.031 221.365C655.969 220.997 655.868 220.677 655.729 220.406C655.597 220.135 655.42 219.927 655.198 219.781C654.976 219.635 654.701 219.562 654.375 219.562C654 219.562 653.684 219.622 653.427 219.74C653.177 219.851 652.976 220.024 652.823 220.26C652.677 220.49 652.573 220.778 652.51 221.125C652.455 221.465 652.431 221.865 652.438 222.323V223.177C652.424 223.705 652.476 224.17 652.594 224.573C652.712 224.969 652.917 225.278 653.208 225.5C653.5 225.722 653.896 225.833 654.396 225.833C654.729 225.833 655.007 225.757 655.229 225.604C655.451 225.444 655.628 225.226 655.76 224.948C655.892 224.663 655.986 224.337 656.042 223.969C656.097 223.601 656.125 223.205 656.125 222.781ZM664.74 219.854V228.333H661.229V217.062H664.51L664.74 219.854ZM668.073 216.979L668.01 220.24C667.872 220.226 667.684 220.208 667.448 220.187C667.212 220.167 667.014 220.156 666.854 220.156C666.444 220.156 666.09 220.205 665.792 220.302C665.5 220.392 665.257 220.531 665.063 220.719C664.875 220.899 664.736 221.128 664.646 221.406C664.563 221.684 664.524 222.007 664.531 222.375L663.896 221.958C663.896 221.201 663.969 220.514 664.115 219.896C664.267 219.271 664.483 218.733 664.76 218.281C665.038 217.823 665.375 217.472 665.771 217.229C666.167 216.979 666.611 216.854 667.104 216.854C667.278 216.854 667.448 216.865 667.615 216.885C667.788 216.906 667.941 216.937 668.073 216.979ZM674.531 228.542C673.615 228.542 672.795 228.399 672.073 228.115C671.351 227.823 670.74 227.424 670.24 226.917C669.747 226.41 669.368 225.826 669.104 225.167C668.847 224.507 668.719 223.809 668.719 223.073V222.677C668.719 221.851 668.833 221.087 669.063 220.385C669.292 219.677 669.632 219.059 670.083 218.531C670.535 218.003 671.101 217.594 671.781 217.302C672.462 217.003 673.253 216.854 674.156 216.854C674.955 216.854 675.67 216.983 676.302 217.24C676.934 217.497 677.469 217.865 677.906 218.344C678.351 218.823 678.688 219.403 678.917 220.083C679.153 220.764 679.271 221.528 679.271 222.375V223.802H670.063V221.604H675.844V221.333C675.851 220.958 675.785 220.639 675.646 220.375C675.514 220.111 675.319 219.91 675.063 219.771C674.806 219.632 674.493 219.562 674.125 219.562C673.743 219.562 673.427 219.646 673.177 219.812C672.934 219.979 672.743 220.208 672.604 220.5C672.472 220.785 672.378 221.115 672.323 221.49C672.267 221.865 672.24 222.26 672.24 222.677V223.073C672.24 223.49 672.295 223.868 672.406 224.208C672.524 224.549 672.691 224.84 672.906 225.083C673.128 225.319 673.392 225.503 673.698 225.635C674.01 225.767 674.365 225.833 674.76 225.833C675.24 225.833 675.712 225.743 676.177 225.562C676.642 225.382 677.042 225.083 677.375 224.667L678.969 226.562C678.74 226.889 678.413 227.205 677.99 227.51C677.573 227.816 677.073 228.066 676.49 228.26C675.906 228.448 675.253 228.542 674.531 228.542ZM686.604 225.167C686.604 224.972 686.538 224.806 686.406 224.667C686.281 224.521 686.059 224.389 685.74 224.271C685.42 224.146 684.972 224.021 684.396 223.896C683.847 223.778 683.33 223.622 682.844 223.427C682.365 223.233 681.944 222.997 681.583 222.719C681.222 222.441 680.938 222.111 680.729 221.729C680.528 221.347 680.427 220.91 680.427 220.417C680.427 219.937 680.528 219.486 680.729 219.062C680.938 218.632 681.24 218.253 681.635 217.927C682.038 217.594 682.528 217.333 683.104 217.146C683.681 216.951 684.337 216.854 685.073 216.854C686.087 216.854 686.962 217.01 687.698 217.323C688.434 217.628 689 218.059 689.396 218.615C689.799 219.163 690 219.799 690 220.521H686.49C686.49 220.236 686.441 219.993 686.344 219.792C686.253 219.59 686.104 219.437 685.896 219.333C685.688 219.222 685.41 219.167 685.063 219.167C684.819 219.167 684.597 219.212 684.396 219.302C684.201 219.392 684.045 219.517 683.927 219.677C683.809 219.837 683.75 220.024 683.75 220.24C683.75 220.392 683.785 220.531 683.854 220.656C683.931 220.774 684.045 220.885 684.198 220.99C684.351 221.087 684.545 221.177 684.781 221.26C685.017 221.337 685.302 221.406 685.635 221.469C686.392 221.608 687.101 221.806 687.76 222.062C688.42 222.319 688.955 222.684 689.365 223.156C689.781 223.628 689.99 224.264 689.99 225.062C689.99 225.562 689.875 226.024 689.646 226.448C689.417 226.865 689.087 227.233 688.656 227.552C688.226 227.865 687.708 228.108 687.104 228.281C686.5 228.455 685.819 228.542 685.063 228.542C683.986 228.542 683.076 228.351 682.333 227.969C681.59 227.58 681.028 227.094 680.646 226.51C680.271 225.92 680.083 225.323 680.083 224.719H683.354C683.368 225.066 683.451 225.351 683.604 225.573C683.764 225.795 683.976 225.958 684.24 226.062C684.503 226.167 684.809 226.219 685.156 226.219C685.476 226.219 685.74 226.174 685.948 226.083C686.163 225.993 686.326 225.872 686.438 225.719C686.549 225.559 686.604 225.375 686.604 225.167ZM697.542 225.167C697.542 224.972 697.476 224.806 697.344 224.667C697.219 224.521 696.997 224.389 696.677 224.271C696.358 224.146 695.91 224.021 695.333 223.896C694.785 223.778 694.267 223.622 693.781 223.427C693.302 223.233 692.882 222.997 692.521 222.719C692.16 222.441 691.875 222.111 691.667 221.729C691.465 221.347 691.365 220.91 691.365 220.417C691.365 219.937 691.465 219.486 691.667 219.062C691.875 218.632 692.177 218.253 692.573 217.927C692.976 217.594 693.465 217.333 694.042 217.146C694.618 216.951 695.274 216.854 696.01 216.854C697.024 216.854 697.899 217.01 698.635 217.323C699.372 217.628 699.938 218.059 700.333 218.615C700.736 219.163 700.938 219.799 700.938 220.521H697.427C697.427 220.236 697.378 219.993 697.281 219.792C697.191 219.59 697.042 219.437 696.833 219.333C696.625 219.222 696.347 219.167 696 219.167C695.757 219.167 695.535 219.212 695.333 219.302C695.139 219.392 694.983 219.517 694.865 219.677C694.747 219.837 694.688 220.024 694.688 220.24C694.688 220.392 694.722 220.531 694.792 220.656C694.868 220.774 694.983 220.885 695.135 220.99C695.288 221.087 695.483 221.177 695.719 221.26C695.955 221.337 696.24 221.406 696.573 221.469C697.33 221.608 698.038 221.806 698.698 222.062C699.358 222.319 699.892 222.684 700.302 223.156C700.719 223.628 700.927 224.264 700.927 225.062C700.927 225.562 700.813 226.024 700.583 226.448C700.354 226.865 700.024 227.233 699.594 227.552C699.163 227.865 698.646 228.108 698.042 228.281C697.438 228.455 696.757 228.542 696 228.542C694.924 228.542 694.014 228.351 693.271 227.969C692.528 227.58 691.965 227.094 691.583 226.51C691.208 225.92 691.021 225.323 691.021 224.719H694.292C694.306 225.066 694.389 225.351 694.542 225.573C694.701 225.795 694.913 225.958 695.177 226.062C695.441 226.167 695.747 226.219 696.094 226.219C696.413 226.219 696.677 226.174 696.885 226.083C697.101 225.993 697.264 225.872 697.375 225.719C697.486 225.559 697.542 225.375 697.542 225.167ZM702.802 226.687C702.802 226.187 702.983 225.771 703.344 225.437C703.705 225.097 704.17 224.927 704.74 224.927C705.316 224.927 705.781 225.097 706.135 225.437C706.497 225.771 706.677 226.187 706.677 226.687C706.677 227.187 706.497 227.608 706.135 227.948C705.781 228.281 705.316 228.448 704.74 228.448C704.17 228.448 703.705 228.281 703.344 227.948C702.983 227.608 702.802 227.187 702.802 226.687ZM709.292 217.062H712.812V228.698C712.812 229.601 712.639 230.361 712.292 230.979C711.944 231.604 711.448 232.076 710.802 232.396C710.156 232.722 709.385 232.885 708.49 232.885C708.191 232.885 707.917 232.872 707.667 232.844C707.41 232.823 707.128 232.778 706.823 232.708V230.052C707.003 230.08 707.17 230.101 707.323 230.115C707.476 230.135 707.642 230.146 707.823 230.146C708.142 230.146 708.41 230.094 708.625 229.99C708.84 229.885 709.003 229.726 709.115 229.51C709.233 229.295 709.292 229.024 709.292 228.698V217.062ZM709.031 214.156C709.031 213.656 709.212 213.247 709.573 212.927C709.934 212.608 710.403 212.448 710.979 212.448C711.556 212.448 712.024 212.608 712.385 212.927C712.747 213.247 712.927 213.656 712.927 214.156C712.927 214.656 712.747 215.066 712.385 215.385C712.024 215.705 711.556 215.865 710.979 215.865C710.403 215.865 709.934 215.705 709.573 215.385C709.212 215.066 709.031 214.656 709.031 214.156ZM720.708 225.167C720.708 224.972 720.642 224.806 720.51 224.667C720.385 224.521 720.163 224.389 719.844 224.271C719.524 224.146 719.076 224.021 718.5 223.896C717.951 223.778 717.434 223.622 716.948 223.427C716.469 223.233 716.049 222.997 715.688 222.719C715.326 222.441 715.042 222.111 714.833 221.729C714.632 221.347 714.531 220.91 714.531 220.417C714.531 219.937 714.632 219.486 714.833 219.062C715.042 218.632 715.344 218.253 715.74 217.927C716.142 217.594 716.632 217.333 717.208 217.146C717.785 216.951 718.441 216.854 719.177 216.854C720.191 216.854 721.066 217.01 721.802 217.323C722.538 217.628 723.104 218.059 723.5 218.615C723.903 219.163 724.104 219.799 724.104 220.521H720.594C720.594 220.236 720.545 219.993 720.448 219.792C720.358 219.59 720.208 219.437 720 219.333C719.792 219.222 719.514 219.167 719.167 219.167C718.924 219.167 718.701 219.212 718.5 219.302C718.306 219.392 718.149 219.517 718.031 219.677C717.913 219.837 717.854 220.024 717.854 220.24C717.854 220.392 717.889 220.531 717.958 220.656C718.035 220.774 718.149 220.885 718.302 220.99C718.455 221.087 718.649 221.177 718.885 221.26C719.122 221.337 719.406 221.406 719.74 221.469C720.497 221.608 721.205 221.806 721.865 222.062C722.524 222.319 723.059 222.684 723.469 223.156C723.885 223.628 724.094 224.264 724.094 225.062C724.094 225.562 723.979 226.024 723.75 226.448C723.521 226.865 723.191 227.233 722.76 227.552C722.33 227.865 721.813 228.108 721.208 228.281C720.604 228.455 719.924 228.542 719.167 228.542C718.09 228.542 717.181 228.351 716.438 227.969C715.694 227.58 715.132 227.094 714.75 226.51C714.375 225.92 714.188 225.323 714.188 224.719H717.458C717.472 225.066 717.556 225.351 717.708 225.573C717.868 225.795 718.08 225.958 718.344 226.062C718.608 226.167 718.913 226.219 719.26 226.219C719.58 226.219 719.844 226.174 720.052 226.083C720.267 225.993 720.431 225.872 720.542 225.719C720.653 225.559 720.708 225.375 720.708 225.167Z" fill="white"/>
<rect x="803" y="196.333" width="208" height="49.3333" rx="4.66667" fill="#888888" stroke="#888888" stroke-width="4"/>
<path d="M862.656 213.167H865.635L869.021 223.719L872.406 213.167H875.385L870.229 228.333H867.813L862.656 213.167ZM860.844 213.167H863.927L864.5 224.792V228.333H860.844V213.167ZM874.115 213.167H877.208V228.333H873.542V224.792L874.115 213.167ZM878.948 222.812V222.594C878.948 221.767 879.066 221.007 879.302 220.312C879.538 219.611 879.885 219.003 880.344 218.49C880.802 217.976 881.368 217.576 882.042 217.292C882.715 217 883.493 216.854 884.375 216.854C885.264 216.854 886.045 217 886.719 217.292C887.399 217.576 887.969 217.976 888.427 218.49C888.885 219.003 889.233 219.611 889.469 220.312C889.705 221.007 889.823 221.767 889.823 222.594V222.812C889.823 223.632 889.705 224.392 889.469 225.094C889.233 225.788 888.885 226.396 888.427 226.917C887.969 227.431 887.403 227.83 886.729 228.115C886.056 228.399 885.278 228.542 884.396 228.542C883.514 228.542 882.733 228.399 882.052 228.115C881.372 227.83 880.802 227.431 880.344 226.917C879.885 226.396 879.538 225.788 879.302 225.094C879.066 224.392 878.948 223.632 878.948 222.812ZM882.458 222.594V222.812C882.458 223.236 882.49 223.632 882.552 224C882.615 224.368 882.719 224.691 882.865 224.969C883.01 225.24 883.208 225.451 883.458 225.604C883.708 225.757 884.021 225.833 884.396 225.833C884.764 225.833 885.069 225.757 885.313 225.604C885.563 225.451 885.76 225.24 885.906 224.969C886.052 224.691 886.156 224.368 886.219 224C886.281 223.632 886.313 223.236 886.313 222.812V222.594C886.313 222.184 886.281 221.799 886.219 221.437C886.156 221.069 886.052 220.747 885.906 220.469C885.76 220.184 885.563 219.962 885.313 219.802C885.063 219.642 884.75 219.562 884.375 219.562C884.007 219.562 883.698 219.642 883.448 219.802C883.205 219.962 883.01 220.184 882.865 220.469C882.719 220.747 882.615 221.069 882.552 221.437C882.49 221.799 882.458 222.184 882.458 222.594ZM894.833 219.469V228.333H891.323V217.062H894.615L894.833 219.469ZM894.417 222.312L893.594 222.333C893.594 221.472 893.698 220.705 893.906 220.031C894.115 219.351 894.41 218.774 894.792 218.302C895.174 217.83 895.628 217.472 896.156 217.229C896.691 216.979 897.285 216.854 897.938 216.854C898.458 216.854 898.934 216.931 899.365 217.083C899.802 217.236 900.177 217.483 900.49 217.823C900.809 218.163 901.052 218.615 901.219 219.177C901.392 219.733 901.479 220.42 901.479 221.24V228.333H897.948V221.229C897.948 220.778 897.885 220.434 897.76 220.198C897.635 219.955 897.455 219.788 897.219 219.698C896.983 219.608 896.694 219.562 896.354 219.562C895.993 219.562 895.688 219.632 895.438 219.771C895.188 219.91 894.986 220.104 894.833 220.354C894.688 220.597 894.58 220.885 894.51 221.219C894.448 221.552 894.417 221.917 894.417 222.312ZM910.51 217.062H913.698V227.896C913.698 228.937 913.458 229.819 912.979 230.542C912.5 231.271 911.83 231.823 910.969 232.198C910.115 232.58 909.115 232.771 907.969 232.771C907.462 232.771 906.944 232.705 906.417 232.573C905.889 232.448 905.396 232.26 904.938 232.01C904.479 231.76 904.094 231.451 903.781 231.083L905.25 229.021C905.535 229.34 905.892 229.611 906.323 229.833C906.753 230.062 907.26 230.177 907.844 230.177C908.351 230.177 908.774 230.087 909.115 229.906C909.462 229.726 909.726 229.462 909.906 229.115C910.087 228.774 910.177 228.361 910.177 227.875V219.729L910.51 217.062ZM903.021 222.833V222.615C903.021 221.76 903.125 220.983 903.333 220.281C903.549 219.573 903.854 218.965 904.25 218.458C904.653 217.944 905.139 217.549 905.708 217.271C906.278 216.993 906.92 216.854 907.635 216.854C908.406 216.854 909.038 217.003 909.531 217.302C910.031 217.594 910.431 218.003 910.729 218.531C911.035 219.059 911.271 219.677 911.438 220.385C911.611 221.087 911.757 221.844 911.875 222.656V222.917C911.757 223.681 911.594 224.403 911.385 225.083C911.184 225.757 910.92 226.354 910.594 226.875C910.267 227.396 909.858 227.806 909.365 228.104C908.878 228.396 908.295 228.542 907.615 228.542C906.906 228.542 906.267 228.399 905.698 228.115C905.135 227.83 904.653 227.431 904.25 226.917C903.854 226.403 903.549 225.799 903.333 225.104C903.125 224.41 903.021 223.653 903.021 222.833ZM906.531 222.615V222.833C906.531 223.257 906.569 223.649 906.646 224.01C906.729 224.372 906.854 224.691 907.021 224.969C907.188 225.24 907.392 225.451 907.635 225.604C907.885 225.757 908.177 225.833 908.51 225.833C909.017 225.833 909.427 225.726 909.74 225.51C910.052 225.295 910.278 224.99 910.417 224.594C910.556 224.198 910.615 223.733 910.594 223.198V222.375C910.608 221.917 910.576 221.514 910.5 221.167C910.424 220.812 910.302 220.517 910.135 220.281C909.976 220.045 909.76 219.868 909.49 219.75C909.226 219.625 908.906 219.562 908.531 219.562C908.205 219.562 907.917 219.639 907.667 219.792C907.417 219.944 907.208 220.16 907.042 220.437C906.875 220.708 906.747 221.031 906.656 221.406C906.573 221.774 906.531 222.177 906.531 222.615ZM915.281 222.812V222.594C915.281 221.767 915.399 221.007 915.635 220.312C915.872 219.611 916.219 219.003 916.677 218.49C917.135 217.976 917.701 217.576 918.375 217.292C919.049 217 919.826 216.854 920.708 216.854C921.597 216.854 922.378 217 923.052 217.292C923.733 217.576 924.302 217.976 924.76 218.49C925.219 219.003 925.566 219.611 925.802 220.312C926.038 221.007 926.156 221.767 926.156 222.594V222.812C926.156 223.632 926.038 224.392 925.802 225.094C925.566 225.788 925.219 226.396 924.76 226.917C924.302 227.431 923.736 227.83 923.063 228.115C922.389 228.399 921.611 228.542 920.729 228.542C919.847 228.542 919.066 228.399 918.385 228.115C917.705 227.83 917.135 227.431 916.677 226.917C916.219 226.396 915.872 225.788 915.635 225.094C915.399 224.392 915.281 223.632 915.281 222.812ZM918.792 222.594V222.812C918.792 223.236 918.823 223.632 918.885 224C918.948 224.368 919.052 224.691 919.198 224.969C919.344 225.24 919.542 225.451 919.792 225.604C920.042 225.757 920.354 225.833 920.729 225.833C921.097 225.833 921.403 225.757 921.646 225.604C921.896 225.451 922.094 225.24 922.24 224.969C922.385 224.691 922.49 224.368 922.552 224C922.615 223.632 922.646 223.236 922.646 222.812V222.594C922.646 222.184 922.615 221.799 922.552 221.437C922.49 221.069 922.385 220.747 922.24 220.469C922.094 220.184 921.896 219.962 921.646 219.802C921.396 219.642 921.083 219.562 920.708 219.562C920.34 219.562 920.031 219.642 919.781 219.802C919.538 219.962 919.344 220.184 919.198 220.469C919.052 220.747 918.948 221.069 918.885 221.437C918.823 221.799 918.792 222.184 918.792 222.594ZM932.813 228.333H929.448L929.469 225.521H932.813C933.507 225.521 934.094 225.354 934.573 225.021C935.059 224.687 935.427 224.191 935.677 223.531C935.934 222.865 936.063 222.045 936.063 221.073V220.417C936.063 219.687 935.99 219.049 935.844 218.5C935.705 217.944 935.497 217.483 935.219 217.115C934.941 216.74 934.594 216.458 934.177 216.271C933.767 216.083 933.295 215.99 932.76 215.99H929.385V213.167H932.76C933.788 213.167 934.729 213.344 935.583 213.698C936.444 214.045 937.188 214.545 937.813 215.198C938.444 215.844 938.931 216.611 939.271 217.5C939.618 218.382 939.792 219.361 939.792 220.437V221.073C939.792 222.142 939.618 223.122 939.271 224.01C938.931 224.899 938.448 225.667 937.823 226.312C937.198 226.958 936.458 227.458 935.604 227.812C934.757 228.16 933.826 228.333 932.813 228.333ZM931.542 213.167V228.333H927.885V213.167H931.542ZM947.885 221.885H943.979L943.958 219.49H947.125C947.694 219.49 948.149 219.427 948.49 219.302C948.83 219.17 949.076 218.979 949.229 218.729C949.389 218.479 949.469 218.167 949.469 217.792C949.469 217.361 949.389 217.014 949.229 216.75C949.069 216.486 948.816 216.295 948.469 216.177C948.128 216.052 947.688 215.99 947.146 215.99H945.354V228.333H941.698V213.167H947.146C948.083 213.167 948.92 213.253 949.656 213.427C950.392 213.594 951.017 213.851 951.531 214.198C952.052 214.545 952.448 214.983 952.719 215.51C952.99 216.031 953.125 216.646 953.125 217.354C953.125 217.972 952.993 218.552 952.729 219.094C952.465 219.635 952.024 220.076 951.406 220.417C950.795 220.75 949.958 220.924 948.896 220.937L947.885 221.885ZM947.74 228.333H943.094L944.344 225.521H947.74C948.24 225.521 948.639 225.444 948.938 225.292C949.243 225.132 949.462 224.924 949.594 224.667C949.733 224.403 949.802 224.111 949.802 223.792C949.802 223.403 949.736 223.066 949.604 222.781C949.479 222.497 949.278 222.278 949 222.125C948.722 221.965 948.351 221.885 947.885 221.885H944.813L944.833 219.49H948.51L949.365 220.448C950.378 220.406 951.181 220.549 951.771 220.875C952.368 221.201 952.795 221.632 953.052 222.167C953.309 222.701 953.438 223.26 953.438 223.844C953.438 224.837 953.222 225.667 952.792 226.333C952.368 227 951.733 227.5 950.885 227.833C950.038 228.167 948.99 228.333 947.74 228.333Z" fill="white"/>
</svg>
