<svg width="1363" height="167" viewBox="0 0 1363 167" fill="none" xmlns="http://www.w3.org/2000/svg">
<rect width="1363" height="167" rx="15" fill="#F0F0F0"/>
<path d="M0 15C0 6.71573 6.71573 0 15 0H37V167H15C6.71573 167 0 160.284 0 152V15Z" fill="#424241"/>
<path d="M100.906 54.9219L93.3945 52.2383V49.0859L103.602 53.375V55.6367L100.906 54.9219ZM93.3945 57.1719L100.918 54.4297L103.602 53.7852V56.0352L93.3945 60.3242V57.1719ZM118.543 55.918H114.195V53.1758H118.543C119.215 53.1758 119.762 53.0664 120.184 52.8477C120.605 52.6211 120.914 52.3086 121.109 51.9102C121.305 51.5117 121.402 51.0625 121.402 50.5625C121.402 50.0547 121.305 49.582 121.109 49.1445C120.914 48.707 120.605 48.3555 120.184 48.0898C119.762 47.8242 119.215 47.6914 118.543 47.6914H115.414V62H111.898V44.9375H118.543C119.879 44.9375 121.023 45.1797 121.977 45.6641C122.938 46.1406 123.672 46.8008 124.18 47.6445C124.688 48.4883 124.941 49.4531 124.941 50.5391C124.941 51.6406 124.688 52.5938 124.18 53.3984C123.672 54.2031 122.938 54.8242 121.977 55.2617C121.023 55.6992 119.879 55.918 118.543 55.918ZM132.828 62.2344C131.844 62.2344 130.961 62.0781 130.18 61.7656C129.398 61.4453 128.734 61.0039 128.188 60.4414C127.648 59.8789 127.234 59.2266 126.945 58.4844C126.656 57.7344 126.512 56.9375 126.512 56.0938V55.625C126.512 54.6641 126.648 53.7852 126.922 52.9883C127.195 52.1914 127.586 51.5 128.094 50.9141C128.609 50.3281 129.234 49.8789 129.969 49.5664C130.703 49.2461 131.531 49.0859 132.453 49.0859C133.352 49.0859 134.148 49.2344 134.844 49.5312C135.539 49.8281 136.121 50.25 136.59 50.7969C137.066 51.3438 137.426 52 137.668 52.7656C137.91 53.5234 138.031 54.3672 138.031 55.2969V56.7031H127.953V54.4531H134.715V54.1953C134.715 53.7266 134.629 53.3086 134.457 52.9414C134.293 52.5664 134.043 52.2695 133.707 52.0508C133.371 51.832 132.941 51.7227 132.418 51.7227C131.973 51.7227 131.59 51.8203 131.27 52.0156C130.949 52.2109 130.688 52.4844 130.484 52.8359C130.289 53.1875 130.141 53.6016 130.039 54.0781C129.945 54.5469 129.898 55.0625 129.898 55.625V56.0938C129.898 56.6016 129.969 57.0703 130.109 57.5C130.258 57.9297 130.465 58.3008 130.73 58.6133C131.004 58.9258 131.332 59.168 131.715 59.3398C132.105 59.5117 132.547 59.5977 133.039 59.5977C133.648 59.5977 134.215 59.4805 134.738 59.2461C135.27 59.0039 135.727 58.6406 136.109 58.1562L137.75 59.9375C137.484 60.3203 137.121 60.6875 136.66 61.0391C136.207 61.3906 135.66 61.6797 135.02 61.9062C134.379 62.125 133.648 62.2344 132.828 62.2344ZM146.164 49.3203V51.7109H138.781V49.3203H146.164ZM140.609 46.1914H143.984V58.1797C143.984 58.5469 144.031 58.8281 144.125 59.0234C144.227 59.2188 144.375 59.3555 144.57 59.4336C144.766 59.5039 145.012 59.5391 145.309 59.5391C145.52 59.5391 145.707 59.5312 145.871 59.5156C146.043 59.4922 146.188 59.4688 146.305 59.4453L146.316 61.9297C146.027 62.0234 145.715 62.0977 145.379 62.1523C145.043 62.207 144.672 62.2344 144.266 62.2344C143.523 62.2344 142.875 62.1133 142.32 61.8711C141.773 61.6211 141.352 61.2227 141.055 60.6758C140.758 60.1289 140.609 59.4102 140.609 58.5195V46.1914ZM160.918 55.918H156.57V53.1758H160.918C161.59 53.1758 162.137 53.0664 162.559 52.8477C162.98 52.6211 163.289 52.3086 163.484 51.9102C163.68 51.5117 163.777 51.0625 163.777 50.5625C163.777 50.0547 163.68 49.582 163.484 49.1445C163.289 48.707 162.98 48.3555 162.559 48.0898C162.137 47.8242 161.59 47.6914 160.918 47.6914H157.789V62H154.273V44.9375H160.918C162.254 44.9375 163.398 45.1797 164.352 45.6641C165.312 46.1406 166.047 46.8008 166.555 47.6445C167.062 48.4883 167.316 49.4531 167.316 50.5391C167.316 51.6406 167.062 52.5938 166.555 53.3984C166.047 54.2031 165.312 54.8242 164.352 55.2617C163.398 55.6992 162.254 55.918 160.918 55.918ZM176.234 59.1406V53.4922C176.234 53.0859 176.168 52.7383 176.035 52.4492C175.902 52.1523 175.695 51.9219 175.414 51.7578C175.141 51.5938 174.785 51.5117 174.348 51.5117C173.973 51.5117 173.648 51.5781 173.375 51.7109C173.102 51.8359 172.891 52.0195 172.742 52.2617C172.594 52.4961 172.52 52.7734 172.52 53.0938H169.145C169.145 52.5547 169.27 52.043 169.52 51.5586C169.77 51.0742 170.133 50.6484 170.609 50.2812C171.086 49.9062 171.652 49.6133 172.309 49.4023C172.973 49.1914 173.715 49.0859 174.535 49.0859C175.52 49.0859 176.395 49.25 177.16 49.5781C177.926 49.9062 178.527 50.3984 178.965 51.0547C179.41 51.7109 179.633 52.5312 179.633 53.5156V58.9414C179.633 59.6367 179.676 60.207 179.762 60.6523C179.848 61.0898 179.973 61.4727 180.137 61.8008V62H176.727C176.562 61.6562 176.438 61.2266 176.352 60.7109C176.273 60.1875 176.234 59.6641 176.234 59.1406ZM176.68 54.2773L176.703 56.1875H174.816C174.371 56.1875 173.984 56.2383 173.656 56.3398C173.328 56.4414 173.059 56.5859 172.848 56.7734C172.637 56.9531 172.48 57.1641 172.379 57.4062C172.285 57.6484 172.238 57.9141 172.238 58.2031C172.238 58.4922 172.305 58.7539 172.438 58.9883C172.57 59.2148 172.762 59.3945 173.012 59.5273C173.262 59.6523 173.555 59.7148 173.891 59.7148C174.398 59.7148 174.84 59.6133 175.215 59.4102C175.59 59.207 175.879 58.957 176.082 58.6602C176.293 58.3633 176.402 58.082 176.41 57.8164L177.301 59.2461C177.176 59.5664 177.004 59.8984 176.785 60.2422C176.574 60.5859 176.305 60.9102 175.977 61.2148C175.648 61.5117 175.254 61.7578 174.793 61.9531C174.332 62.1406 173.785 62.2344 173.152 62.2344C172.348 62.2344 171.617 62.0742 170.961 61.7539C170.312 61.4258 169.797 60.9766 169.414 60.4062C169.039 59.8281 168.852 59.1719 168.852 58.4375C168.852 57.7734 168.977 57.1836 169.227 56.668C169.477 56.1523 169.844 55.7188 170.328 55.3672C170.82 55.0078 171.434 54.7383 172.168 54.5586C172.902 54.3711 173.754 54.2773 174.723 54.2773H176.68ZM185.609 51.9453V62H182.223V49.3203H185.398L185.609 51.9453ZM185.141 55.2148H184.203C184.203 54.332 184.309 53.5195 184.52 52.7773C184.738 52.0273 185.055 51.3789 185.469 50.832C185.891 50.2773 186.41 49.8477 187.027 49.543C187.645 49.2383 188.359 49.0859 189.172 49.0859C189.734 49.0859 190.25 49.1719 190.719 49.3438C191.188 49.5078 191.59 49.7695 191.926 50.1289C192.27 50.4805 192.535 50.9414 192.723 51.5117C192.91 52.0742 193.004 52.75 193.004 53.5391V62H189.629V53.9141C189.629 53.3359 189.551 52.8906 189.395 52.5781C189.238 52.2656 189.016 52.0469 188.727 51.9219C188.445 51.7969 188.105 51.7344 187.707 51.7344C187.27 51.7344 186.887 51.8242 186.559 52.0039C186.238 52.1836 185.973 52.4336 185.762 52.7539C185.551 53.0664 185.395 53.4336 185.293 53.8555C185.191 54.2773 185.141 54.7305 185.141 55.2148ZM192.688 54.8281L191.48 54.9805C191.48 54.1523 191.582 53.3828 191.785 52.6719C191.996 51.9609 192.305 51.3359 192.711 50.7969C193.125 50.2578 193.637 49.8398 194.246 49.543C194.855 49.2383 195.559 49.0859 196.355 49.0859C196.965 49.0859 197.52 49.1758 198.02 49.3555C198.52 49.5273 198.945 49.8047 199.297 50.1875C199.656 50.5625 199.93 51.0547 200.117 51.6641C200.312 52.2734 200.41 53.0195 200.41 53.9023V62H197.023V53.9023C197.023 53.3164 196.945 52.8711 196.789 52.5664C196.641 52.2539 196.422 52.0391 196.133 51.9219C195.852 51.7969 195.516 51.7344 195.125 51.7344C194.719 51.7344 194.363 51.8164 194.059 51.9805C193.754 52.1367 193.5 52.3555 193.297 52.6367C193.094 52.918 192.941 53.2461 192.84 53.6211C192.738 53.9883 192.688 54.3906 192.688 54.8281ZM206.398 51.7578V66.875H203.023V49.3203H206.152L206.398 51.7578ZM214.426 55.5195V55.7656C214.426 56.6875 214.316 57.543 214.098 58.332C213.887 59.1211 213.574 59.8086 213.16 60.3945C212.746 60.9727 212.23 61.4258 211.613 61.7539C211.004 62.0742 210.301 62.2344 209.504 62.2344C208.73 62.2344 208.059 62.0781 207.488 61.7656C206.918 61.4531 206.438 61.0156 206.047 60.4531C205.664 59.8828 205.355 59.2227 205.121 58.4727C204.887 57.7227 204.707 56.918 204.582 56.0586V55.4141C204.707 54.4922 204.887 53.6484 205.121 52.8828C205.355 52.1094 205.664 51.4414 206.047 50.8789C206.438 50.3086 206.914 49.8672 207.477 49.5547C208.047 49.2422 208.715 49.0859 209.48 49.0859C210.285 49.0859 210.992 49.2383 211.602 49.543C212.219 49.8477 212.734 50.2852 213.148 50.8555C213.57 51.4258 213.887 52.1055 214.098 52.8945C214.316 53.6836 214.426 54.5586 214.426 55.5195ZM211.039 55.7656V55.5195C211.039 54.9805 210.992 54.4844 210.898 54.0312C210.812 53.5703 210.672 53.168 210.477 52.8242C210.289 52.4805 210.039 52.2148 209.727 52.0273C209.422 51.832 209.051 51.7344 208.613 51.7344C208.152 51.7344 207.758 51.8086 207.43 51.957C207.109 52.1055 206.848 52.3203 206.645 52.6016C206.441 52.8828 206.289 53.2188 206.188 53.6094C206.086 54 206.023 54.4414 206 54.9336V56.5625C206.039 57.1406 206.148 57.6602 206.328 58.1211C206.508 58.5742 206.785 58.9336 207.16 59.1992C207.535 59.4648 208.027 59.5977 208.637 59.5977C209.082 59.5977 209.457 59.5 209.762 59.3047C210.066 59.1016 210.312 58.8242 210.5 58.4727C210.695 58.1211 210.832 57.7148 210.91 57.2539C210.996 56.793 211.039 56.2969 211.039 55.7656ZM222.359 62.2344C221.375 62.2344 220.492 62.0781 219.711 61.7656C218.93 61.4453 218.266 61.0039 217.719 60.4414C217.18 59.8789 216.766 59.2266 216.477 58.4844C216.188 57.7344 216.043 56.9375 216.043 56.0938V55.625C216.043 54.6641 216.18 53.7852 216.453 52.9883C216.727 52.1914 217.117 51.5 217.625 50.9141C218.141 50.3281 218.766 49.8789 219.5 49.5664C220.234 49.2461 221.062 49.0859 221.984 49.0859C222.883 49.0859 223.68 49.2344 224.375 49.5312C225.07 49.8281 225.652 50.25 226.121 50.7969C226.598 51.3438 226.957 52 227.199 52.7656C227.441 53.5234 227.562 54.3672 227.562 55.2969V56.7031H217.484V54.4531H224.246V54.1953C224.246 53.7266 224.16 53.3086 223.988 52.9414C223.824 52.5664 223.574 52.2695 223.238 52.0508C222.902 51.832 222.473 51.7227 221.949 51.7227C221.504 51.7227 221.121 51.8203 220.801 52.0156C220.48 52.2109 220.219 52.4844 220.016 52.8359C219.82 53.1875 219.672 53.6016 219.57 54.0781C219.477 54.5469 219.43 55.0625 219.43 55.625V56.0938C219.43 56.6016 219.5 57.0703 219.641 57.5C219.789 57.9297 219.996 58.3008 220.262 58.6133C220.535 58.9258 220.863 59.168 221.246 59.3398C221.637 59.5117 222.078 59.5977 222.57 59.5977C223.18 59.5977 223.746 59.4805 224.27 59.2461C224.801 59.0039 225.258 58.6406 225.641 58.1562L227.281 59.9375C227.016 60.3203 226.652 60.6875 226.191 61.0391C225.738 61.3906 225.191 61.6797 224.551 61.9062C223.91 62.125 223.18 62.2344 222.359 62.2344ZM232.859 52.0859V62H229.484V49.3203H232.66L232.859 52.0859ZM236.68 49.2383L236.621 52.3672C236.457 52.3438 236.258 52.3242 236.023 52.3086C235.797 52.2852 235.59 52.2734 235.402 52.2734C234.926 52.2734 234.512 52.3359 234.16 52.4609C233.816 52.5781 233.527 52.7539 233.293 52.9883C233.066 53.2227 232.895 53.5078 232.777 53.8438C232.668 54.1797 232.605 54.5625 232.59 54.9922L231.91 54.7812C231.91 53.9609 231.992 53.207 232.156 52.5195C232.32 51.8242 232.559 51.2188 232.871 50.7031C233.191 50.1875 233.582 49.7891 234.043 49.5078C234.504 49.2266 235.031 49.0859 235.625 49.0859C235.812 49.0859 236.004 49.1016 236.199 49.1328C236.395 49.1562 236.555 49.1914 236.68 49.2383Z" fill="#888888"/>
<path d="M109.93 86.0078V118H102.217V86.0078H109.93ZM119.554 86.0078V91.9624H92.813V86.0078H119.554ZM132.012 118.439C130.079 118.439 128.35 118.139 126.827 117.539C125.303 116.923 124.014 116.081 122.959 115.012C121.919 113.942 121.121 112.712 120.564 111.32C120.022 109.929 119.751 108.457 119.751 106.904V106.069C119.751 104.326 119.993 102.714 120.477 101.235C120.96 99.7407 121.678 98.437 122.63 97.3237C123.582 96.2104 124.776 95.3462 126.211 94.731C127.647 94.1011 129.317 93.7861 131.221 93.7861C132.906 93.7861 134.415 94.0571 135.748 94.5991C137.081 95.1411 138.208 95.9175 139.131 96.9282C140.069 97.939 140.779 99.1621 141.263 100.598C141.761 102.033 142.01 103.645 142.01 105.432V108.442H122.586V103.806H134.781V103.234C134.795 102.443 134.656 101.77 134.363 101.213C134.085 100.656 133.675 100.231 133.133 99.9385C132.591 99.6455 131.932 99.499 131.155 99.499C130.35 99.499 129.683 99.6748 129.156 100.026C128.643 100.378 128.24 100.861 127.947 101.477C127.669 102.077 127.471 102.773 127.354 103.564C127.237 104.355 127.178 105.19 127.178 106.069V106.904C127.178 107.783 127.295 108.581 127.53 109.299C127.779 110.017 128.13 110.632 128.584 111.145C129.053 111.643 129.61 112.031 130.254 112.309C130.914 112.587 131.661 112.727 132.496 112.727C133.506 112.727 134.502 112.536 135.484 112.155C136.465 111.774 137.308 111.145 138.011 110.266L141.373 114.265C140.889 114.953 140.201 115.62 139.307 116.264C138.428 116.909 137.374 117.436 136.143 117.846C134.913 118.242 133.536 118.439 132.012 118.439ZM155.062 112.727C155.75 112.727 156.336 112.602 156.819 112.353C157.317 112.089 157.691 111.723 157.94 111.254C158.204 110.771 158.328 110.192 158.313 109.519H165.279C165.293 111.306 164.854 112.873 163.96 114.221C163.082 115.554 161.88 116.594 160.357 117.341C158.848 118.073 157.142 118.439 155.237 118.439C153.377 118.439 151.751 118.139 150.359 117.539C148.968 116.923 147.803 116.074 146.866 114.99C145.943 113.891 145.247 112.609 144.778 111.145C144.324 109.68 144.097 108.09 144.097 106.376V105.871C144.097 104.157 144.324 102.568 144.778 101.103C145.247 99.6235 145.943 98.3418 146.866 97.2578C147.803 96.1592 148.96 95.3096 150.337 94.709C151.729 94.0938 153.348 93.7861 155.193 93.7861C157.171 93.7861 158.914 94.1597 160.423 94.9067C161.946 95.6538 163.14 96.7378 164.004 98.1587C164.869 99.5796 165.293 101.301 165.279 103.322H158.313C158.328 102.604 158.218 101.96 157.984 101.389C157.75 100.817 157.383 100.363 156.885 100.026C156.402 99.6748 155.779 99.499 155.018 99.499C154.256 99.499 153.641 99.6675 153.172 100.004C152.703 100.341 152.344 100.81 152.095 101.411C151.861 101.997 151.7 102.67 151.612 103.432C151.539 104.194 151.502 105.007 151.502 105.871V106.376C151.502 107.255 151.539 108.083 151.612 108.859C151.7 109.621 151.868 110.295 152.117 110.881C152.366 111.452 152.725 111.906 153.194 112.243C153.663 112.565 154.285 112.727 155.062 112.727ZM175.694 84.25V118H168.289V84.25H175.694ZM174.815 105.3L173.079 105.344C173.079 103.674 173.284 102.136 173.694 100.729C174.104 99.3232 174.69 98.1001 175.452 97.0601C176.214 96.02 177.129 95.2144 178.199 94.6431C179.268 94.0718 180.455 93.7861 181.758 93.7861C182.93 93.7861 184 93.9546 184.966 94.2915C185.948 94.6284 186.79 95.1704 187.493 95.9175C188.211 96.6646 188.76 97.6387 189.141 98.8398C189.537 100.041 189.734 101.506 189.734 103.234V118H182.286V103.19C182.286 102.224 182.146 101.477 181.868 100.949C181.604 100.407 181.224 100.034 180.726 99.8286C180.228 99.6089 179.62 99.499 178.902 99.499C178.038 99.499 177.334 99.6455 176.792 99.9385C176.25 100.231 175.833 100.642 175.54 101.169C175.262 101.682 175.071 102.29 174.969 102.993C174.866 103.696 174.815 104.465 174.815 105.3ZM221.88 109.497C221.88 108.999 221.807 108.552 221.661 108.156C221.514 107.746 221.243 107.365 220.848 107.014C220.452 106.662 219.881 106.311 219.134 105.959C218.401 105.593 217.435 105.212 216.233 104.816C214.827 104.348 213.472 103.82 212.168 103.234C210.865 102.634 209.7 101.938 208.675 101.147C207.649 100.341 206.836 99.4038 206.236 98.3345C205.635 97.2505 205.335 95.9907 205.335 94.5552C205.335 93.1782 205.643 91.9404 206.258 90.8418C206.873 89.7285 207.73 88.7837 208.829 88.0073C209.942 87.2163 211.246 86.6157 212.74 86.2056C214.234 85.7808 215.867 85.5684 217.64 85.5684C219.983 85.5684 222.049 85.9785 223.836 86.7988C225.638 87.6045 227.044 88.7544 228.055 90.2485C229.08 91.728 229.593 93.4785 229.593 95.5H221.924C221.924 94.6943 221.756 93.9839 221.419 93.3687C221.097 92.7534 220.606 92.27 219.947 91.9185C219.288 91.5669 218.46 91.3911 217.464 91.3911C216.497 91.3911 215.684 91.5376 215.025 91.8306C214.366 92.1235 213.868 92.519 213.531 93.0171C213.194 93.5005 213.025 94.0352 213.025 94.6211C213.025 95.1045 213.157 95.5439 213.421 95.9395C213.699 96.3203 214.087 96.6792 214.585 97.0161C215.098 97.353 215.713 97.6753 216.431 97.9829C217.164 98.2905 217.984 98.5908 218.892 98.8838C220.591 99.4258 222.1 100.034 223.418 100.708C224.751 101.367 225.872 102.121 226.78 102.971C227.703 103.806 228.399 104.758 228.868 105.827C229.351 106.896 229.593 108.105 229.593 109.453C229.593 110.888 229.314 112.163 228.758 113.276C228.201 114.389 227.403 115.334 226.363 116.11C225.323 116.872 224.078 117.451 222.627 117.846C221.177 118.242 219.559 118.439 217.771 118.439C216.131 118.439 214.512 118.234 212.916 117.824C211.333 117.399 209.898 116.755 208.609 115.891C207.32 115.012 206.287 113.891 205.511 112.529C204.749 111.152 204.368 109.519 204.368 107.629H212.103C212.103 108.566 212.227 109.357 212.476 110.002C212.725 110.646 213.091 111.167 213.575 111.562C214.058 111.943 214.651 112.221 215.354 112.397C216.058 112.558 216.863 112.639 217.771 112.639C218.753 112.639 219.544 112.5 220.145 112.221C220.745 111.928 221.185 111.547 221.463 111.079C221.741 110.595 221.88 110.068 221.88 109.497ZM245.743 94.2256V99.3672H231.417V94.2256H245.743ZM234.427 88.3149H241.832V110.244C241.832 110.874 241.905 111.364 242.051 111.716C242.198 112.053 242.447 112.294 242.798 112.441C243.165 112.573 243.648 112.639 244.249 112.639C244.673 112.639 245.025 112.631 245.303 112.617C245.582 112.587 245.845 112.551 246.094 112.507V117.802C245.464 118.007 244.805 118.161 244.117 118.264C243.428 118.381 242.696 118.439 241.919 118.439C240.337 118.439 238.982 118.19 237.854 117.692C236.741 117.194 235.892 116.411 235.306 115.341C234.72 114.272 234.427 112.88 234.427 111.167V88.3149ZM261.036 112.023V102.224C261.036 101.55 260.94 100.971 260.75 100.488C260.56 100.004 260.259 99.6309 259.849 99.3672C259.439 99.0889 258.89 98.9497 258.201 98.9497C257.645 98.9497 257.168 99.0449 256.773 99.2354C256.377 99.4258 256.077 99.7114 255.872 100.092C255.667 100.473 255.564 100.957 255.564 101.542H248.16C248.16 100.444 248.401 99.4258 248.885 98.4883C249.383 97.5361 250.086 96.7085 250.994 96.0054C251.917 95.3022 253.016 94.7603 254.29 94.3794C255.579 93.9839 257.015 93.7861 258.597 93.7861C260.486 93.7861 262.171 94.1011 263.65 94.731C265.145 95.3608 266.324 96.3057 267.188 97.5654C268.052 98.8105 268.484 100.378 268.484 102.268V112.001C268.484 113.554 268.572 114.733 268.748 115.539C268.924 116.33 269.173 117.026 269.495 117.626V118H262.068C261.717 117.268 261.453 116.374 261.277 115.319C261.116 114.25 261.036 113.151 261.036 112.023ZM261.937 103.476L261.98 107.431H258.707C258.018 107.431 257.432 107.526 256.949 107.717C256.48 107.907 256.099 108.171 255.806 108.508C255.528 108.83 255.323 109.196 255.191 109.606C255.074 110.017 255.015 110.449 255.015 110.903C255.015 111.342 255.118 111.738 255.323 112.089C255.542 112.426 255.835 112.69 256.202 112.88C256.568 113.071 256.978 113.166 257.432 113.166C258.252 113.166 258.948 113.012 259.52 112.705C260.105 112.382 260.552 111.994 260.86 111.54C261.167 111.086 261.321 110.661 261.321 110.266L262.947 113.298C262.654 113.884 262.317 114.477 261.937 115.078C261.57 115.678 261.109 116.235 260.552 116.748C260.01 117.246 259.344 117.656 258.553 117.978C257.762 118.286 256.802 118.439 255.674 118.439C254.209 118.439 252.862 118.139 251.631 117.539C250.416 116.938 249.441 116.103 248.709 115.034C247.977 113.95 247.61 112.705 247.61 111.298C247.61 110.068 247.83 108.969 248.27 108.002C248.724 107.036 249.405 106.215 250.313 105.542C251.221 104.868 252.378 104.355 253.785 104.003C255.191 103.652 256.846 103.476 258.75 103.476H261.937ZM282.635 112.727C283.323 112.727 283.909 112.602 284.393 112.353C284.891 112.089 285.264 111.723 285.513 111.254C285.777 110.771 285.901 110.192 285.887 109.519H292.852C292.867 111.306 292.427 112.873 291.534 114.221C290.655 115.554 289.454 116.594 287.93 117.341C286.421 118.073 284.715 118.439 282.811 118.439C280.95 118.439 279.324 118.139 277.933 117.539C276.541 116.923 275.376 116.074 274.439 114.99C273.516 113.891 272.82 112.609 272.352 111.145C271.897 109.68 271.67 108.09 271.67 106.376V105.871C271.67 104.157 271.897 102.568 272.352 101.103C272.82 99.6235 273.516 98.3418 274.439 97.2578C275.376 96.1592 276.534 95.3096 277.911 94.709C279.302 94.0938 280.921 93.7861 282.767 93.7861C284.744 93.7861 286.487 94.1597 287.996 94.9067C289.52 95.6538 290.713 96.7378 291.578 98.1587C292.442 99.5796 292.867 101.301 292.852 103.322H285.887C285.901 102.604 285.792 101.96 285.557 101.389C285.323 100.817 284.957 100.363 284.458 100.026C283.975 99.6748 283.353 99.499 282.591 99.499C281.829 99.499 281.214 99.6675 280.745 100.004C280.276 100.341 279.917 100.81 279.668 101.411C279.434 101.997 279.273 102.67 279.185 103.432C279.112 104.194 279.075 105.007 279.075 105.871V106.376C279.075 107.255 279.112 108.083 279.185 108.859C279.273 109.621 279.441 110.295 279.69 110.881C279.939 111.452 280.298 111.906 280.767 112.243C281.236 112.565 281.858 112.727 282.635 112.727ZM303.487 84.228V118H296.082V84.228H303.487ZM318.692 94.2256L308.365 106.333L302.959 111.738L299.729 107.036L304.234 101.169L309.815 94.2256H318.692ZM310.76 118L304.41 107.167L309.881 103.278L319.241 118H310.76Z" fill="#424241"/>
<path d="M1363 15C1363 6.71573 1356.28 0 1348 0H1134V167H1348C1356.28 167 1363 160.284 1363 152V15Z" fill="#004B67"/>
<path fill-rule="evenodd" clip-rule="evenodd" d="M1218.5 55C1218.37 55 1218.24 55.0527 1218.15 55.1464C1218.05 55.2402 1218 55.3674 1218 55.5V111.5C1218 111.633 1218.05 111.76 1218.15 111.854C1218.24 111.947 1218.37 112 1218.5 112H1278C1278.13 112 1278.26 111.947 1278.35 111.854C1278.45 111.76 1278.5 111.633 1278.5 111.5V66C1278.5 65.8674 1278.45 65.7402 1278.35 65.6464C1278.26 65.5527 1278.13 65.5 1278 65.5H1248.25C1247.36 65.5 1246.52 65.1045 1245.95 64.4206L1238.09 55H1218.5ZM1213.9 50.9038C1215.12 49.6848 1216.78 49 1218.5 49H1239.5C1240.39 49 1241.23 49.3955 1241.8 50.0794L1249.66 59.5H1278C1279.72 59.5 1281.38 60.1848 1282.6 61.4038C1283.82 62.6228 1284.5 64.2761 1284.5 66V111.5C1284.5 113.224 1283.82 114.877 1282.6 116.096C1281.38 117.315 1279.72 118 1278 118H1218.5C1216.78 118 1215.12 117.315 1213.9 116.096C1212.68 114.877 1212 113.224 1212 111.5V55.5C1212 53.7761 1212.68 52.1228 1213.9 50.9038Z" fill="white"/>
<path fill-rule="evenodd" clip-rule="evenodd" d="M1243.72 77.5251C1245.09 78.892 1245.09 81.108 1243.72 82.4749L1237.45 88.75L1243.72 95.0251C1245.09 96.392 1245.09 98.608 1243.72 99.9749C1242.36 101.342 1240.14 101.342 1238.78 99.9749L1230.03 91.2249C1228.66 89.858 1228.66 87.642 1230.03 86.2751L1238.78 77.5251C1240.14 76.1583 1242.36 76.1583 1243.72 77.5251Z" fill="white"/>
<path fill-rule="evenodd" clip-rule="evenodd" d="M1252.03 99.9749C1250.66 98.608 1250.66 96.392 1252.03 95.0251L1258.3 88.75L1252.03 82.4749C1250.66 81.108 1250.66 78.892 1252.03 77.5251C1253.39 76.1583 1255.61 76.1583 1256.97 77.5251L1265.72 86.2751C1267.09 87.642 1267.09 89.858 1265.72 91.2249L1256.97 99.9749C1255.61 101.342 1253.39 101.342 1252.03 99.9749Z" fill="white"/>
</svg>
